<svg width="35" height="40" viewBox="0 0 35 40" fill="none" xmlns="http://www.w3.org/2000/svg">
<path d="M31.6625 12.9854C31.0065 12.9854 30.3773 13.246 29.9134 13.7098C29.4496 14.1737 29.189 14.8028 29.189 15.4589V25.7652C29.189 26.4212 29.4496 27.0503 29.9134 27.5142C30.3773 27.9781 31.0065 28.2387 31.6625 28.2387C32.3185 28.2387 32.9476 27.9781 33.4115 27.5142C33.8754 27.0503 34.136 26.4212 34.136 25.7652V15.4589C34.136 14.8028 33.8754 14.1737 33.4115 13.7098C32.9476 13.246 32.3185 12.9854 31.6625 12.9854Z" fill="#A4C639"/>
<path d="M2.80481 12.9854C2.1488 12.9854 1.51965 13.246 1.05578 13.7098C0.591903 14.1737 0.3313 14.8028 0.331299 15.4589L0.331299 25.7652C0.331299 26.4212 0.591901 27.0503 1.05577 27.5142C1.51965 27.9781 2.1488 28.2387 2.80481 28.2387C3.46083 28.2387 4.08998 27.9781 4.55385 27.5142C5.01773 27.0503 5.27833 26.4212 5.27833 25.7652V15.4589C5.27833 14.8028 5.01772 14.1737 4.55385 13.7098C4.08998 13.246 3.46083 12.9854 2.80481 12.9854Z" fill="#A4C639"/>
<path d="M6.20001 12.5367H28.2673C28.2625 8.73131 25.9966 5.41533 22.6433 3.67061L24.3885 0.5223C24.4175 0.470432 24.4327 0.411991 24.4327 0.352561C24.4326 0.290415 24.4163 0.229371 24.3853 0.175509C24.3544 0.122301 24.3101 0.0781062 24.2568 0.0473163C24.2036 0.0165264 24.1432 0.000213832 24.0816 0C24.0195 6.83034e-05 23.9585 0.0164083 23.9046 0.0473933C23.8495 0.0791569 23.8041 0.125477 23.7734 0.181292L22.0089 3.36452C20.5034 2.70453 18.8775 2.36378 17.2337 2.36378C15.5899 2.36378 13.9639 2.70454 12.4584 3.36454L10.6939 0.181277C10.6633 0.125468 10.6179 0.0791557 10.5627 0.0474005C10.5088 0.0164075 10.4478 6.47711e-05 10.3857 0C10.3241 0.000209224 10.2637 0.0165159 10.2105 0.0472996C10.1572 0.0780832 10.1129 0.122272 10.082 0.175474C10.051 0.229329 10.0347 0.290364 10.0346 0.3525C10.0346 0.411934 10.0498 0.470379 10.0788 0.522251L11.824 3.67062C8.47073 5.41533 6.20483 8.73132 6.20001 12.5367ZM12.1411 6.65606C12.3543 6.65605 12.5609 6.72997 12.7257 6.86522C12.8906 7.00047 13.0034 7.18868 13.045 7.39779C13.0866 7.60689 13.0544 7.82395 12.9539 8.01198C12.8534 8.20001 12.6908 8.34737 12.4938 8.42896C12.2968 8.51055 12.0777 8.52132 11.8737 8.45944C11.6696 8.39755 11.4934 8.26684 11.3749 8.08957C11.2565 7.9123 11.2032 7.69944 11.2241 7.48727C11.245 7.27509 11.3388 7.07673 11.4895 6.92597C11.5751 6.84036 11.6766 6.77245 11.7885 6.72613C11.9003 6.67982 12.0201 6.65601 12.1411 6.65606ZM22.3262 6.65606C22.5394 6.65605 22.746 6.72997 22.9108 6.86522C23.0756 7.00047 23.1884 7.18868 23.23 7.39779C23.2716 7.60689 23.2394 7.82395 23.1389 8.01198C23.0384 8.20001 22.8759 8.34737 22.6789 8.42896C22.4819 8.51055 22.2627 8.52132 22.0587 8.45944C21.8547 8.39755 21.6784 8.26684 21.56 8.08957C21.4415 7.9123 21.3882 7.69944 21.4091 7.48727C21.43 7.27509 21.5238 7.07673 21.6746 6.92597C21.7601 6.84036 21.8617 6.77245 21.9735 6.72613C22.0853 6.67982 22.2052 6.65601 22.3262 6.65606Z" fill="#A4C639"/>
<path d="M28.2675 13.4097H6.19983V29.4027C6.19983 29.753 6.26882 30.0999 6.40288 30.4235C6.53693 30.7472 6.73342 31.0412 6.98112 31.2889C7.22882 31.5366 7.52289 31.7331 7.84653 31.8672C8.17017 32.0012 8.51704 32.0702 8.86734 32.0702H10.6376V37.5265C10.6376 38.1825 10.8982 38.8117 11.3621 39.2755C11.826 39.7394 12.4551 40 13.1111 40C13.7671 40 14.3963 39.7394 14.8602 39.2755C15.324 38.8117 15.5846 38.1825 15.5846 37.5265V32.0702H18.8827V37.5265C18.8827 38.1825 19.1433 38.8117 19.6071 39.2755C20.071 39.7394 20.7002 40 21.3562 40C22.0122 40 22.6413 39.7394 23.1052 39.2755C23.5691 38.8117 23.8297 38.1825 23.8297 37.5265V32.0702H25.5999C25.9502 32.0702 26.2971 32.0012 26.6208 31.8672C26.9444 31.7331 27.2385 31.5366 27.4862 31.2889C27.7339 31.0412 27.9304 30.7472 28.0644 30.4235C28.1985 30.0999 28.2675 29.753 28.2675 29.4027V13.4097Z" fill="#A4C639"/>
</svg>
