<svg width="203" height="60" viewBox="0 0 203 60" fill="none" xmlns="http://www.w3.org/2000/svg">
<path d="M195.778 60H7.52821C6.60209 60.0011 5.68485 59.8195 4.82902 59.4655C3.97319 59.1116 3.19558 58.5924 2.54071 57.9375C1.88584 57.2826 1.36659 56.505 1.01267 55.6492C0.658759 54.7934 0.477139 53.8761 0.478215 52.95V7.05005C0.477139 6.12393 0.658759 5.2067 1.01267 4.35087C1.36659 3.49504 1.88584 2.71742 2.54071 2.06256C3.19558 1.40769 3.97319 0.888434 4.82902 0.53452C5.68485 0.180605 6.60209 -0.00101374 7.52821 6.20367e-05H195.778C197.664 -0.00777788 199.477 0.727743 200.825 2.0473C202.173 3.36687 202.946 5.16422 202.978 7.05005V52.8C202.978 54.7094 202.219 56.5405 200.869 57.8907C199.519 59.2409 197.687 59.9996 195.778 60Z" fill="black"/>
<path d="M45.6282 29.7006C45.6541 28.2212 46.0526 26.7722 46.7866 25.4876C47.5207 24.2029 48.5668 23.124 49.8282 22.3506C49.0315 21.2145 47.9776 20.2826 46.7525 19.6309C45.5274 18.9793 44.1656 18.6263 42.7782 18.6006C39.7782 18.3006 36.9282 20.4006 35.4282 20.4006C33.9282 20.4006 31.5282 18.6006 29.1282 18.7506C27.5245 18.8098 25.9633 19.283 24.5965 20.1241C23.2297 20.9652 22.1038 22.1456 21.3282 23.5506C17.8782 29.4006 20.4282 38.1006 23.7282 42.9006C25.3782 45.3006 27.3282 47.8506 29.7282 47.7006C32.1282 47.5506 33.0282 46.2006 36.0282 46.2006C38.8782 46.2006 39.7782 47.7006 42.3282 47.7006C44.8782 47.7006 46.5282 45.3006 48.1782 43.0506C49.3897 41.424 50.3038 39.5958 50.8782 37.6506C50.7282 37.3506 45.7782 35.4006 45.6282 29.7006Z" fill="white"/>
<path d="M40.8282 15.4498C41.5503 14.6086 42.0953 13.6304 42.4303 12.5736C42.7654 11.5169 42.8837 10.4034 42.7782 9.2998C40.6153 9.59332 38.6108 10.5956 37.0782 12.1498C36.3795 12.9456 35.847 13.8731 35.5121 14.8778C35.1772 15.8824 35.0467 16.9439 35.1282 17.9998C36.2165 18.0916 37.3102 17.9059 38.3071 17.4599C39.304 17.0139 40.1714 16.3223 40.8282 15.4498Z" fill="white"/>
<path d="M80.8782 47.2498H77.4282L75.6282 41.3998H69.1782L67.3782 47.2498H64.0782L70.5282 27.2998H74.4282L80.8782 47.2498ZM75.1782 38.9998L73.5282 33.7498C73.3782 33.1498 73.0782 31.9498 72.4782 29.9998C72.3282 30.8998 72.0282 32.0998 71.5782 33.7498L69.7782 38.9998H75.1782Z" fill="white"/>
<path d="M97.528 39.8997C97.6462 42.0268 96.9488 44.1189 95.578 45.7497C95.0188 46.3474 94.3462 46.8276 93.5993 47.1624C92.8524 47.4973 92.0463 47.6799 91.228 47.6997C90.4235 47.7681 89.6161 47.6071 88.8993 47.2354C88.1825 46.8638 87.5857 46.2966 87.178 45.5997V53.2497H84.0281V37.6497C84.0281 36.1497 84.0281 34.4997 83.8781 32.8497H86.7281L86.878 35.0997C87.3823 34.2893 88.0919 33.6266 88.9349 33.1787C89.7778 32.7309 90.7242 32.5139 91.678 32.5497C92.4821 32.5216 93.2815 32.6835 94.0113 33.0223C94.7411 33.3611 95.3806 33.8673 95.878 34.4997C97.0214 36.062 97.6029 37.9651 97.528 39.8997ZM94.228 40.0497C94.2715 38.8365 93.9586 37.6371 93.328 36.5997C92.9926 36.1664 92.5597 35.8183 92.0645 35.5838C91.5693 35.3492 91.0258 35.2347 90.478 35.2497C89.7161 35.27 88.9805 35.5328 88.378 35.9997C87.755 36.5462 87.3326 37.2854 87.178 38.0997C87.0762 38.3887 87.0254 38.6933 87.0281 38.9997V41.3997C87.0037 42.3772 87.3221 43.3323 87.928 44.0997C88.2428 44.4602 88.6369 44.7427 89.0794 44.9249C89.5219 45.1072 90.0007 45.1841 90.478 45.1497C91.0258 45.1647 91.5693 45.0502 92.0645 44.8156C92.5597 44.5811 92.9926 44.233 93.328 43.7997C93.9585 42.6528 94.2693 41.3577 94.228 40.0497Z" fill="white"/>
<path d="M114.028 39.8997C114.146 42.0268 113.449 44.1189 112.078 45.7497C111.519 46.3474 110.846 46.8276 110.099 47.1624C109.352 47.4973 108.546 47.6799 107.728 47.6997C106.924 47.7681 106.116 47.6071 105.399 47.2354C104.683 46.8638 104.086 46.2966 103.678 45.5997V53.2497H100.528V37.6497C100.528 36.1497 100.528 34.4997 100.378 32.8497H103.228L103.378 35.0997C103.882 34.2893 104.592 33.6266 105.435 33.1787C106.278 32.7309 107.224 32.5139 108.178 32.5497C108.982 32.5216 109.782 32.6835 110.511 33.0223C111.241 33.3611 111.881 33.8673 112.378 34.4997C113.521 36.062 114.103 37.9651 114.028 39.8997ZM110.728 40.0497C110.772 38.8365 110.459 37.6371 109.828 36.5997C109.493 36.1664 109.06 35.8183 108.565 35.5838C108.069 35.3492 107.526 35.2347 106.978 35.2497C106.216 35.27 105.48 35.5328 104.878 35.9997C104.255 36.5462 103.833 37.2854 103.678 38.0997C103.576 38.3887 103.525 38.6933 103.528 38.9997V41.3997C103.504 42.3772 103.822 43.3324 104.428 44.0997C104.743 44.4602 105.137 44.7427 105.579 44.9249C106.022 45.1072 106.501 45.1841 106.978 45.1497C107.526 45.1647 108.069 45.0502 108.565 44.8156C109.06 44.5811 109.493 44.233 109.828 43.7997C110.458 42.6529 110.769 41.3577 110.728 40.0497Z" fill="white"/>
<path d="M132.478 41.6995C132.5 42.4882 132.351 43.2722 132.04 43.9974C131.729 44.7226 131.264 45.3716 130.678 45.8995C129.168 47.1558 127.24 47.7983 125.278 47.6995C123.501 47.7671 121.739 47.3524 120.178 46.4995L120.928 43.7995C122.313 44.695 123.929 45.1644 125.578 45.1495C126.58 45.172 127.567 44.9121 128.428 44.3995C128.757 44.1242 129.022 43.7799 129.203 43.3912C129.385 43.0024 129.478 42.5785 129.478 42.1495C129.475 41.7573 129.393 41.3697 129.239 41.0092C129.084 40.6487 128.86 40.3225 128.578 40.0495C127.792 39.368 126.872 38.8572 125.878 38.5495C122.428 37.1995 120.628 35.3995 120.628 32.8495C120.607 32.0829 120.757 31.3212 121.069 30.6204C121.38 29.9196 121.845 29.2974 122.428 28.7995C123.837 27.707 125.6 27.1729 127.378 27.2995C128.928 27.2473 130.468 27.5554 131.878 28.1995L130.978 30.5995C129.818 30.0032 128.532 29.6945 127.228 29.6995C126.247 29.6501 125.283 29.9714 124.528 30.5995C124.261 30.8118 124.053 31.0882 123.921 31.403C123.79 31.7177 123.741 32.0606 123.778 32.3995C123.768 32.7719 123.844 33.1417 124 33.4799C124.156 33.8182 124.388 34.1158 124.678 34.3495C125.538 35.0044 126.501 35.5113 127.528 35.8495C128.931 36.3799 130.209 37.1974 131.278 38.2495C131.701 38.7135 132.026 39.2585 132.232 39.8515C132.438 40.4445 132.522 41.0732 132.478 41.6995Z" fill="white"/>
<path d="M143.128 35.25H139.678V42.3C139.678 44.1 140.278 45 141.478 45C141.933 45.0433 142.393 44.9922 142.828 44.85L142.978 47.25C142.158 47.5255 141.29 47.6277 140.428 47.55C139.873 47.5586 139.323 47.4569 138.808 47.2509C138.293 47.0449 137.824 46.7387 137.428 46.35C136.598 45.2292 136.223 43.8359 136.378 42.45V35.25H134.278V32.85H136.378V30.15L139.528 29.25V32.85H142.978C143.103 33.6436 143.153 34.4471 143.128 35.25Z" fill="white"/>
<path d="M159.028 39.9003C159.088 40.8857 158.945 41.8729 158.61 42.8014C158.275 43.7299 157.753 44.5803 157.078 45.3003C156.418 46.0331 155.607 46.6139 154.7 47.0024C153.794 47.3909 152.814 47.5778 151.828 47.5503C150.879 47.5701 149.936 47.3938 149.059 47.0324C148.181 46.6711 147.388 46.1325 146.728 45.4503C146.065 44.7522 145.551 43.9271 145.216 43.0248C144.881 42.1225 144.732 41.1617 144.778 40.2003C144.685 38.1675 145.384 36.1779 146.728 34.6503C147.409 33.9543 148.227 33.408 149.131 33.0464C150.035 32.6848 151.005 32.5158 151.978 32.5503C152.927 32.5305 153.87 32.7067 154.747 33.0681C155.625 33.4294 156.418 33.9681 157.078 34.6503C157.741 35.3484 158.255 36.1735 158.59 37.0757C158.925 37.978 159.074 38.9389 159.028 39.9003ZM155.728 40.0503C155.752 38.8393 155.44 37.6454 154.828 36.6003C154.571 36.073 154.162 35.6344 153.655 35.3405C153.147 35.0466 152.563 34.9108 151.978 34.9503C151.378 34.9413 150.785 35.0886 150.259 35.378C149.733 35.6673 149.292 36.0885 148.978 36.6003C148.347 37.6377 148.035 38.837 148.078 40.0503C148.054 41.2612 148.366 42.4551 148.978 43.5003C149.264 44.0132 149.685 44.438 150.196 44.7286C150.706 45.0193 151.286 45.1648 151.873 45.1494C152.461 45.1339 153.032 44.9581 153.527 44.641C154.021 44.3239 154.419 43.8775 154.678 43.3503C155.422 42.417 155.796 41.242 155.728 40.0503Z" fill="white"/>
<path d="M169.378 35.6998C169.078 35.6998 168.778 35.5498 168.328 35.5498C167.82 35.5198 167.314 35.6298 166.864 35.8679C166.414 36.1059 166.039 36.4629 165.778 36.8998C165.198 37.7309 164.932 38.7409 165.028 39.7498V47.2498H161.878V37.3498C161.908 35.8482 161.858 34.3461 161.728 32.8498H164.578L164.728 35.5498H164.878C165.199 34.6559 165.772 33.8742 166.528 33.2998C167.197 32.8515 167.974 32.5923 168.778 32.5498H169.528C169.407 33.5952 169.357 34.6476 169.378 35.6998Z" fill="white"/>
<path d="M183.778 39.4497C183.81 39.9546 183.76 40.4613 183.628 40.9497H174.028C173.996 41.5652 174.101 42.1801 174.334 42.7505C174.568 43.321 174.924 43.8329 175.378 44.2497C176.276 44.9519 177.388 45.3227 178.528 45.2997C179.862 45.2826 181.183 45.0287 182.428 44.5497L182.878 46.7997C181.357 47.4279 179.723 47.7344 178.078 47.6997C177.114 47.7735 176.145 47.6374 175.239 47.3007C174.333 46.9641 173.51 46.4349 172.828 45.7497C171.526 44.3162 170.827 42.4356 170.878 40.4997C170.805 38.5412 171.444 36.6225 172.678 35.0997C173.288 34.3459 174.069 33.7485 174.956 33.3571C175.843 32.9658 176.81 32.7918 177.778 32.8497C178.681 32.7923 179.584 32.9693 180.399 33.3635C181.213 33.7578 181.912 34.3558 182.428 35.0997C183.405 36.3304 183.887 37.8821 183.778 39.4497ZM180.628 38.5497C180.681 37.707 180.471 36.8686 180.028 36.1497C179.767 35.7128 179.392 35.3559 178.942 35.1178C178.492 34.8798 177.986 34.7697 177.478 34.7997C176.973 34.7873 176.473 34.9049 176.026 35.1413C175.58 35.3777 175.202 35.725 174.928 36.1497C174.324 36.8599 174.004 37.7679 174.028 38.6997L180.628 38.5497Z" fill="white"/>
<path d="M73.9781 14.9995C74.022 15.7549 73.8966 16.5105 73.6112 17.2111C73.3257 17.9118 72.8874 18.5399 72.3281 19.0495C71.0925 19.8884 69.6204 20.309 68.1281 20.2495C67.3748 20.2851 66.62 20.2348 65.8781 20.0995V10.4995C66.7724 10.3749 67.6755 10.3247 68.5781 10.3495C69.9601 10.2411 71.3373 10.6119 72.4781 11.3995C72.9852 11.8462 73.3839 12.4025 73.6438 13.0263C73.9037 13.6501 74.0181 14.3249 73.9781 14.9995ZM72.3281 14.9995C72.3775 14.0185 72.0563 13.0547 71.4281 12.2995C71.0607 11.9772 70.6327 11.7315 70.169 11.5769C69.7053 11.4224 69.2154 11.362 68.7281 11.3995C68.322 11.3654 67.9133 11.4165 67.5281 11.5495V18.8995H68.5781C69.1002 18.9339 69.6237 18.8583 70.1147 18.6774C70.6057 18.4965 71.0531 18.2144 71.4281 17.8495C71.7811 17.4716 72.0451 17.0195 72.2008 16.5264C72.3565 16.0333 72.4 15.5116 72.3281 14.9995Z" fill="white"/>
<path d="M82.8281 16.4996C82.8524 17.4771 82.534 18.4322 81.9281 19.1996C81.6133 19.5601 81.2192 19.8426 80.7767 20.0248C80.3342 20.207 79.8554 20.284 79.3781 20.2496C78.9024 20.2695 78.428 20.186 77.9877 20.0047C77.5475 19.8234 77.1518 19.5487 76.8281 19.1996C76.2243 18.4894 75.9038 17.5814 75.9281 16.6496C75.9037 15.6721 76.2221 14.7169 76.8281 13.9496C77.1428 13.5891 77.5369 13.3066 77.9794 13.1243C78.4219 12.9421 78.9007 12.8652 79.3781 12.8996C79.8538 12.8797 80.3281 12.9632 80.7684 13.1445C81.2086 13.3258 81.6043 13.6005 81.9281 13.9496C82.5318 14.6598 82.8523 15.5678 82.8281 16.4996ZM81.1781 16.6496C81.19 16.0677 81.0337 15.4948 80.7281 14.9996C80.6194 14.7314 80.4325 14.5021 80.1917 14.3416C79.9509 14.1811 79.6674 14.0968 79.3781 14.0996C79.0727 14.1121 78.7753 14.201 78.5133 14.3583C78.2512 14.5155 78.0328 14.736 77.8781 14.9996C77.5834 15.4996 77.4281 16.0693 77.4281 16.6496C77.4281 17.2299 77.5834 17.7996 77.8781 18.2996C78.0032 18.5871 78.2151 18.8284 78.484 18.9897C78.7529 19.1511 79.0654 19.2244 79.3781 19.1996C79.6674 19.2024 79.9509 19.1181 80.1917 18.9576C80.4325 18.797 80.6194 18.5678 80.7281 18.2996C81.0337 17.8044 81.19 17.2314 81.1781 16.6496Z" fill="white"/>
<path d="M94.6781 13.0494L92.4281 20.0994H90.9281L90.0281 17.0994C89.7585 16.3697 89.5576 15.6165 89.4281 14.8494C89.2986 15.6165 89.0977 16.3697 88.8281 17.0994L87.9281 20.0994H86.4281L84.3281 13.0494H85.9781L86.7281 16.3494L87.1781 18.5994C87.3281 17.9994 87.4781 17.2494 87.7781 16.3494L88.8281 12.8994H90.1781L91.0781 16.1994C91.3483 16.9802 91.5491 17.7833 91.6781 18.5994C91.8281 17.8494 91.9781 17.0994 92.1281 16.1994L93.0281 12.8994L94.6781 13.0494Z" fill="white"/>
<path d="M102.778 20.1H101.278V16.05C101.278 14.85 100.828 14.25 99.928 14.25C99.7075 14.235 99.4863 14.2674 99.2793 14.345C99.0723 14.4227 98.8843 14.5437 98.728 14.7C98.5717 14.8563 98.4507 15.0443 98.3731 15.2513C98.2954 15.4582 98.263 15.6794 98.278 15.9V20.1H96.778V13.05H97.978V14.1C98.1822 13.7646 98.435 13.4613 98.728 13.2C99.1227 12.9181 99.5931 12.7613 100.078 12.75C100.379 12.7346 100.68 12.7798 100.964 12.8829C101.247 12.9859 101.507 13.1448 101.728 13.35C102.025 13.6685 102.246 14.0494 102.376 14.4648C102.505 14.8802 102.54 15.3193 102.478 15.75V20.1H102.778Z" fill="white"/>
<path d="M107.128 20.0994H105.628V9.89941H107.128V20.0994Z" fill="white"/>
<path d="M116.428 16.4996C116.452 17.4771 116.134 18.4322 115.528 19.1996C115.213 19.5601 114.819 19.8426 114.377 20.0248C113.934 20.207 113.455 20.284 112.978 20.2496C112.502 20.2695 112.028 20.186 111.588 20.0047C111.147 19.8234 110.752 19.5487 110.428 19.1996C109.824 18.4894 109.504 17.5814 109.528 16.6496C109.504 15.6721 109.822 14.7169 110.428 13.9496C110.743 13.5891 111.137 13.3066 111.579 13.1243C112.022 12.9421 112.501 12.8652 112.978 12.8996C113.454 12.8797 113.928 12.9632 114.368 13.1445C114.809 13.3258 115.204 13.6005 115.528 13.9496C116.132 14.6598 116.452 15.5678 116.428 16.4996ZM114.778 16.6496C114.79 16.0677 114.634 15.4948 114.328 14.9996C114.219 14.7314 114.032 14.5021 113.792 14.3416C113.551 14.1811 113.267 14.0968 112.978 14.0996C112.673 14.1121 112.375 14.201 112.113 14.3583C111.851 14.5155 111.633 14.736 111.478 14.9996C111.183 15.4996 111.028 16.0693 111.028 16.6496C111.028 17.2299 111.183 17.7996 111.478 18.2996C111.603 18.5871 111.815 18.8284 112.084 18.9897C112.353 19.1511 112.665 19.2244 112.978 19.1996C113.267 19.2024 113.551 19.1181 113.792 18.9576C114.032 18.797 114.219 18.5678 114.328 18.2996C114.634 17.8044 114.79 17.2314 114.778 16.6496Z" fill="white"/>
<path d="M123.928 20.0995H122.578L122.428 19.3495C122.174 19.6546 121.851 19.8951 121.486 20.0515C121.121 20.2079 120.724 20.2758 120.328 20.2495C120.027 20.2649 119.726 20.2197 119.442 20.1166C119.159 20.0136 118.899 19.8548 118.678 19.6495C118.328 19.2237 118.118 18.6996 118.078 18.1495C118.046 17.7578 118.128 17.3652 118.315 17.0192C118.501 16.6731 118.783 16.3885 119.128 16.1995C120.033 15.6713 121.089 15.4602 122.128 15.5995V15.4495C122.128 14.5495 121.678 14.0995 120.628 14.0995C119.997 14.0684 119.37 14.225 118.828 14.5495L118.678 13.4995C119.397 13.0565 120.235 12.847 121.078 12.8995C122.878 12.8995 123.778 13.7995 123.778 15.7495V18.2995C123.881 18.8939 123.931 19.4963 123.928 20.0995ZM122.278 17.6995V16.6495C120.478 16.6495 119.728 17.0995 119.728 17.9995C119.759 18.3183 119.862 18.6259 120.028 18.8995C120.233 19.0873 120.5 19.1939 120.778 19.1995C121.097 19.1684 121.404 19.0659 121.678 18.8995C121.834 18.7978 121.967 18.6656 122.07 18.5109C122.173 18.3562 122.244 18.1823 122.278 17.9995V17.6995Z" fill="white"/>
<path d="M132.928 20.0994H131.578V18.8994C131.382 19.3247 131.063 19.681 130.662 19.9219C130.26 20.1627 129.795 20.2769 129.328 20.2494C128.918 20.2658 128.51 20.1781 128.143 19.9945C127.776 19.8109 127.461 19.5374 127.228 19.1994C126.624 18.4892 126.304 17.5812 126.328 16.6494C126.28 15.6226 126.599 14.6123 127.228 13.7994C127.514 13.4829 127.86 13.2269 128.247 13.0465C128.633 12.8662 129.052 12.7652 129.478 12.7494C129.854 12.7059 130.236 12.7669 130.579 12.9256C130.923 13.0844 131.217 13.3348 131.428 13.6494V9.89941H132.928V18.2994C132.853 18.8971 132.853 19.5017 132.928 20.0994ZM131.278 17.0994V15.4494C131.244 15.2667 131.173 15.0927 131.07 14.938C130.967 14.7834 130.834 14.6512 130.678 14.5494C130.546 14.4028 130.384 14.2867 130.203 14.209C130.021 14.1313 129.825 14.0939 129.628 14.0994C129.358 14.098 129.091 14.1663 128.855 14.2976C128.618 14.429 128.42 14.619 128.278 14.8494C127.954 15.3918 127.797 16.0181 127.828 16.6494C127.795 17.2337 127.953 17.8129 128.278 18.2994C128.42 18.5298 128.618 18.7198 128.855 18.8512C129.091 18.9825 129.358 19.0508 129.628 19.0494C129.863 19.0612 130.097 19.0122 130.307 18.9071C130.517 18.802 130.697 18.6443 130.828 18.4494C130.989 18.2657 131.112 18.0517 131.189 17.8198C131.267 17.588 131.297 17.3431 131.278 17.0994Z" fill="white"/>
<path d="M146.278 16.4996C146.302 17.4771 145.984 18.4322 145.378 19.1996C145.063 19.5601 144.669 19.8426 144.227 20.0248C143.784 20.207 143.305 20.284 142.828 20.2496C142.352 20.2695 141.878 20.186 141.438 20.0047C140.997 19.8234 140.602 19.5487 140.278 19.1996C139.674 18.4894 139.354 17.5814 139.378 16.6496C139.354 15.6721 139.672 14.7169 140.278 13.9496C140.593 13.5891 140.987 13.3066 141.429 13.1243C141.872 12.9421 142.351 12.8652 142.828 12.8996C143.304 12.8797 143.778 12.9632 144.218 13.1445C144.659 13.3258 145.054 13.6005 145.378 13.9496C145.982 14.6598 146.302 15.5678 146.278 16.4996ZM144.778 16.6496C144.79 16.0677 144.634 15.4948 144.328 14.9996C144.219 14.7314 144.032 14.5021 143.792 14.3416C143.551 14.1811 143.267 14.0968 142.978 14.0996C142.673 14.1121 142.375 14.201 142.113 14.3583C141.851 14.5155 141.633 14.736 141.478 14.9996C141.183 15.4996 141.028 16.0693 141.028 16.6496C141.028 17.2299 141.183 17.7996 141.478 18.2996C141.603 18.5871 141.815 18.8284 142.084 18.9897C142.353 19.1511 142.665 19.2244 142.978 19.1996C143.267 19.2024 143.551 19.1181 143.792 18.9576C144.032 18.797 144.219 18.5678 144.328 18.2996C144.634 17.8044 144.79 17.2314 144.778 16.6496Z" fill="white"/>
<path d="M154.828 20.1H153.328V16.05C153.328 14.85 152.878 14.25 151.828 14.25C151.608 14.235 151.386 14.2674 151.179 14.345C150.972 14.4227 150.784 14.5437 150.628 14.7C150.472 14.8563 150.351 15.0443 150.273 15.2513C150.196 15.4582 150.163 15.6794 150.178 15.9V20.1H148.678V13.05H150.028V14.1C150.232 13.7646 150.485 13.4613 150.778 13.2C151.218 12.8954 151.743 12.7379 152.278 12.75C152.579 12.7346 152.88 12.7798 153.164 12.8829C153.447 12.9859 153.707 13.1448 153.928 13.35C154.225 13.6685 154.446 14.0494 154.576 14.4648C154.706 14.8802 154.74 15.3193 154.678 15.75V20.1H154.828Z" fill="white"/>
<path d="M165.328 14.2494H163.528V17.6994C163.528 18.5994 163.828 19.0494 164.428 19.0494H165.178V20.2494C164.793 20.3825 164.384 20.4336 163.978 20.3994C163.699 20.414 163.421 20.3679 163.162 20.2643C162.903 20.1607 162.67 20.0021 162.478 19.7994C162.136 19.2092 161.979 18.5298 162.028 17.8494V14.2494H160.978V13.0494H162.028V11.8494L163.528 11.3994V13.1994H165.328V14.2494Z" fill="white"/>
<path d="M173.728 20.0994H172.228V16.0494C172.228 14.8494 171.778 14.0994 170.878 14.0994C170.545 14.074 170.214 14.1648 169.94 14.3562C169.667 14.5477 169.468 14.828 169.378 15.1494V19.9494H167.878V9.89941H169.378V14.0994C169.59 13.731 169.896 13.4256 170.265 13.2147C170.634 13.0038 171.053 12.895 171.478 12.8994C171.779 12.8841 172.08 12.9292 172.364 13.0323C172.647 13.1354 172.907 13.2942 173.128 13.4994C173.414 13.8248 173.628 14.2065 173.757 14.6199C173.887 15.0333 173.928 15.4692 173.878 15.8994C173.753 17.2957 173.703 18.6977 173.728 20.0994Z" fill="white"/>
<path d="M182.278 16.3494V17.0994H177.478C177.475 17.4124 177.541 17.7223 177.671 18.0073C177.8 18.2923 177.99 18.5456 178.228 18.7494C178.668 19.054 179.193 19.2115 179.728 19.1994C180.388 19.1845 181.044 19.0837 181.678 18.8994L181.978 19.9494C181.22 20.2706 180.401 20.4241 179.578 20.3994C179.115 20.4244 178.651 20.3578 178.213 20.2034C177.776 20.0489 177.373 19.8097 177.028 19.4994C176.718 19.1544 176.478 18.7516 176.324 18.314C176.17 17.8764 176.103 17.4127 176.128 16.9494C176.104 15.9719 176.422 15.0167 177.028 14.2494C177.314 13.884 177.678 13.5868 178.093 13.3793C178.508 13.1717 178.964 13.0591 179.428 13.0494C179.877 13.0255 180.324 13.1247 180.72 13.3362C181.117 13.5477 181.448 13.8634 181.678 14.2494C182.141 14.846 182.356 15.5982 182.278 16.3494ZM180.778 15.8994C180.768 15.4821 180.665 15.0723 180.478 14.6994C180.338 14.5131 180.157 14.3619 179.949 14.2577C179.741 14.1536 179.511 14.0994 179.278 14.0994C179.045 14.0994 178.815 14.1536 178.607 14.2577C178.399 14.3619 178.218 14.5131 178.078 14.6994C177.777 15.0255 177.616 15.456 177.628 15.8994H180.778Z" fill="white"/>
</svg>
