<svg width="34" height="40" viewBox="0 0 34 40" fill="none" xmlns="http://www.w3.org/2000/svg">
<path d="M33.0064 31.1443C32.4252 32.5046 31.7063 33.8018 30.8611 35.0158C29.7268 36.6186 28.8144 37.7529 28.0993 38.3694C26.9896 39.3804 25.806 39.8983 24.5484 39.9476C23.636 39.9476 22.551 39.6763 21.2688 39.1585C20.1541 38.6739 18.9574 38.4061 17.7425 38.3694C16.4948 38.3976 15.2642 38.6655 14.1176 39.1585C12.8107 39.6763 11.775 39.9476 10.986 39.9969C9.77766 40.0462 8.56937 39.5037 7.36108 38.3941C6.59665 37.7283 5.63495 36.5693 4.47597 34.9418C3.17068 33.0682 2.14095 31.0171 1.41825 28.851C0.587728 26.5234 0.15427 24.0726 0.135986 21.6013C0.135986 18.9135 0.703144 16.6202 1.86212 14.6721C2.73605 13.149 3.9945 11.8821 5.51165 10.9979C6.99859 10.1167 8.69051 9.6406 10.4188 9.61701C11.3805 9.61701 12.6381 9.91292 14.2163 10.5047C15.7945 11.0966 16.7808 11.3925 17.2247 11.3925C17.5452 11.3925 18.6796 11.0472 20.5783 10.3568C22.3784 9.71565 23.8826 9.4444 25.1156 9.54304C28.4692 9.81429 31.0091 11.1459 32.6859 13.5378C29.6775 15.3626 28.1979 17.9024 28.2226 21.1821C28.2122 22.3767 28.4527 23.5603 28.9284 24.6562C29.4041 25.7521 30.1046 26.7359 30.9844 27.5441C31.7882 28.313 32.7237 28.9311 33.7462 29.3689C33.475 29.936 33.253 30.5525 33.0064 31.1443ZM25.2882 0.789088C25.2882 2.78647 24.5484 4.66055 23.0935 6.38668C21.3427 8.43338 19.2221 9.61701 16.9041 9.4444C16.8746 9.1906 16.8581 8.93546 16.8548 8.67997C16.8548 6.75657 17.6932 4.70987 19.1727 3.03306C19.9641 2.15133 20.9187 1.43118 21.9839 0.912383C22.9856 0.387147 24.0857 0.0764144 25.2142 0C25.2743 0.258495 25.2992 0.523927 25.2882 0.789088Z" fill="#343A45"/>
</svg>
