<svg width="56" height="40" viewBox="0 0 56 40" fill="none" xmlns="http://www.w3.org/2000/svg">
<path d="M27.9063 24.3864C28.0287 24.1743 28.3349 24.1743 28.4574 24.3864L36.3303 38.0227C36.4528 38.2349 36.2997 38.5 36.0548 38.5H20.3089C20.0639 38.5 19.9108 38.2349 20.0333 38.0227L27.9063 24.3864Z" fill="white" stroke="#4F6F87" stroke-width="3"/>
<path d="M6.95454 5C6.95454 3.067 8.52155 1.5 10.4545 1.5H45.9091C47.8421 1.5 49.4091 3.067 49.4091 5V27.7273C49.4091 29.6603 47.8421 31.2273 45.9091 31.2273H10.4545C8.52154 31.2273 6.95454 29.6603 6.95454 27.7273V5Z" fill="white" stroke="#4F6F87" stroke-width="3"/>
<path d="M23.3182 17.7273C23.3182 15.7943 24.8852 14.2273 26.8182 14.2273H50.4545C52.3875 14.2273 53.9545 15.7943 53.9545 17.7273V30.4546C53.9545 32.3876 52.3875 33.9546 50.4545 33.9546H26.8182C24.8852 33.9546 23.3182 32.3876 23.3182 30.4546V17.7273Z" fill="white" stroke="#0196E2" stroke-width="3"/>
<ellipse cx="34.5454" cy="30.9091" rx="0.90909" ry="0.909091" fill="#0196E2"/>
<ellipse cx="38.1818" cy="30.9091" rx="0.909092" ry="0.909091" fill="#0196E2"/>
<ellipse cx="41.8182" cy="30.9091" rx="0.90909" ry="0.909091" fill="#0196E2"/>
<path d="M11.3636 6.04547C13.2966 6.04547 14.8636 7.61247 14.8636 9.54547L14.8636 22.2727C14.8636 24.2057 13.2966 25.7727 11.3636 25.7727L4.99999 25.7727C3.067 25.7727 1.5 24.2057 1.5 22.2727L1.5 9.54547C1.5 7.61247 3.067 6.04547 5 6.04547L11.3636 6.04547Z" fill="white" stroke="#34B2B4" stroke-width="3"/>
<circle cx="8.18181" cy="22.7273" r="0.909091" fill="#34B2B4"/>
<rect x="5.45454" y="8.18182" width="5.45455" height="1.81818" rx="0.909091" fill="#34B2B4"/>
</svg>
