<svg width="61" height="51" viewBox="0 0 61 51" fill="none" xmlns="http://www.w3.org/2000/svg">
<path fill-rule="evenodd" clip-rule="evenodd" d="M22.3751 0C5.5304 0 0 9.45654 0 25.499C0 41.544 3.87488 51 30.5001 51C57.125 51 60.9999 50.5435 60.9999 25.499C60.9999 0.456541 39.2195 0 22.3751 0Z" fill="#3A559F"/>
<path d="M32.0625 38.6323H27.125V26.5073H23V21.7573H27.125V18.2573C27.0709 17.4116 27.1929 16.5638 27.4834 15.7677C27.7739 14.9716 28.2265 14.2445 28.8125 13.6323C29.418 13.0776 30.1275 12.6484 30.8999 12.3695C31.6723 12.0906 32.4923 11.9675 33.3125 12.0073C34.5444 11.9928 35.776 12.0554 37 12.1948V16.3823L34.4375 16.4448C34.1031 16.405 33.7641 16.4344 33.4415 16.5312C33.119 16.628 32.8198 16.79 32.5625 17.0073C32.1943 17.4894 32.0164 18.09 32.0625 18.6948V21.7573H36.8125L36.1875 26.5073H32.0625V38.6323Z" fill="white"/>
</svg>
