<svg width="205" height="60" viewBox="0 0 205 60" fill="none" xmlns="http://www.w3.org/2000/svg">
<path d="M196.92 1.21091C198.6 1.22096 200.209 1.89292 201.397 3.08112C202.585 4.26931 203.257 5.87795 203.267 7.55828V52.4432C203.257 54.1236 202.585 55.7322 201.397 56.9204C200.209 58.1086 198.6 58.7806 196.92 58.7906H7.55676C5.88448 58.7551 4.29058 58.0749 3.10784 56.8922C1.9251 55.7094 1.24495 54.1155 1.20939 52.4432V7.55828C1.21944 5.87795 1.8914 4.26931 3.07959 3.08112C4.26779 1.89293 5.87643 1.22096 7.55676 1.21091H196.92ZM196.92 0.00188933H7.55676C6.56171 -0.0079202 5.5747 0.180833 4.65348 0.557104C3.73227 0.933374 2.89536 1.4896 2.19172 2.19324C1.48808 2.89688 0.931848 3.7338 0.555578 4.65501C0.179307 5.57622 -0.0094459 6.56323 0.000363629 7.55828V52.4432C0.0318341 54.4375 0.838055 56.3413 2.24839 57.7516C3.65872 59.1619 5.56249 59.9682 7.55676 59.9996H196.92C197.915 60.0094 198.902 59.8207 199.823 59.4444C200.744 59.0681 201.581 58.5119 202.285 57.8083C202.989 57.1046 203.545 56.2677 203.921 55.3465C204.297 54.4253 204.486 53.4383 204.476 52.4432V7.55828C204.499 6.55978 204.319 5.56706 203.947 4.64007C203.575 3.71308 203.02 2.87105 202.313 2.16483C201.607 1.4586 200.765 0.902832 199.838 0.531081C198.911 0.15933 197.918 -0.0206908 196.92 0.00188933Z" fill="#A6A6A6"/>
<path d="M196.92 59.848H7.55675C6.56171 59.8578 5.5747 59.669 4.65348 59.2927C3.73227 58.9165 2.89535 58.3602 2.19172 57.6566C1.48808 56.953 0.931848 56.1161 0.555578 55.1948C0.179307 54.2736 -0.0094459 53.2866 0.000363629 52.2916V7.55773C0.0318341 5.56347 0.838055 3.6597 2.24839 2.24937C3.65872 0.839032 5.56249 0.0328107 7.55675 0.00134019H196.92C197.915 -0.00846934 198.902 0.180284 199.823 0.556554C200.744 0.932825 201.581 1.48905 202.285 2.19269C202.989 2.89633 203.545 3.73325 203.921 4.65446C204.297 5.57567 204.486 6.56269 204.476 7.55773V52.4427C204.483 53.4299 204.291 54.4083 203.912 55.3198C203.533 56.2312 202.974 57.057 202.269 57.748C201.564 58.4389 200.727 58.981 199.808 59.3417C198.889 59.7025 197.907 59.8747 196.92 59.848Z" fill="black"/>
<path d="M71.9372 15.4171C71.9355 16.5151 71.5627 17.5803 70.8793 18.4396C70.224 19.0997 69.3871 19.5498 68.4751 19.7326C67.5631 19.9154 66.6173 19.8226 65.7583 19.466C64.8992 19.1094 64.1658 18.5052 63.6513 17.7303C63.1369 16.9554 62.8647 16.0449 62.8695 15.1148C62.8641 14.4981 62.9816 13.8864 63.2151 13.3156C63.4487 12.7448 63.7935 12.2261 64.2297 11.79C64.6658 11.3539 65.1844 11.009 65.7552 10.7755C66.3261 10.542 66.9377 10.4245 67.5545 10.4299C68.1862 10.4365 68.8075 10.5919 69.368 10.8832C69.8214 10.8832 70.2748 11.3366 70.7281 11.6389L69.9725 12.3945C69.6652 12.0195 69.2696 11.7265 68.8212 11.5419C68.3728 11.3572 67.8857 11.2867 67.4033 11.3366C66.9464 11.3175 66.4911 11.4028 66.072 11.5861C65.653 11.7694 65.2813 12.0459 64.9853 12.3945C64.6221 12.7116 64.3374 13.1087 64.1538 13.5546C63.9703 14.0004 63.8927 14.4828 63.9274 14.9637C63.8927 15.4446 63.9703 15.927 64.1538 16.3728C64.3374 16.8187 64.6221 17.2158 64.9853 17.5329C65.6435 18.1564 66.4987 18.5306 67.4033 18.5908C67.8826 18.6108 68.3606 18.5267 68.8041 18.344C69.2477 18.1614 69.6463 17.8846 69.9725 17.5329C70.2143 17.2972 70.4059 17.015 70.5357 16.7034C70.6656 16.3917 70.731 16.057 70.7281 15.7193H67.4033V14.6614H71.786C71.786 14.9637 71.9372 15.1148 71.9372 15.4171Z" fill="white" stroke="white" stroke-width="0.16" stroke-miterlimit="10"/>
<path d="M78.889 11.638H74.8086V14.5094H78.5868V15.5673H74.8086V18.4387H78.889V19.4966H73.5995V10.5801H78.889V11.638Z" fill="white" stroke="white" stroke-width="0.16" stroke-miterlimit="10"/>
<path d="M83.7252 19.4966H82.5162V11.638H79.947V10.5801H86.1433V11.638H83.5741V19.4966H83.7252Z" fill="white" stroke="white" stroke-width="0.16" stroke-miterlimit="10"/>
<path d="M90.8282 19.4966V10.5801H92.0372V19.4966H90.8282Z" fill="white" stroke="white" stroke-width="0.16" stroke-miterlimit="10"/>
<path d="M97.1756 19.4966H95.9666V11.638H93.3974V10.5801H99.5937V11.638H97.0245C97.1756 11.638 97.1756 19.4966 97.1756 19.4966Z" fill="white" stroke="white" stroke-width="0.16" stroke-miterlimit="10"/>
<path d="M111.533 18.2881C110.877 18.9482 110.041 19.3983 109.129 19.5811C108.217 19.7639 107.271 19.6711 106.412 19.3145C105.553 18.9579 104.819 18.3537 104.305 17.5788C103.79 16.8039 103.518 15.8934 103.523 14.9633C103.523 13.7208 104.017 12.5291 104.895 11.6505C105.774 10.7719 106.965 10.2783 108.208 10.2783C109.45 10.2783 110.642 10.7719 111.521 11.6505C112.399 12.5291 112.893 13.7208 112.893 14.9633C112.91 15.5816 112.798 16.1967 112.564 16.7693C112.33 17.3418 111.978 17.8591 111.533 18.2881ZM105.79 17.5325C106.431 18.1813 107.296 18.5599 108.208 18.5904C108.665 18.6095 109.12 18.5242 109.539 18.3409C109.958 18.1576 110.33 17.8811 110.626 17.5325C111.304 16.8493 111.684 15.9257 111.684 14.9633C111.719 14.4824 111.641 14 111.457 13.5541C111.274 13.1083 110.989 12.7112 110.626 12.3941C109.985 11.7452 109.12 11.3666 108.208 11.3362C107.751 11.317 107.296 11.4024 106.877 11.5857C106.458 11.769 106.086 12.0455 105.79 12.3941C105.112 13.0773 104.732 14.0008 104.732 14.9633C104.697 15.4442 104.775 15.9266 104.958 16.3724C105.142 16.8183 105.427 17.2154 105.79 17.5325Z" fill="white" stroke="white" stroke-width="0.16" stroke-miterlimit="10"/>
<path d="M114.555 19.4966V10.5801H115.915L120.298 17.532V10.5801H121.507V19.4966H120.298L115.613 12.2425V19.4966H114.555Z" fill="white" stroke="white" stroke-width="0.16" stroke-miterlimit="10"/>
<path d="M103.221 32.646C101.972 32.6754 100.759 33.0727 99.7348 33.788C98.7105 34.5034 97.92 35.505 97.4623 36.6676C97.0047 37.8301 96.9001 39.1018 97.1619 40.3235C97.4236 41.5451 98.04 42.6624 98.9337 43.5354C99.8275 44.4084 100.959 44.9983 102.186 45.2312C103.414 45.4641 104.683 45.3297 105.834 44.8448C106.986 44.3599 107.969 43.5461 108.66 42.5052C109.351 41.4644 109.719 40.2428 109.719 38.9934C109.735 38.1425 109.577 37.2973 109.255 36.5098C108.932 35.7224 108.451 35.0094 107.842 34.4147C107.233 33.82 106.509 33.3563 105.715 33.0522C104.92 32.748 104.071 32.6098 103.221 32.646ZM103.221 42.7716C102.233 42.6924 101.311 42.2442 100.639 41.516C99.9669 40.7878 99.5936 39.8332 99.5936 38.8423C99.5936 37.8513 99.9669 36.8967 100.639 36.1685C101.311 35.4404 102.233 34.9921 103.221 34.9129C103.722 34.9162 104.217 35.0225 104.676 35.225C105.135 35.4276 105.547 35.7223 105.887 36.0907C106.227 36.4591 106.488 36.8934 106.653 37.3667C106.818 37.84 106.885 38.3423 106.848 38.8423C106.885 39.3423 106.818 39.8445 106.653 40.3178C106.488 40.7911 106.227 41.2255 105.887 41.5939C105.547 41.9623 105.135 42.2569 104.676 42.4595C104.217 42.6621 103.722 42.7683 103.221 42.7716ZM89.1659 32.646C87.9168 32.6754 86.7042 33.0727 85.6799 33.788C84.6556 34.5034 83.8651 35.505 83.4074 36.6676C82.9498 37.8301 82.8453 39.1018 83.107 40.3235C83.3687 41.5451 83.9851 42.6624 84.8788 43.5354C85.7726 44.4084 86.9041 44.9983 88.1316 45.2312C89.359 45.4641 90.6279 45.3297 91.7794 44.8448C92.9308 44.3599 93.9136 43.5461 94.6047 42.5052C95.2957 41.4644 95.6643 40.2428 95.6643 38.9934C95.6806 38.1425 95.5224 37.2973 95.1996 36.5098C94.8769 35.7224 94.3962 35.0094 93.7874 34.4147C93.1786 33.82 92.4545 33.3563 91.6596 33.0522C90.8648 32.748 90.0161 32.6098 89.1659 32.646ZM89.1659 42.7716C88.1781 42.6924 87.2563 42.2442 86.5841 41.516C85.912 40.7878 85.5387 39.8332 85.5387 38.8423C85.5387 37.8513 85.912 36.8967 86.5841 36.1685C87.2563 35.4404 88.1781 34.9921 89.1659 34.9129C89.6672 34.9162 90.1625 35.0225 90.6211 35.225C91.0797 35.4276 91.4918 35.7223 91.8319 36.0907C92.172 36.4591 92.4327 36.8934 92.598 37.3667C92.7634 37.84 92.8297 38.3423 92.7929 38.8423C92.8297 39.3423 92.7634 39.8445 92.598 40.3178C92.4327 40.7911 92.172 41.2255 91.8319 41.5939C91.4918 41.9623 91.0797 42.2569 90.6211 42.4595C90.1625 42.6621 89.6672 42.7683 89.1659 42.7716ZM72.3907 34.6107V37.331H78.8892C78.7974 38.5839 78.2615 39.7629 77.3779 40.6558C76.727 41.3094 75.9479 41.8214 75.0897 42.1595C74.2314 42.4976 73.3125 42.6546 72.3907 42.6205C71.4424 42.6299 70.5021 42.4476 69.626 42.0845C68.75 41.7213 67.9565 41.1849 67.293 40.5073C66.6296 39.8297 66.1099 39.0251 65.7653 38.1416C65.4207 37.2582 65.2582 36.3142 65.2877 35.3663C65.2711 34.4218 65.4423 33.4835 65.7915 32.6057C66.1407 31.728 66.6609 30.9285 67.3218 30.2535C67.9827 29.5785 68.7711 29.0417 69.6413 28.6741C70.5115 28.3065 71.446 28.1155 72.3907 28.1122C74.2385 28.1298 76.0146 28.8294 77.3779 30.0768L79.3425 28.1122C77.5192 26.35 75.0774 25.3733 72.5418 25.3919C71.2317 25.3711 69.9303 25.6088 68.7121 26.0913C67.494 26.5739 66.3829 27.2919 65.4424 28.2043C64.502 29.1167 63.7507 30.2055 63.2314 31.4085C62.7121 32.6115 62.4351 33.905 62.4162 35.2152C62.4797 37.853 63.5763 40.3603 65.4701 42.1976C67.3639 44.0348 69.9033 45.055 72.5418 45.0385C73.7672 45.118 74.9957 44.9404 76.1483 44.5169C77.301 44.0934 78.3523 43.4335 79.2347 42.5795C80.1171 41.7256 80.8111 40.6965 81.2722 39.5583C81.7332 38.4202 81.9511 37.1982 81.9117 35.9708C81.9437 35.4123 81.8928 34.8521 81.7606 34.3084C81.6095 34.6107 72.3907 34.6107 72.3907 34.6107ZM141.003 36.5753C140.592 35.41 139.838 34.3965 138.839 33.6681C137.841 32.9398 136.646 32.5307 135.411 32.4949C134.591 32.4936 133.779 32.6593 133.025 32.9817C132.271 33.3042 131.591 33.7767 131.025 34.3705C130.46 34.9643 130.021 35.667 129.736 36.4357C129.451 37.2045 129.325 38.0233 129.366 38.8423C129.345 39.6814 129.496 40.5159 129.807 41.2953C130.119 42.0746 130.586 42.7826 131.179 43.3761C131.773 43.9696 132.481 44.4364 133.26 44.7482C134.04 45.0599 134.874 45.2101 135.713 45.1896C136.786 45.1965 137.845 44.9379 138.794 44.437C139.743 43.936 140.554 43.2081 141.154 42.3182L138.887 40.8069C138.561 41.3592 138.097 41.817 137.541 42.1351C136.984 42.4532 136.354 42.6205 135.713 42.6205C135.051 42.6355 134.398 42.4578 133.835 42.109C133.271 41.7603 132.821 41.2554 132.54 40.6558L141.154 37.1799C141.305 37.331 141.003 36.5753 141.003 36.5753ZM132.237 38.6911C132.206 37.7563 132.533 36.8448 133.15 36.1427C133.768 35.4405 134.631 35.0007 135.562 34.9129C136.051 34.8967 136.535 35.0149 136.961 35.2548C137.388 35.4946 137.74 35.8468 137.98 36.2731C137.98 36.4242 132.237 38.6911 132.237 38.6911ZM125.285 44.8874H128.157V26.2986H125.285V44.8874ZM120.6 34.0062C119.667 33.1115 118.417 32.6225 117.125 32.646C115.477 32.7132 113.917 33.4081 112.765 34.5882C111.613 35.7684 110.956 37.3444 110.928 38.9934C110.93 40.6503 111.579 42.2411 112.736 43.4268C113.893 44.6124 115.468 45.2992 117.125 45.3408C117.76 45.3793 118.395 45.2618 118.975 44.9984C119.554 44.7349 120.061 44.3336 120.449 43.8295H120.6V44.7362C120.684 45.57 120.46 46.4055 119.971 47.0857C119.481 47.7659 118.76 48.2438 117.943 48.4295C117.126 48.6152 116.269 48.4959 115.534 48.094C114.799 47.6922 114.236 47.0355 113.951 46.2475L111.533 47.3054C112.014 48.4287 112.815 49.3858 113.836 50.0575C114.857 50.7292 116.053 51.0861 117.276 51.0836C120.6 51.0836 123.472 49.1189 123.472 44.434V32.9483H120.6V34.0062ZM117.276 42.7716C116.294 42.7495 115.362 42.3395 114.682 41.6314C114.002 40.9233 113.631 39.9748 113.649 38.9934C113.625 38.4963 113.7 37.9994 113.87 37.5317C114.04 37.0639 114.302 36.6347 114.639 36.269C114.977 35.9033 115.384 35.6084 115.836 35.4016C116.289 35.1947 116.778 35.08 117.276 35.0641C117.765 35.084 118.246 35.2027 118.688 35.413C119.131 35.6233 119.526 35.9209 119.851 36.2879C120.176 36.6549 120.423 37.0838 120.578 37.5487C120.732 38.0136 120.792 38.505 120.752 38.9934C120.79 39.4738 120.728 39.9569 120.571 40.4124C120.414 40.868 120.164 41.2862 119.838 41.6408C119.512 41.9955 119.116 42.279 118.675 42.4735C118.234 42.6681 117.758 42.7696 117.276 42.7716ZM154.302 26.2986H147.501V44.8874H150.373V37.7844H154.302C155.087 37.819 155.871 37.6975 156.609 37.4268C157.347 37.1561 158.023 36.7417 158.6 36.2075C159.176 35.6733 159.641 35.0299 159.967 34.3148C160.293 33.5997 160.473 32.827 160.498 32.0415C160.474 31.2557 160.295 30.4824 159.969 29.7667C159.644 29.051 159.179 28.4072 158.602 27.8728C158.026 27.3384 157.349 26.9239 156.61 26.6537C155.872 26.3835 155.087 26.2628 154.302 26.2986ZM154.302 35.2152H150.221V28.8678H154.302C154.731 28.8479 155.16 28.9152 155.562 29.0656C155.965 29.2161 156.333 29.4467 156.643 29.7434C156.954 30.04 157.201 30.3966 157.37 30.7917C157.54 31.1867 157.627 31.6119 157.627 32.0415C157.627 32.4712 157.54 32.8963 157.37 33.2914C157.201 33.6864 156.954 34.043 156.643 34.3397C156.333 34.6363 155.965 34.8669 155.562 35.0174C155.16 35.1679 154.731 35.2352 154.302 35.2152ZM171.833 32.4949C170.809 32.413 169.784 32.6436 168.893 33.1563C168.003 33.6689 167.289 34.4395 166.846 35.3663L169.415 36.4242C169.666 35.9735 170.042 35.6052 170.498 35.3638C170.954 35.1224 171.47 35.0183 171.984 35.0641C172.705 34.9863 173.427 35.197 173.994 35.65C174.56 36.103 174.924 36.7616 175.006 37.4821V37.6332C174.08 37.127 173.039 36.8668 171.984 36.8776C169.264 36.8776 166.543 38.3889 166.543 41.1092C166.572 41.6886 166.717 42.2563 166.97 42.7782C167.224 43.3001 167.58 43.7655 168.017 44.1466C168.455 44.5276 168.965 44.8164 169.516 44.9956C170.068 45.1748 170.65 45.2408 171.228 45.1896C171.939 45.2325 172.648 45.0875 173.285 44.7691C173.922 44.4508 174.463 43.9703 174.855 43.3761H175.006V44.8874H177.727V37.6332C177.684 36.9063 177.497 36.1952 177.176 35.5415C176.856 34.8877 176.408 34.3046 175.859 33.8261C175.31 33.3476 174.671 32.9834 173.98 32.7548C173.289 32.5262 172.559 32.4379 171.833 32.4949ZM171.531 42.7716C170.624 42.7716 169.264 42.3182 169.264 41.2603C169.264 39.749 170.926 39.2956 172.286 39.2956C173.177 39.2986 174.056 39.5054 174.855 39.9002C174.708 40.6846 174.299 41.396 173.695 41.9177C173.091 42.4393 172.328 42.7404 171.531 42.7716ZM187.55 32.9483L184.376 41.1092H184.225L180.9 32.9483H177.878L182.865 44.2829L179.994 50.6302H183.016L190.724 32.9483H187.55ZM162.009 44.8874H164.881V26.2986H162.009V44.8874Z" fill="white"/>
<path d="M15.8689 11.3359C15.3515 11.9161 15.0805 12.675 15.1132 13.4517V46.5487C15.0805 47.3254 15.3515 48.0843 15.8689 48.6645L16.02 48.8156L34.7598 30.2269V29.7735L15.8689 11.3359Z" fill="url(#paint0_linear)"/>
<path d="M40.956 36.424L34.7598 30.2277V29.7744L40.956 23.5781L41.1071 23.7293L48.5124 27.9608C50.6282 29.1699 50.6282 31.1345 48.5124 32.3435L40.956 36.424Z" fill="url(#paint1_linear)"/>
<path d="M41.1071 36.2722L34.7598 29.9248L15.8688 48.6647C16.6244 49.4203 17.6823 49.4203 19.0425 48.8158L41.1071 36.2722Z" fill="url(#paint2_linear)"/>
<path d="M41.1071 23.5779L19.0425 11.1854C18.5818 10.8293 18.0094 10.6489 17.4278 10.6766C16.8462 10.7043 16.2935 10.9382 15.8688 11.3365L34.7598 29.9252L41.1071 23.5779Z" fill="url(#paint3_linear)"/>
<defs>
<linearGradient id="paint0_linear" x1="33.0591" y1="46.8742" x2="7.9338" y2="21.4522" gradientUnits="userSpaceOnUse">
<stop stop-color="#00A0FF"/>
<stop offset="0.0066" stop-color="#00A1FF"/>
<stop offset="0.2601" stop-color="#00BEFF"/>
<stop offset="0.5122" stop-color="#00D2FF"/>
<stop offset="0.7604" stop-color="#00DFFF"/>
<stop offset="1" stop-color="#00E3FF"/>
</linearGradient>
<linearGradient id="paint1_linear" x1="51.2992" y1="30.0011" x2="14.6432" y2="30.0011" gradientUnits="userSpaceOnUse">
<stop stop-color="#FFE000"/>
<stop offset="0.4087" stop-color="#FFBD00"/>
<stop offset="0.7754" stop-color="#FFA500"/>
<stop offset="1" stop-color="#FF9C00"/>
</linearGradient>
<linearGradient id="paint2_linear" x1="25.0232" y1="39.007" x2="-9.04875" y2="4.53275" gradientUnits="userSpaceOnUse">
<stop stop-color="#FF3A44"/>
<stop offset="1" stop-color="#C31162"/>
</linearGradient>
<linearGradient id="paint3_linear" x1="-1.5302" y1="47.1617" x2="13.6844" y2="31.7676" gradientUnits="userSpaceOnUse">
<stop stop-color="#32A071"/>
<stop offset="0.0685" stop-color="#2DA771"/>
<stop offset="0.4762" stop-color="#15CF74"/>
<stop offset="0.8009" stop-color="#06E775"/>
<stop offset="1" stop-color="#00F076"/>
</linearGradient>
</defs>
</svg>
