<svg width="171" height="144" viewBox="0 0 171 144" fill="none" xmlns="http://www.w3.org/2000/svg">
<path fill-rule="evenodd" clip-rule="evenodd" d="M85.5001 0C10.8629 0 0 1.2891 0 71.9997C0 142.71 61.0567 144 108.277 144C155.497 144 171 117.299 171 71.9997C171 26.7004 160.138 0 85.5001 0Z" fill="white"/>
<path fill-rule="evenodd" clip-rule="evenodd" d="M84.9999 136.998C152.217 136.998 162 135.835 162 71.998C162 8.16204 107.013 6.99854 64.4877 6.99854C21.9614 6.99854 7.99951 31.1036 7.99951 71.998C7.99951 112.893 17.7822 136.998 84.9999 136.998Z" fill="#3AC7F4"/>
<path d="M114.28 96.0201C130.12 91.4986 139.296 74.992 134.775 59.1515C130.253 43.311 113.747 34.1352 97.9062 38.6567C82.0658 43.1781 72.8899 59.6847 77.4114 75.5252C81.9329 91.3657 98.4395 100.542 114.28 96.0201Z" fill="#FBD157"/>
<path d="M125.475 73.2255C123.939 75.9885 121.874 78.4219 119.398 80.3868C116.921 82.3517 114.082 83.8096 111.042 84.6772C108.002 85.5449 104.822 85.8053 101.681 85.4437C98.5407 85.082 95.5022 84.1054 92.7393 82.5695" stroke="#FF0000" stroke-miterlimit="10" stroke-linecap="round"/>
<path d="M99.8635 76.5622C102.308 75.8644 103.724 73.317 103.026 70.8724C102.329 68.4279 99.7812 67.0118 97.3366 67.7096C94.8921 68.4074 93.476 70.9547 94.1738 73.3993C94.8715 75.8439 97.4189 77.2599 99.8635 76.5622Z" fill="white"/>
<path d="M100.049 73.6075C101.493 73.1953 102.33 71.6905 101.917 70.2463C101.505 68.8022 100 67.9657 98.5563 68.3779C97.1122 68.7901 96.2756 70.295 96.6878 71.7391C97.1 73.1832 98.6049 74.0197 100.049 73.6075Z" fill="#0071BC"/>
<path d="M97.692 74.1789C98.6107 73.9167 99.1428 72.9594 98.8806 72.0407C98.6184 71.122 97.6611 70.5899 96.7424 70.8521C95.8237 71.1143 95.2916 72.0716 95.5538 72.9903C95.816 73.909 96.7733 74.4412 97.692 74.1789Z" fill="white"/>
<path d="M116.253 71.8841C118.698 71.1863 120.114 68.6389 119.416 66.1944C118.718 63.7498 116.171 62.3337 113.726 63.0315C111.282 63.7293 109.866 66.2766 110.563 68.7212C111.261 71.1658 113.808 72.5818 116.253 71.8841Z" fill="white"/>
<path d="M116.439 68.9293C117.883 68.5171 118.719 67.0122 118.307 65.5681C117.895 64.124 116.39 63.2875 114.946 63.6997C113.502 64.1119 112.665 65.6167 113.077 67.0609C113.49 68.505 114.994 69.3415 116.439 68.9293Z" fill="#0071BC"/>
<path d="M114.082 69.5007C115 69.2385 115.532 68.2812 115.27 67.3625C115.008 66.4438 114.051 65.9117 113.132 66.1739C112.213 66.4361 111.681 67.3934 111.943 68.3121C112.206 69.2308 113.163 69.7629 114.082 69.5007Z" fill="white"/>
<path d="M76.8305 73.0172C78.4182 66.9399 82.6283 55.425 92.1667 52.7024C105.278 48.9598 104.575 52.7056 111.131 50.8343C115.615 49.5543 119.003 44.4422 120.698 41.3381C115.738 38.549 110.083 37.2378 104.402 37.5597C98.7205 37.8815 93.2501 39.8229 88.6369 43.1543C84.0238 46.4858 80.4606 51.0682 78.3685 56.3599C76.2763 61.6517 75.7427 67.4318 76.8305 73.0172H76.8305Z" fill="#F15A24"/>
<path d="M141.941 36.771L132.383 36.169L133.718 33.767L124.546 28.669L123.211 31.071L117.654 23.271L111.225 34.836L120.783 35.438L119.448 37.841L128.62 42.939L129.955 40.537L135.512 48.337L141.941 36.771Z" fill="#BADB6E"/>
<path d="M92.604 36.2581L82.847 27.3201L80.042 36.4771L78.016 34.6201L70.927 42.3581L72.954 44.2141L64.077 47.8091L73.834 56.7471L76.638 47.5901L78.665 49.4471L85.753 41.7091L83.727 39.8521L92.604 36.2581Z" fill="#BADB6E"/>
<path d="M64.0603 115.687C79.9008 111.166 89.0766 94.6592 84.5552 78.8187C80.0337 62.9783 63.5271 53.8024 47.6866 58.3239C31.8462 62.8454 22.6703 79.352 27.1918 95.1924C31.7132 111.033 48.2199 120.209 64.0603 115.687Z" fill="#FBB03B"/>
<path d="M74.8553 91.1316C73.3194 93.8946 71.2543 96.328 68.778 98.2929C66.3016 100.258 63.4625 101.716 60.4227 102.583C57.3829 103.451 54.202 103.711 51.0616 103.35C47.9211 102.988 44.8827 102.012 42.1197 100.476" stroke="#FF0000" stroke-miterlimit="10" stroke-linecap="round"/>
<path d="M49.1711 95.4781C51.6157 94.7803 53.0317 92.2329 52.334 89.7883C51.6362 87.3438 49.0888 85.9277 46.6442 86.6255C44.1997 87.3233 42.7836 89.8706 43.4814 92.3152C44.1792 94.7598 46.7265 96.1758 49.1711 95.4781Z" fill="white"/>
<path d="M49.3566 92.5234C50.8007 92.1112 51.6373 90.6064 51.2251 89.1622C50.8129 87.7181 49.308 86.8816 47.8639 87.2938C46.4198 87.706 45.5832 89.2109 45.9955 90.655C46.4077 92.0991 47.9125 92.9356 49.3566 92.5234Z" fill="black"/>
<path d="M46.9996 93.0948C47.9183 92.8326 48.4504 91.8753 48.1882 90.9566C47.926 90.0379 46.9687 89.5058 46.05 89.768C45.1313 90.0302 44.5992 90.9875 44.8614 91.9062C45.1236 92.8249 46.0809 93.3571 46.9996 93.0948Z" fill="white"/>
<path d="M65.5606 90.7998C68.0052 90.1021 69.4213 87.5547 68.7235 85.1101C68.0257 82.6656 65.4783 81.2495 63.0338 81.9473C60.5892 82.645 59.1731 85.1924 59.8709 87.637C60.5687 90.0816 63.1161 91.4976 65.5606 90.7998Z" fill="white"/>
<path d="M65.7462 87.8452C67.1903 87.433 68.0269 85.9281 67.6147 84.484C67.2024 83.0399 65.6976 82.2034 64.2535 82.6156C62.8094 83.0278 61.9728 84.5326 62.385 85.9767C62.7972 87.4209 64.3021 88.2574 65.7462 87.8452Z" fill="black"/>
<path d="M63.3892 88.4166C64.3078 88.1544 64.84 87.1971 64.5778 86.2784C64.3155 85.3597 63.3582 84.8276 62.4395 85.0898C61.5209 85.352 60.9887 86.3093 61.2509 87.228C61.5132 88.1467 62.4705 88.6788 63.3892 88.4166Z" fill="white"/>
<path d="M47.6867 58.3239C42.9618 59.6702 38.6432 62.1641 35.1155 65.5836C31.5878 69.003 28.9605 73.2418 27.4677 77.9224C29.0499 78.6567 30.7742 79.0342 32.5185 79.0283C34.2628 79.0223 35.9845 78.633 37.5617 77.888C39.1389 77.1429 40.533 76.0603 41.6454 74.7167C42.7579 73.3732 43.5614 71.8015 43.9991 70.113C46.3029 71.4825 48.874 72.3409 51.5384 72.6302C54.2029 72.9195 56.8983 72.633 59.4424 71.7899C61.9864 70.9469 64.3196 69.5671 66.284 67.7439C68.2484 65.9207 69.7981 63.6967 70.8282 61.2224C67.3657 59.2037 63.5306 57.9063 59.5536 57.4081C55.5767 56.91 51.5401 57.2215 47.6867 58.3239Z" fill="black"/>
<path d="M79.61 119.677L75.904 106.974L68.756 113.349L67.987 110.71L57.913 113.65L58.683 116.288L49.229 114.757L52.935 127.46L60.082 121.085L60.852 123.724L70.926 120.784L70.156 118.146L79.61 119.677Z" fill="#C1272D"/>
</svg>
