<svg width="171" height="144" viewBox="0 0 171 144" fill="none" xmlns="http://www.w3.org/2000/svg">
<path fill-rule="evenodd" clip-rule="evenodd" d="M85.5001 0C10.8629 0 0 1.2891 0 71.9997C0 142.71 61.0567 144 108.277 144C155.497 144 171 117.299 171 71.9997C171 26.7004 160.138 0 85.5001 0Z" fill="white"/>
<path fill-rule="evenodd" clip-rule="evenodd" d="M85.5002 137C152.717 137 162.5 135.837 162.5 71.9997C162.5 8.16374 107.513 7.00024 64.988 7.00024C22.4617 7.00024 8.49976 31.1053 8.49976 71.9997C8.49976 112.895 18.2825 137 85.5002 137Z" fill="#BADB6E"/>
<path d="M118.43 98.538C119.73 89.5872 107.831 81.6807 107.831 81.6807L100.139 99.7105C102.404 100.769 104.37 102.375 105.857 104.384C108.034 107.533 99.8038 124.672 99.8038 124.672L103.402 126.803C103.402 126.803 117.131 107.489 118.43 98.538Z" fill="#BC4523"/>
<path d="M53.9686 60.3513C46.743 65.7917 36.4004 87.1118 36.4004 87.1118L39.9982 89.2431C39.9982 89.2431 51.075 73.7902 54.882 74.187C57.359 74.5261 59.7122 75.4779 61.7284 76.9562L73.8452 61.5476C73.8452 61.5476 61.1941 54.9109 53.9686 60.3513Z" fill="#FA5B34"/>
<path d="M68.3891 84.2456C63.7225 86.7492 59.8498 90.5091 57.2094 95.0997C50.7037 106.082 60.0243 123.63 60.0243 123.63C60.0243 123.63 79.8927 123.373 86.3984 112.391C89.1557 107.87 90.5925 102.667 90.5461 97.3712L68.3891 84.2456Z" fill="#FFEEB6"/>
<path d="M72.1436 86.4697C69.0585 88.1249 66.4983 90.6105 64.7526 93.6453C60.4517 100.906 66.6136 112.507 66.6136 112.507C66.6136 112.507 79.7486 112.337 84.0495 105.077C85.8724 102.088 86.8222 98.648 86.7915 95.1471L72.1436 86.4697Z" fill="#FFC86D"/>
<path d="M91.3727 104.524C98.5507 99.0908 105.842 90.8307 111.876 80.6437C125.287 58.0056 116.626 28.0828 116.626 28.0828C116.626 28.0828 86.2216 34.8635 72.811 57.5016C66.7762 67.6886 63.035 78.0516 61.7188 86.9572L91.3727 104.524Z" fill="#FB5A35"/>
<path d="M100.774 100.087C105.888 94.5665 110.391 88.5102 114.204 82.0228C129.213 56.6867 119.52 23.1974 119.52 23.1974C119.52 23.1974 85.4921 30.7863 70.483 56.1225C66.6256 62.5836 63.4775 69.4426 61.0935 76.58L100.774 100.087Z" fill="#FBB03B"/>
<path d="M91.6147 104.667L61.4769 86.8138L59.471 90.2L89.6088 108.054L91.6147 104.667Z" fill="#4D4D4D"/>
<path d="M91.4893 74.8588L87.6798 72.6021L67.9964 105.829L71.8058 108.086L91.4893 74.8588Z" fill="#BC4523"/>
<path d="M109.589 66.9974C113.468 60.4496 111.305 51.9972 104.757 48.1184C98.2092 44.2395 89.7568 46.4031 85.878 52.9508C81.9991 59.4985 84.1627 67.951 90.7104 71.8298C97.2581 75.7087 105.711 73.5451 109.589 66.9974Z" fill="white"/>
<path d="M106.178 64.9766C108.941 60.3127 107.4 54.2921 102.736 51.5293C98.0725 48.7664 92.0519 50.3075 89.289 54.9714C86.5261 59.6353 88.0672 65.6559 92.7311 68.4188C97.395 71.1816 103.416 69.6405 106.178 64.9766Z" fill="#21ACED"/>
<path d="M122.386 41.3187C122.023 35.1994 121.063 29.1303 119.52 23.1975C113.575 24.695 107.791 26.769 102.25 29.39L122.386 41.3187Z" fill="#FA5B34"/>
</svg>
