<svg width="171" height="144" viewBox="0 0 171 144" fill="none" xmlns="http://www.w3.org/2000/svg">
<path fill-rule="evenodd" clip-rule="evenodd" d="M0 71.9997C0 117.299 15.5029 144 62.7228 144C109.943 144 171 142.71 171 71.9997C171 1.289 160.137 0 85.4997 0C10.8621 0 0 26.7005 0 71.9997Z" fill="white"/>
<path fill-rule="evenodd" clip-rule="evenodd" d="M162.5 71.9997C162.5 31.1053 148.538 7.00024 106.012 7.00024C63.4864 7.00024 8.49976 8.16374 8.49976 71.9997C8.49976 135.837 18.2829 137 85.4997 137C152.717 137 162.5 112.895 162.5 71.9997Z" fill="#FDA247"/>
<path d="M93.7043 27.5116L93.1836 27.4394C88.2952 26.7616 83.3212 27.0532 78.5456 28.2977C73.7699 29.5422 69.2862 31.7151 65.3503 34.6924C61.4144 37.6697 58.1035 41.393 55.6065 45.6499C53.1096 49.9068 51.4756 54.6138 50.7978 59.5021L46.0494 93.747L45.6362 96.7265L44.9241 101.862C44.7289 103.282 45.1052 104.72 45.9702 105.863C46.8352 107.005 48.1182 107.757 49.5373 107.954C50.9565 108.15 52.3957 107.776 53.5389 106.912C54.682 106.048 55.4355 104.766 55.6339 103.347L56.3461 98.2115L56.7483 95.3105C56.9452 93.8903 57.6983 92.6064 58.8418 91.7414C59.9853 90.8764 61.4256 90.5011 62.8458 90.698C64.266 90.895 65.5499 91.648 66.4149 92.7915C67.2799 93.935 67.6552 95.3753 67.4583 96.7955L67.056 99.6965L66.0418 107.011C65.9434 107.714 65.9847 108.43 66.1633 109.118C66.3419 109.806 66.6542 110.451 67.0825 111.018C67.5108 111.585 68.0466 112.062 68.6594 112.422C69.2721 112.781 69.9497 113.017 70.6534 113.114C71.3571 113.212 72.0732 113.17 72.7607 112.99C73.4481 112.811 74.0935 112.498 74.6598 112.069C75.2262 111.64 75.7025 111.104 76.0614 110.49C76.4203 109.877 76.6549 109.199 76.7517 108.496L77.7659 101.182L78.1681 98.2805C78.365 96.8603 79.1181 95.5765 80.2616 94.7115C81.4051 93.8465 82.8454 93.4712 84.2656 93.6681C85.6858 93.865 86.9697 94.6181 87.8347 95.7616C88.6997 96.9051 89.075 98.3454 88.878 99.7656L88.4758 102.667L87.4616 109.981C87.3632 110.684 87.4045 111.4 87.5831 112.088C87.7617 112.776 88.074 113.421 88.5023 113.988C88.9306 114.555 89.4664 115.032 90.0791 115.392C90.6919 115.751 91.3695 115.987 92.0732 116.084C92.7769 116.182 93.493 116.14 94.1804 115.96C94.8679 115.781 95.5133 115.468 96.0796 115.039C96.646 114.61 97.1223 114.074 97.4812 113.461C97.8401 112.847 98.0747 112.17 98.1715 111.466L99.1856 104.152L99.5879 101.251C99.7848 99.8304 100.538 98.5466 101.681 97.6816C102.825 96.8166 104.265 96.4412 105.685 96.6382C107.106 96.8351 108.389 97.5882 109.254 98.7317C110.119 99.8752 110.495 101.315 110.298 102.736L109.896 105.637L109.183 110.772C108.988 112.192 109.365 113.631 110.23 114.773C111.095 115.915 112.378 116.667 113.797 116.864C115.216 117.061 116.655 116.686 117.798 115.822C118.941 114.959 119.695 113.676 119.893 112.257L120.605 107.122L121.019 104.142L125.767 69.8973C127.136 60.0248 124.527 50.0129 118.514 42.0641C112.501 34.1152 103.577 28.8805 93.7043 27.5116Z" fill="#E35667"/>
<path d="M82.8979 53.0974C83.5082 48.6961 80.435 44.6334 76.0337 44.0231C71.6324 43.4128 67.5697 46.486 66.9594 50.8873C66.3491 55.2886 69.4223 59.3513 73.8236 59.9616C78.2249 60.5719 82.2876 57.4987 82.8979 53.0974Z" fill="white"/>
<path d="M81.5669 51.3134C81.9274 48.7133 80.1119 46.3133 77.5119 45.9528C74.9119 45.5923 72.5119 47.4077 72.1513 50.0078C71.7908 52.6078 73.6063 55.0078 76.2063 55.3684C78.8064 55.7289 81.2064 53.9134 81.5669 51.3134Z" fill="black"/>
<path d="M75.4444 52.0382C75.6738 50.3842 74.5189 48.8574 72.8648 48.628C71.2108 48.3987 69.6841 49.5536 69.4547 51.2076C69.2254 52.8617 70.3803 54.3884 72.0343 54.6178C73.6883 54.8471 75.2151 53.6922 75.4444 52.0382Z" fill="white"/>
<path d="M112.406 57.189C113.016 52.7878 109.943 48.7251 105.542 48.1148C101.141 47.5045 97.078 50.5777 96.4677 54.979C95.8574 59.3803 98.9306 63.443 103.332 64.0533C107.733 64.6635 111.796 61.5903 112.406 57.189Z" fill="white"/>
<path d="M111.075 55.405C111.436 52.805 109.62 50.405 107.02 50.0445C104.42 49.6839 102.02 51.4994 101.66 54.0995C101.299 56.6995 103.115 59.0995 105.715 59.46C108.315 59.8206 110.715 58.0051 111.075 55.405Z" fill="black"/>
<path d="M104.953 56.1299C105.182 54.4758 104.027 52.9491 102.373 52.7197C100.719 52.4904 99.1924 53.6453 98.963 55.2993C98.7337 56.9533 99.8886 58.4801 101.543 58.7095C103.197 58.9388 104.723 57.7839 104.953 56.1299Z" fill="white"/>
<path d="M71.6642 75.5673C81.9965 79.2453 92.9728 80.7673 103.916 80.0393" stroke="#C5354E" stroke-width="2" stroke-miterlimit="10" stroke-linecap="round"/>
<path d="M69.2375 72.047C80.486 76.0511 92.4355 77.7081 104.349 76.9156" stroke="white" stroke-width="2" stroke-miterlimit="10" stroke-linecap="round"/>
</svg>
