<svg width="171" height="144" viewBox="0 0 171 144" fill="none" xmlns="http://www.w3.org/2000/svg">
<path fill-rule="evenodd" clip-rule="evenodd" d="M0 71.9997C0 117.299 15.5029 144 62.7228 144C109.943 144 171 142.71 171 71.9997C171 1.289 160.137 0 85.4997 0C10.8621 0 0 26.7005 0 71.9997Z" fill="white"/>
<path fill-rule="evenodd" clip-rule="evenodd" d="M162.5 71.9997C162.5 31.1053 148.538 7.00024 106.012 7.00024C63.4863 7.00024 8.49969 8.16374 8.49969 71.9997C8.49969 135.837 18.2828 137 85.4996 137C152.717 137 162.5 112.895 162.5 71.9997Z" fill="#F1719B"/>
<path d="M119.974 100.42L46.0997 113.459C45.0877 113.681 44.0408 113.689 43.0253 113.485C42.0098 113.28 41.048 112.866 40.2007 112.27C39.3535 111.674 38.6393 110.909 38.1036 110.022C37.5678 109.136 37.2221 108.147 37.0885 107.12L30.6572 51.0706C30.4898 48.9098 31.1396 46.7648 32.478 45.0602C33.8164 43.3555 35.7459 42.2152 37.8847 41.865L111.759 28.8257C112.771 28.6044 113.818 28.5958 114.834 28.8005C115.849 29.0052 116.811 29.4186 117.658 30.0147C118.506 30.6107 119.22 31.3763 119.756 32.2629C120.291 33.1495 120.637 34.1378 120.771 35.165L127.202 91.2144C127.369 93.3752 126.72 95.5202 125.381 97.2249C124.043 98.9296 122.113 100.07 119.974 100.42Z" fill="#F2F2F2"/>
<path d="M121.537 41.8427L31.4234 57.7483L30.0668 45.9254C30.0103 45.195 30.2299 44.4699 30.6824 43.8937C31.1348 43.3175 31.787 42.932 32.51 42.8137L117.134 27.8769C117.476 27.8021 117.83 27.7992 118.173 27.8684C118.517 27.9376 118.842 28.0774 119.128 28.2789C119.415 28.4803 119.656 28.7391 119.837 29.0388C120.018 29.3385 120.135 29.6726 120.18 30.0198L121.537 41.8427Z" fill="#3FA9F5"/>
<path d="M57.831 45.7159L49.578 47.1729L48.164 34.8549L56.418 33.3989L57.831 45.7159Z" fill="#4D4D4D"/>
<path d="M101.058 38.086L92.805 39.543L91.391 27.226L99.645 25.769L101.058 38.086Z" fill="#4D4D4D"/>
<path d="M72.437 65.9221L61.765 67.8061L60.593 57.5901L71.265 55.7061L72.437 65.9221Z" fill="#CCCCCC"/>
<path d="M94.184 62.084L83.512 63.967L82.34 53.751L93.012 51.868L94.184 62.084Z" fill="#CCCCCC"/>
<path d="M115.931 58.2451L105.259 60.1291L104.086 49.9131L114.758 48.0291L115.931 58.2451Z" fill="#CCCCCC"/>
<path d="M52.656 86.891L41.984 88.775L40.812 78.559L51.484 76.675L52.656 86.891Z" fill="#CCCCCC"/>
<path d="M74.403 83.053L63.731 84.937L62.559 74.721L73.231 72.837L74.403 83.053Z" fill="#F15A24"/>
<path d="M96.15 79.214L85.478 81.098L84.305 70.882L94.977 68.998L96.15 79.214Z" fill="#CCCCCC"/>
<path d="M117.896 75.376L107.224 77.26L106.052 67.044L116.724 65.16L117.896 75.376Z" fill="#CCCCCC"/>
<path d="M54.622 104.022L43.95 105.906L42.777 95.69L53.449 93.806L54.622 104.022Z" fill="#CCCCCC"/>
<path d="M76.368 100.184L65.696 102.067L64.524 91.851L75.196 89.968L76.368 100.184Z" fill="#CCCCCC"/>
<path d="M98.115 96.345L87.443 98.229L86.271 88.013L96.943 86.129L98.115 96.345Z" fill="#CCCCCC"/>
<path d="M113.548 118.06C130.363 116.284 142.554 101.213 140.778 84.3987C139.002 67.5841 123.931 55.3929 107.117 57.1689C90.3022 58.9448 78.111 74.0154 79.8869 90.83C81.6628 107.645 96.7334 119.836 113.548 118.06Z" fill="#C1272D"/>
<path d="M114.179 111.126C128.132 109.652 138.247 97.1474 136.774 83.1952C135.3 69.243 122.795 59.1271 108.843 60.6007C94.8907 62.0743 84.7748 74.5794 86.2484 88.5316C87.7221 102.484 100.227 112.6 114.179 111.126Z" fill="white"/>
<path d="M107.874 64.337L106.649 88.003L114.016 87.225L107.874 64.337Z" fill="#F15A24"/>
<path d="M123.873 98.442L112.496 84.474L107.836 90.234L123.873 98.442Z" fill="#F15A24"/>
<path d="M110.721 91.2982C112.756 91.0833 114.231 89.2598 114.016 87.2253C113.801 85.1907 111.978 83.7156 109.943 83.9305C107.909 84.1454 106.434 85.9689 106.648 88.0034C106.863 90.038 108.687 91.5131 110.721 91.2982Z" fill="#4D4D4D"/>
</svg>
