<svg width="62" height="51" viewBox="0 0 62 51" fill="none" xmlns="http://www.w3.org/2000/svg">
<path fill-rule="evenodd" clip-rule="evenodd" d="M22.8746 0C6.02991 0 0.499512 9.45654 0.499512 25.499C0.499512 41.544 4.37439 51 30.9996 51C57.6245 51 61.4994 50.5435 61.4994 25.499C61.4994 0.456541 39.719 0 22.8746 0Z" fill="#DB236E"/>
<path fill-rule="evenodd" clip-rule="evenodd" d="M44.2583 15.8325C44.6737 16.9346 44.8941 18.1005 44.9098 19.2781C44.9965 20.7593 44.9969 21.2437 45 24.993L45 25.0451C45 28.8436 44.9798 29.3179 44.9129 30.8136C44.8896 31.9782 44.6704 33.1257 44.2614 34.2141C43.9008 35.1435 43.3506 35.9875 42.6457 36.6923C41.9408 37.3972 41.0968 37.9475 40.1675 38.3081C39.0796 38.7164 37.9303 38.9367 36.7685 38.9596C35.2837 39.0466 34.797 39.0466 31.0002 39.0466H31C27.203 39.0466 26.7288 39.0264 25.2315 38.9596C24.0674 38.9213 22.9185 38.6847 21.8341 38.2599C20.9044 37.9001 20.0599 37.3502 19.3547 36.6456C18.6495 35.9409 18.0991 35.0969 17.7386 34.1675C17.3296 33.0775 17.1104 31.93 17.0871 30.767C17 29.2805 17 28.7954 17 24.9984C17 21.2015 17.0202 20.7272 17.0871 19.2299C17.109 18.0686 17.3294 16.9196 17.7386 15.8325C18.0985 14.9028 18.6485 14.0585 19.3535 13.3535C20.0585 12.6485 20.9028 12.0985 21.8325 11.7386C22.9199 11.3304 24.0687 11.1095 25.2299 11.0855C26.7148 11 27.2015 11 30.9984 11C34.7954 11 35.2697 11.0187 36.7654 11.0855C37.9272 11.1094 39.0765 11.3302 40.1644 11.7386C41.0939 12.0987 41.9382 12.6489 42.6431 13.3538C43.348 14.0587 43.8981 14.9029 44.2583 15.8325ZM23.801 24.9907C23.801 28.9618 27.018 32.1788 30.9891 32.1788C32.8955 32.1788 34.7239 31.4215 36.0719 30.0735C37.4199 28.7254 38.1773 26.8971 38.1773 24.9907C38.1773 23.0843 37.4199 21.2559 36.0719 19.9079C34.7239 18.5599 32.8955 17.8025 30.9891 17.8025C27.018 17.8025 23.801 21.0195 23.801 24.9907ZM36.7872 17.5366C36.7872 18.4633 37.5351 19.2128 38.4633 19.2128C39.3885 19.2128 40.1379 18.4633 40.1379 17.5366C40.1379 17.3166 40.0946 17.0988 40.0104 16.8955C39.9262 16.6923 39.8028 16.5076 39.6472 16.352C39.4917 16.1964 39.307 16.073 39.1037 15.9888C38.9004 15.9046 38.6826 15.8613 38.4626 15.8613C38.2426 15.8613 38.0247 15.9046 37.8214 15.9888C37.6182 16.073 37.4335 16.1964 37.2779 16.352C37.1223 16.5076 36.9989 16.6923 36.9147 16.8955C36.8305 17.0988 36.7872 17.3166 36.7872 17.5366ZM35.6584 24.9905C35.6584 27.5692 33.5679 29.6597 30.9891 29.6597C28.4104 29.6597 26.3199 27.5692 26.3199 24.9905C26.3199 22.4117 28.4104 20.3212 30.9891 20.3212C33.5679 20.3212 35.6584 22.4117 35.6584 24.9905Z" fill="white"/>
</svg>
