<svg width="63" height="53" viewBox="0 0 63 53" fill="none" xmlns="http://www.w3.org/2000/svg">
<path d="M31.5 0.500004C24.8574 0.500004 19.5977 0.530415 15.46 0.967316C11.3259 1.40383 8.23473 2.25212 5.97525 3.94457C3.69772 5.65052 2.33379 8.16077 1.53681 11.7624C0.742752 15.3508 0.5 20.0751 0.5 26.2714C0.5 32.5395 1.87945 37.3166 4.25014 40.9459C6.6215 44.5761 9.95838 47.0175 13.8038 48.658C21.4641 51.9259 31.2207 52.0429 39.6 52.0429C48.1425 52.0429 53.913 49.6599 57.5271 45.1667C61.1218 40.6977 62.5 34.2392 62.5 26.2714C62.5 18.3335 61.5332 11.8277 57.08 7.33741C52.6319 2.85223 44.8287 0.500004 31.5 0.500004Z" stroke="url(#paint0_linear)"/>
<defs>
<linearGradient id="paint0_linear" x1="62" y1="51.5429" x2="1" y2="-9.45714" gradientUnits="userSpaceOnUse">
<stop stop-color="#14AFE2"/>
<stop offset="1" stop-color="#AB6BE2"/>
</linearGradient>
</defs>
</svg>
