<svg width="56" height="46" viewBox="0 0 56 46" fill="none" xmlns="http://www.w3.org/2000/svg">
<path d="M0 30.0028C0 39.8038 5.8006 45.2043 12.4012 45.2043C13.7955 45.212 15.1775 44.9431 16.4672 44.4131C17.7568 43.8831 18.9286 43.1025 19.9145 42.1166C20.9004 41.1307 21.681 39.9589 22.211 38.6693C22.741 37.3796 23.0099 35.9976 23.0022 34.6033C23.0022 28.6027 19.0018 24.4023 13.4013 24.4023C12.4012 24.4023 11.0011 24.6023 10.8011 24.6023C11.4011 18.2017 17.2017 10.2009 23.6023 6.0005L16.2016 0C7.0007 6.6006 0 17.8017 0 30.0028ZM32.0031 30.0028C32.0031 39.8038 37.8036 45.2043 44.4043 45.2043C47.2413 45.2273 49.9717 44.1242 51.9965 42.1369C54.0213 40.1495 55.1753 37.4403 55.2053 34.6033C55.2053 28.6027 51.0049 24.4023 45.4044 24.4023C44.4043 24.4023 43.0041 24.6023 42.8041 24.6023C43.6042 18.2017 49.2047 10.2009 55.6054 6.0005L48.2046 0C39.0038 6.6006 32.0031 17.8017 32.0031 30.0028Z" fill="#0BAADD"/>
</svg>
