<svg width="61" height="51" viewBox="0 0 61 51" fill="none" xmlns="http://www.w3.org/2000/svg">
<path fill-rule="evenodd" clip-rule="evenodd" d="M22.3748 0C5.53003 0 -0.000366211 9.45654 -0.000366211 25.499C-0.000366211 41.544 3.87451 51 30.4998 51C57.1246 51 60.9995 50.5435 60.9995 25.499C60.9995 0.456541 39.2191 0 22.3748 0Z" fill="#3BAAF9"/>
<path d="M42.6593 14.1796L17.3384 23.882C15.603 24.5788 15.6162 25.5385 17.0229 25.9723L23.5174 27.997L23.5327 27.9873L38.5706 18.5049C39.2805 18.071 39.8853 18.3077 39.3989 18.781L27.1986 29.7849L26.7516 36.4897C27.0061 36.4868 27.2567 36.4261 27.4845 36.3122C27.7122 36.1984 27.9111 36.0343 28.0663 35.8324L31.2099 32.7711L37.7948 37.673C39.0044 38.3435 39.8721 37.9885 40.1744 36.5555L44.4867 16.2305C44.9336 14.4556 43.8162 13.6011 42.6593 14.1796Z" fill="white"/>
</svg>
