<svg width="61" height="51" viewBox="0 0 61 51" fill="none" xmlns="http://www.w3.org/2000/svg">
<path fill-rule="evenodd" clip-rule="evenodd" d="M38.6246 51C55.4694 51 60.9998 41.5435 60.9998 25.501C60.9998 9.45605 57.1249 0 30.4996 0C3.87476 0 -0.000125885 0.456539 -0.000125885 25.501C-0.000125885 50.5435 21.7803 51 38.6246 51Z" fill="#20B8FF"/>
<path d="M41.6669 19.5396V20.2481C41.6638 22.1968 41.3033 24.1285 40.6034 25.9473C39.8953 27.8149 38.8716 29.5469 37.577 31.0679C36.1771 32.6808 34.4403 33.9669 32.4891 34.8355C30.3368 35.8163 27.9949 36.311 25.6298 36.2847C22.5698 36.3066 19.5702 35.4336 16.9999 33.773C17.4286 33.8159 17.8794 33.8374 18.3524 33.8374C20.8951 33.8633 23.3709 33.023 25.3724 31.4546C24.1721 31.4284 23.0109 31.0225 22.0555 30.2954C21.1191 29.6083 20.4301 28.6368 20.0912 27.5259C20.4279 27.6115 20.774 27.6548 21.1214 27.6548C21.6266 27.6565 22.128 27.5693 22.6029 27.397C21.3354 27.152 20.1951 26.4676 19.3827 25.4644C18.5396 24.478 18.0821 23.2199 18.0946 21.9224V21.8579C18.8902 22.2821 19.7701 22.5242 20.6708 22.5664C19.8836 22.0643 19.2391 21.368 18.7991 20.5445C18.3592 19.7211 18.1388 18.7982 18.159 17.8648C18.1503 16.867 18.4179 15.8863 18.932 15.0313C20.3389 16.7408 22.0816 18.1436 24.0522 19.1528C26.0611 20.1869 28.2677 20.7798 30.5243 20.8921C30.4388 20.4681 30.3957 20.0366 30.3959 19.6041C30.3968 18.1183 30.9874 16.6937 32.038 15.6432C33.0885 14.5926 34.5132 14.002 35.9989 14.0011C36.7694 13.9859 37.5346 14.1329 38.2447 14.4324C38.9548 14.732 39.594 15.1774 40.1209 15.7398C41.389 15.4894 42.6074 15.0325 43.7274 14.3873C43.3135 15.6995 42.4154 16.8049 41.2157 17.4786C42.3447 17.3576 43.4507 17.0756 44.4999 16.6412C43.7253 17.7598 42.7675 18.7397 41.6669 19.5396Z" fill="white"/>
</svg>
