<svg width="232" height="60" viewBox="0 0 232 60" fill="none" xmlns="http://www.w3.org/2000/svg">
<path d="M224.942 0H8.00911C4.12595 0 0.978027 3.14792 0.978027 7.03109V52.9689C0.978027 56.8521 4.12595 60 8.00911 60H224.942C228.825 60 231.973 56.8521 231.973 52.9689V7.03109C231.973 3.14792 228.825 0 224.942 0Z" fill="black"/>
<path d="M31.1852 11.3433C31.2672 11.7472 31.3093 12.1581 31.3111 12.5701C29.5865 13.314 28.9216 13.8495 28.9514 16.4061V17.9739L27.7704 18.2119V16.3969C27.7704 12.6296 29.2111 12.0368 31.1852 11.3433H31.1852ZM34.6206 10.5354C34.7057 10.9265 34.7668 11.3224 34.8037 11.721C37.8947 11.2793 37.8341 12.5541 37.8341 15.2136V16.1978L39.0036 15.9575V15.2136C39.0036 11.0824 38.3616 9.97694 34.6206 10.5354ZM22.4455 19.2762V13.8427C22.4078 10.4759 24.1449 9.44367 27.3584 8.68837C32.19 7.55543 32.5001 10.675 32.5001 12.6594V17.2644L33.6811 17.0263V12.7601C33.6696 9.00649 32.5001 6.19361 27.1192 7.41352C24.2216 8.07269 21.2645 8.81196 21.2645 13.7305V19.5096L22.4455 19.2762ZM36.6107 33.5604H27.5106V26.9779L36.6107 25.6435V33.5604ZM36.6107 42.8619L27.5106 41.5344V34.4667H36.6107V42.8619ZM26.6031 33.5604H19.3843V28.049L26.6031 27.0282L26.6031 33.5604ZM26.6031 41.4772L19.3843 40.461V34.4667H26.6031V41.4772ZM44.9212 16.207L12.391 22.7139V46.3706L44.9212 52.8753L51.4225 50.5133V18.5736L44.9212 16.207Z" fill="white"/>
<path d="M31.1852 11.3433C31.2672 11.7472 31.3093 12.1581 31.3111 12.5701C29.5865 13.314 28.9216 13.8495 28.9514 16.4061V17.9739L27.7704 18.2119V16.3969C27.7704 12.6296 29.2111 12.0368 31.1852 11.3433H31.1852ZM34.6206 10.5354C34.7057 10.9265 34.7668 11.3224 34.8037 11.721C37.8947 11.2793 37.8341 12.5541 37.8341 15.2136V16.1978L39.0036 15.9575V15.2136C39.0036 11.0824 38.3616 9.97694 34.6206 10.5354ZM22.4455 19.2762V13.8427C22.4078 10.4759 24.1449 9.44367 27.3584 8.68837C32.19 7.55543 32.5001 10.675 32.5001 12.6594V17.2644L33.6811 17.0263V12.7601C33.6696 9.00649 32.5001 6.19361 27.1192 7.41352C24.2216 8.07269 21.2645 8.81196 21.2645 13.7305V19.5096L22.4455 19.2762ZM36.6107 33.5604H27.5106V26.9779L36.6107 25.6435V33.5604ZM36.6107 42.8619L27.5106 41.5344V34.4667H36.6107V42.8619ZM26.6031 33.5604H19.3843V28.049L26.6031 27.0282L26.6031 33.5604ZM26.6031 41.4772L19.3843 40.461V34.4667H26.6031V41.4772ZM44.9212 16.207L12.391 22.7139V46.3706L44.9212 52.8753L51.4225 50.5133V18.5736L44.9212 16.207Z" fill="white"/>
<path d="M73.4941 17.0883C73.5168 18.2082 73.2415 19.314 72.6965 20.2925C72.1707 21.2136 71.3838 21.9583 70.4352 22.4325C69.3913 22.9461 68.2397 23.2027 67.0764 23.181H63.934V11.2908H67.2172C71.4011 11.2908 73.4934 13.2233 73.4941 17.0883L73.4941 17.0883ZM72.0362 17.1203C72.0362 14.074 70.4188 12.5512 67.184 12.5519H65.3255V21.9221H67.0936C68.6637 21.9221 69.879 21.5033 70.7396 20.6656C71.6048 19.8279 72.0369 18.6462 72.0362 17.1203L72.0362 17.1203ZM83.3702 18.9055C83.4265 20.0981 83.0141 21.2654 82.2212 22.1579C81.8254 22.571 81.3459 22.8948 80.8148 23.1076C80.2837 23.3203 79.7132 23.4171 79.1417 23.3915C78.5839 23.4164 78.0273 23.3221 77.509 23.1149C76.9906 22.9077 76.5223 22.5924 76.1354 22.1899C75.3625 21.3253 74.9595 20.1922 75.0127 19.0337C75.0127 17.633 75.3972 16.5207 76.1628 15.7081C76.9319 14.8933 77.9912 14.4852 79.3408 14.4837C80.6019 14.4837 81.5887 14.8766 82.3013 15.6624C83.0142 16.4543 83.3702 17.5323 83.3702 18.9055L83.3702 18.9055ZM81.9774 18.9536C81.9774 17.887 81.7409 17.0684 81.2679 16.4978C81.0182 16.2093 80.7054 15.9822 80.3537 15.8341C80.002 15.6861 79.621 15.621 79.2401 15.6441C78.8514 15.6259 78.4637 15.695 78.1052 15.8463C77.7468 15.9976 77.4268 16.2272 77.1687 16.5184C76.6595 17.102 76.4043 17.926 76.4043 18.9834C76.3522 19.847 76.6258 20.6988 77.171 21.3706C77.4319 21.6565 77.7525 21.8817 78.11 22.03C78.4676 22.1783 78.8534 22.2462 79.2401 22.2288C79.6209 22.2526 80.002 22.1888 80.3543 22.0424C80.7066 21.896 81.0207 21.6709 81.2725 21.3843C81.744 20.819 81.979 20.0087 81.9774 18.9536L81.9774 18.9536ZM96.1735 14.6896L93.6284 23.181H92.2174L90.4665 17.102C90.3997 16.8471 90.356 16.5866 90.336 16.3238H90.3028C90.2707 16.5838 90.2124 16.8399 90.1289 17.0883L88.2303 23.181H86.8697L84.3074 14.6896H85.7345L87.4831 21.0753C87.543 21.3265 87.5824 21.5822 87.6009 21.8397H87.6662C87.6869 21.5742 87.7395 21.3122 87.823 21.0593L89.7707 14.6896H91.0169L92.7827 21.0913C92.8438 21.3422 92.8821 21.598 92.8971 21.8558H92.9624C92.9747 21.5963 93.0197 21.3395 93.0963 21.0913L94.8312 14.6896L96.1735 14.6896ZM104.806 23.181H103.446V18.3379C103.446 16.5412 102.788 15.6433 101.473 15.6441C101.154 15.6388 100.839 15.7039 100.548 15.8349C100.257 15.9658 99.9992 16.1594 99.7921 16.4016C99.3311 16.939 99.09 17.6305 99.1169 18.3379V23.181H97.7585V14.6896H99.1169V16.0995H99.1501C99.4177 15.5971 99.8204 15.1796 100.313 14.8941C100.805 14.6085 101.368 14.4664 101.937 14.4836C102.339 14.4577 102.742 14.5268 103.113 14.6855C103.484 14.8441 103.813 15.0878 104.072 15.3969C104.562 16.0034 104.806 16.8647 104.806 17.9809V23.181ZM108.729 23.181H107.369V10.6111H108.729V23.181ZM119.194 18.9055C119.249 20.0979 118.837 21.2648 118.045 22.1579C117.649 22.571 117.169 22.8948 116.637 23.1076C116.106 23.3203 115.535 23.4171 114.963 23.3915C114.406 23.4164 113.849 23.3221 113.331 23.1149C112.813 22.9077 112.345 22.5923 111.958 22.1899C111.184 21.3259 110.78 20.1925 110.833 19.0337C110.833 17.633 111.218 16.5207 111.987 15.7081C112.756 14.8933 113.814 14.4852 115.162 14.4837C116.426 14.4837 117.41 14.875 118.125 15.6624C118.837 16.4543 119.194 17.5323 119.194 18.9055L119.194 18.9055ZM117.801 18.9536C117.801 17.887 117.562 17.0677 117.091 16.4978C116.841 16.2094 116.528 15.9823 116.177 15.8343C115.825 15.6862 115.445 15.6211 115.064 15.6441C114.675 15.6258 114.286 15.6948 113.927 15.8461C113.568 15.9973 113.248 16.2271 112.989 16.5184C112.483 17.102 112.228 17.926 112.228 18.9834C112.176 19.847 112.45 20.6988 112.995 21.3705C113.255 21.6568 113.576 21.8821 113.934 22.0304C114.291 22.1788 114.677 22.2465 115.064 22.2288C115.445 22.2523 115.826 22.1884 116.178 22.0421C116.53 21.8957 116.844 21.6707 117.096 21.3843C117.564 20.819 117.801 20.0087 117.801 18.9536L117.801 18.9536ZM127.312 23.181H125.953V21.8558H125.919C125.672 22.3313 125.296 22.7275 124.834 22.9991C124.372 23.2707 123.843 23.4067 123.307 23.3915C122.591 23.4268 121.889 23.1878 121.343 22.7232C121.096 22.4952 120.902 22.216 120.775 21.9053C120.647 21.5946 120.589 21.2598 120.604 20.9242C120.604 19.345 121.538 18.4219 123.405 18.1548L125.953 17.8001C125.953 16.365 125.369 15.6441 124.202 15.6441C123.184 15.6424 122.2 16.0109 121.433 16.6809V15.2893C121.824 15.0356 122.256 14.8513 122.709 14.7446C123.232 14.5833 123.773 14.4955 124.32 14.4836C126.313 14.4836 127.311 15.5426 127.312 17.6604L127.312 23.181ZM125.953 18.8872L123.895 19.1756C123.368 19.2109 122.86 19.3846 122.421 19.6792C122.269 19.8247 122.151 20.0029 122.078 20.2003C122.004 20.3977 121.977 20.6092 121.997 20.819C121.989 21.013 122.027 21.2062 122.106 21.3836C122.185 21.5609 122.304 21.7178 122.453 21.842C122.782 22.1083 123.197 22.2458 123.62 22.2288C123.934 22.2375 124.246 22.1781 124.534 22.0549C124.822 21.9316 125.081 21.7473 125.291 21.5147C125.736 21.0297 125.974 20.3897 125.953 19.7318V18.8872ZM137.054 23.181H135.695V21.739H135.663C135.386 22.1986 135.006 22.5866 134.551 22.8713C134.097 23.1561 133.582 23.3296 133.047 23.3777C132.513 23.4259 131.975 23.3474 131.477 23.1486C130.979 22.9497 130.535 22.6362 130.181 22.2334C129.546 21.4621 129.227 20.4299 129.227 19.1436C129.227 17.7383 129.579 16.6099 130.284 15.7585C130.626 15.3419 131.06 15.01 131.551 14.7888C132.043 14.5677 132.579 14.4632 133.118 14.4836C133.628 14.4519 134.137 14.564 134.587 14.8071C135.037 15.0503 135.41 15.4148 135.663 15.8592H135.695V10.6111H137.054L137.054 23.181ZM135.695 19.3427V18.0885C135.704 17.7645 135.647 17.442 135.527 17.1412C135.406 16.8403 135.225 16.5675 134.994 16.3398C134.772 16.1143 134.507 15.9364 134.214 15.8168C133.921 15.6971 133.607 15.6384 133.29 15.644C132.917 15.6302 132.545 15.7053 132.206 15.8633C131.867 16.0213 131.57 16.2576 131.34 16.5527C130.823 17.2857 130.57 18.1724 130.622 19.068C130.576 19.8937 130.815 20.71 131.3 21.3797C131.517 21.6561 131.796 21.8772 132.115 22.0248C132.434 22.1724 132.783 22.2423 133.134 22.2288C133.482 22.2379 133.828 22.1696 134.147 22.0286C134.465 21.8877 134.749 21.6778 134.976 21.414C135.468 20.8387 135.725 20.099 135.695 19.3427L135.695 19.3427ZM147.96 11.8058C147.684 11.6527 147.371 11.5753 147.055 11.5815C146.106 11.5815 145.631 12.1812 145.63 13.3805V14.6896H147.62V15.8409H145.63V23.181H144.271V15.8409H142.828V14.6896H144.271V13.3118C144.254 12.9308 144.312 12.5502 144.443 12.1919C144.574 11.8336 144.774 11.5048 145.033 11.2244C145.282 10.9627 145.584 10.7565 145.918 10.6192C146.252 10.482 146.612 10.4168 146.973 10.4279C147.308 10.4144 147.644 10.4649 147.96 10.5767V11.8058ZM153.507 16.0675C153.099 15.8124 152.606 15.7297 152.137 15.8374C151.668 15.9451 151.26 16.2344 151.004 16.642C150.601 17.3066 150.404 18.0762 150.439 18.8529V23.181H149.078V14.6896H150.439V16.4405H150.472C150.628 15.9059 150.929 15.425 151.342 15.0513C151.714 14.7196 152.196 14.5378 152.695 14.5409C152.97 14.5292 153.245 14.568 153.507 14.6553V16.0675ZM162.484 18.9055C162.539 20.0977 162.127 21.2644 161.336 22.1579C160.939 22.5711 160.459 22.895 159.928 23.1077C159.396 23.3205 158.825 23.4172 158.253 23.3915C157.695 23.4164 157.139 23.3221 156.621 23.1149C156.103 22.9076 155.635 22.5923 155.249 22.1899C154.475 21.3259 154.071 20.1925 154.124 19.0337C154.124 17.633 154.508 16.5207 155.277 15.7081C156.045 14.8933 157.104 14.4852 158.453 14.4837C159.713 14.4837 160.7 14.8766 161.415 15.6624C162.128 16.4543 162.484 17.5323 162.484 18.9055L162.484 18.9055ZM161.092 18.9536C161.092 17.887 160.853 17.0677 160.381 16.4978C160.132 16.2095 159.819 15.9825 159.468 15.8344C159.116 15.6864 158.735 15.6213 158.355 15.6441C157.966 15.6256 157.577 15.6946 157.218 15.8459C156.859 15.9972 156.539 16.227 156.28 16.5184C155.772 17.102 155.516 17.926 155.516 18.9834C155.465 19.8472 155.739 20.6988 156.285 21.3705C156.545 21.6567 156.866 21.882 157.224 22.0303C157.582 22.1786 157.968 22.2464 158.355 22.2288C158.735 22.2524 159.116 22.1886 159.468 22.0422C159.82 21.8958 160.134 21.6708 160.386 21.3843C160.855 20.819 161.091 20.0087 161.092 18.9536V18.9536ZM176.647 23.181H175.287V18.3036C175.287 17.3561 175.142 16.674 174.851 16.2643C174.56 15.85 174.072 15.6433 173.386 15.6441C173.094 15.6476 172.807 15.7219 172.549 15.8606C172.292 15.9993 172.071 16.1983 171.908 16.4405C171.497 16.9865 171.283 17.655 171.299 18.3379V23.181H169.937V18.1411C169.937 16.4772 169.293 15.6448 168.005 15.6441C167.717 15.6413 167.432 15.7081 167.175 15.8388C166.918 15.9695 166.697 16.1602 166.529 16.3948C166.123 16.9589 165.919 17.6435 165.95 18.3379V23.181H164.588V14.6896H165.95V16.0331H165.983C166.232 15.5542 166.611 15.1549 167.076 14.8809C167.541 14.6069 168.073 14.4692 168.613 14.4836C169.146 14.4782 169.667 14.6408 170.103 14.9482C170.55 15.2632 170.875 15.7221 171.024 16.2483C171.655 15.0718 172.595 14.4836 173.844 14.4836C175.712 14.4836 176.646 15.6395 176.647 17.9511L176.647 23.181Z" fill="white"/>
<path d="M85.6921 30.8157L80.6889 48.5261H78.2582L74.6111 35.5717C74.4577 34.9865 74.3676 34.3864 74.3422 33.7819H74.2929C74.228 34.3787 74.1167 34.9694 73.9599 35.5489L70.2899 48.5262H67.8821L62.7072 30.8157H64.9788L68.7473 44.4018C68.9002 44.9847 69.0028 45.5797 69.054 46.1802H69.1055C69.1657 45.5759 69.29 44.9798 69.4763 44.4018L73.4038 30.8157H75.403L79.1463 44.5002C79.292 45.0384 79.3907 45.5883 79.4416 46.1435H79.4908C79.5584 45.5719 79.6705 45.0064 79.8261 44.4521L83.4446 30.8157H85.6921ZM89.7112 31.7197C89.7163 31.8964 89.6837 32.0721 89.6154 32.2352C89.5471 32.3982 89.4448 32.5447 89.3153 32.665C89.0619 32.9037 88.7277 33.0378 88.3796 33.0403C88.0315 33.0429 87.6953 32.9137 87.4385 32.6787C87.311 32.5546 87.2109 32.4051 87.1447 32.2399C87.0785 32.0748 87.0476 31.8976 87.054 31.7197C87.0529 31.5485 87.0859 31.3787 87.1512 31.2204C87.2164 31.062 87.3125 30.9182 87.4339 30.7974C87.5554 30.6708 87.7018 30.5709 87.8639 30.5039C88.0261 30.4369 88.2003 30.4044 88.3757 30.4083C88.5525 30.4046 88.7283 30.4367 88.8923 30.5028C89.0563 30.5689 89.2053 30.6675 89.3301 30.7928C89.4532 30.9134 89.5505 31.0577 89.616 31.2171C89.6815 31.3764 89.7139 31.5475 89.7112 31.7197V31.7197ZM89.3645 48.5262H87.3378V35.8784H89.3645V48.5262ZM102.93 48.5262H100.903V41.3142C100.903 38.6387 99.9241 37.2998 97.9657 37.2975C97.4907 37.2899 97.02 37.3876 96.5873 37.5835C96.1546 37.7793 95.7706 38.0686 95.4629 38.4304C94.7736 39.2292 94.4137 40.26 94.4558 41.3142V48.5262H92.4326V35.8784H94.4558V37.9795H94.5039C94.9026 37.231 95.5027 36.6089 96.2364 36.1834C96.97 35.758 97.808 35.5461 98.6557 35.5717C100.047 35.5717 101.107 36.0242 101.836 36.929C102.565 37.8376 102.93 39.1193 102.93 40.7833L102.93 48.5262ZM116.983 48.5262H114.957V46.377H114.911C113.971 48.0181 112.522 48.8374 110.563 48.8351C109.837 48.863 109.114 48.7221 108.452 48.4235C107.789 48.1248 107.205 47.6766 106.745 47.114C105.801 45.965 105.329 44.4316 105.327 42.5136C105.327 40.4239 105.852 38.744 106.902 37.4737C107.411 36.8526 108.056 36.3577 108.787 36.0277C109.519 35.6978 110.317 35.5417 111.119 35.5717C112.846 35.5717 114.11 36.2546 114.911 37.6202H114.957V29.8018H116.983V48.5262ZM114.957 42.8065V40.9435C114.971 40.4608 114.885 39.9804 114.706 39.532C114.527 39.0837 114.258 38.6768 113.915 38.3366C113.585 38 113.19 37.7343 112.754 37.5556C112.318 37.377 111.85 37.2891 111.379 37.2975C110.823 37.2769 110.269 37.3891 109.765 37.6247C109.26 37.8603 108.819 38.2126 108.478 38.6524C107.76 39.5519 107.401 40.8016 107.4 42.4014C107.4 43.8502 107.738 44.9961 108.414 45.8391C108.736 46.2512 109.152 46.5807 109.627 46.8008C110.101 47.0208 110.622 47.125 111.144 47.1048C111.662 47.1186 112.177 47.0171 112.65 46.8077C113.124 46.5983 113.546 46.2862 113.884 45.8941C114.621 45.0384 115.004 43.9346 114.957 42.8065V42.8065ZM131.94 42.1542C131.94 44.1638 131.369 45.7796 130.227 47.0018C129.088 48.2263 127.559 48.8374 125.64 48.8351C123.773 48.8351 122.28 48.2408 121.161 47.0522C120.047 45.862 119.49 44.2958 119.49 42.3534C119.49 40.2591 120.063 38.6059 121.208 37.3936C122.352 36.1783 123.929 35.571 125.938 35.5717C127.813 35.5717 129.283 36.1584 130.347 37.3318C131.408 38.5037 131.939 40.1111 131.94 42.1542H131.94ZM129.864 42.2275C129.864 40.6391 129.513 39.4237 128.809 38.5723C128.104 37.7232 127.097 37.2982 125.788 37.2975C125.209 37.2712 124.631 37.3747 124.097 37.6004C123.563 37.8261 123.086 38.1684 122.701 38.6021C121.944 39.4718 121.565 40.6971 121.565 42.2778C121.565 43.7953 121.946 44.9778 122.708 45.8254C123.096 46.2521 123.573 46.588 124.105 46.8091C124.638 47.0303 125.212 47.1313 125.788 47.1048C127.103 47.1048 128.116 46.686 128.814 45.8483C129.515 45.006 129.865 43.7991 129.864 42.2275V42.2275ZM150.376 35.8784L146.584 48.5262H144.484L141.88 39.4741C141.778 39.0943 141.713 38.7058 141.683 38.3137H141.632C141.585 38.6999 141.498 39.0803 141.373 39.4489L138.544 48.5262H136.52L132.702 35.8784H134.827L137.432 45.3906C137.521 45.7643 137.579 46.1448 137.605 46.5281H137.703C137.735 46.1326 137.814 45.7424 137.938 45.3654L140.842 35.8784H142.695L145.325 45.4134C145.415 45.787 145.472 46.1675 145.496 46.551H145.595C145.612 46.1648 145.679 45.7824 145.794 45.4134L148.375 35.8784H150.376ZM159.006 45.1411C159.019 45.6543 158.911 46.1634 158.691 46.6273C158.471 47.0912 158.146 47.497 157.74 47.8121C156.896 48.4941 155.775 48.8351 154.377 48.8351C153.281 48.8606 152.198 48.5961 151.238 48.0684V45.8941C152.156 46.6735 153.32 47.1024 154.524 47.1048C156.128 47.1048 156.933 46.5189 156.933 45.3402C156.942 45.1234 156.904 44.9073 156.822 44.7062C156.741 44.505 156.618 44.3233 156.462 44.1729C156.148 43.8731 155.436 43.468 154.325 42.9576C153.207 42.4792 152.415 41.9688 151.953 41.4195C151.418 40.6976 151.179 39.7988 151.285 38.9067C151.391 38.0146 151.834 37.1966 152.523 36.62C153.429 35.8986 154.564 35.5266 155.721 35.5717C156.657 35.558 157.583 35.7609 158.427 36.1645V38.2015C157.595 37.5978 156.59 37.2805 155.562 37.2975C154.983 37.2695 154.413 37.4453 153.95 37.7941C153.755 37.9429 153.597 38.1356 153.49 38.3568C153.383 38.5779 153.33 38.8212 153.335 39.0667C153.321 39.3027 153.355 39.5393 153.436 39.7614C153.517 39.9836 153.644 40.1865 153.807 40.3576C154.392 40.8131 155.047 41.1724 155.746 41.4218C156.947 41.9345 157.791 42.4716 158.277 43.0331C158.773 43.621 159.033 44.3723 159.006 45.1411" fill="white"/>
<path d="M177.03 44.0592C177.06 44.7268 176.932 45.392 176.658 46.0012C176.383 46.6103 175.969 47.1462 175.448 47.5656C174.396 48.4124 172.964 48.8366 171.152 48.8381C170.398 48.8244 169.649 48.7144 168.923 48.5108C168.303 48.3764 167.709 48.1455 167.161 47.8265V45.3684C167.744 45.8683 168.417 46.2535 169.144 46.5036C169.875 46.791 170.651 46.946 171.436 46.9614C173.709 46.9614 174.845 46.0756 174.843 44.3041C174.857 43.5975 174.596 42.9131 174.115 42.3953C173.63 41.8666 172.634 41.1693 171.126 40.3033C169.669 39.4794 168.648 38.6974 168.064 37.9573C167.389 37.037 167.085 35.8963 167.213 34.7622C167.341 33.6282 167.892 32.5839 168.755 31.8372C169.802 30.9583 171.152 30.5234 172.807 30.5234C174.396 30.5234 175.556 30.7294 176.289 31.1506V33.4714C175.368 32.7481 174.17 32.3865 172.694 32.3865C171.833 32.3492 170.986 32.6085 170.294 33.1212C169.994 33.3473 169.753 33.6419 169.59 33.9804C169.428 34.3188 169.348 34.6913 169.359 35.0666C169.339 35.5514 169.434 36.034 169.638 36.4742C169.874 36.887 170.194 37.2451 170.578 37.5248C171.287 38.0425 172.032 38.5091 172.807 38.9209C174.37 39.7929 175.466 40.6161 176.093 41.3905C176.709 42.1422 177.041 43.0871 177.03 44.0592H177.03ZM185.4 48.4056C184.811 48.7011 184.156 48.8413 183.497 48.813C181.292 48.813 180.188 47.5702 180.187 45.0846V37.598H178.014V35.8814H180.187V32.7939L182.214 32.1393V35.8815H185.4V37.598H182.214V44.7367C182.214 45.5858 182.357 46.1878 182.645 46.5471C182.934 46.9042 183.415 47.0827 184.09 47.0827C184.559 47.0943 185.02 46.9512 185.4 46.6753V48.4056ZM199.364 42.1549C199.364 44.1645 198.793 45.7804 197.653 47.0026C196.513 48.2248 194.983 48.8366 193.064 48.8381C191.195 48.8381 189.703 48.2431 188.587 47.0529C187.471 45.8627 186.914 44.2965 186.914 42.3541C186.914 40.2621 187.487 38.6096 188.632 37.3966C189.775 36.1813 191.351 35.5732 193.361 35.5725C195.238 35.5725 196.708 36.1591 197.772 37.3325C198.834 38.5044 199.364 40.1119 199.364 42.155L199.364 42.1549ZM197.289 42.2282C197.289 40.6421 196.937 39.4245 196.233 38.5753C195.529 37.7239 194.523 37.2989 193.214 37.3005C192.634 37.2734 192.056 37.3764 191.521 37.6017C190.987 37.827 190.509 38.1691 190.124 38.6028C189.368 39.4725 188.989 40.6978 188.99 42.2785C188.99 43.796 189.368 44.9793 190.132 45.8307C190.52 46.2569 190.998 46.5922 191.53 46.813C192.063 47.0337 192.638 47.1344 193.214 47.1078C194.529 47.1078 195.537 46.6882 196.24 45.849C196.94 45.009 197.29 43.8021 197.289 42.2282L197.289 42.2282ZM208.084 37.9299C207.475 37.5525 206.741 37.431 206.043 37.5917C205.345 37.7524 204.738 38.1825 204.356 38.7882C203.755 39.7783 203.462 40.9248 203.514 42.0817V48.5292H201.489V35.8814H203.514V38.4883H203.564C203.794 37.6909 204.243 36.9736 204.859 36.417C205.414 35.9249 206.131 35.655 206.872 35.6594C207.283 35.6405 207.695 35.6995 208.084 35.8334L208.084 37.9299ZM220.285 42.7111H211.356C211.389 44.137 211.765 45.2265 212.485 45.9795C213.207 46.7325 214.206 47.1086 215.481 47.1078C216.907 47.1116 218.29 46.6233 219.397 45.7254V47.6159C218.293 48.4307 216.827 48.8381 215.001 48.8381C213.196 48.8381 211.787 48.2553 210.774 47.0895C209.763 45.9245 209.257 44.3133 209.256 42.2557C209.24 41.0701 209.501 39.8973 210.016 38.8294C210.474 37.8475 211.199 37.0146 212.109 36.4262C212.992 35.8587 214.023 35.5619 215.073 35.5725C216.714 35.5725 217.993 36.1057 218.91 37.1723C219.826 38.2389 220.285 39.7319 220.285 41.6514V42.7111ZM218.212 40.9945C218.195 39.825 217.912 38.9171 217.365 38.2709C217.078 37.9445 216.72 37.6875 216.319 37.5194C215.918 37.3513 215.484 37.2764 215.05 37.3005C214.6 37.2942 214.154 37.381 213.739 37.5555C213.325 37.73 212.951 37.9884 212.641 38.3144C211.945 39.0498 211.503 39.9892 211.38 40.9945L218.212 40.9945Z" fill="white"/>
</svg>
