<svg width="61" height="51" viewBox="0 0 61 51" fill="none" xmlns="http://www.w3.org/2000/svg">
<path fill-rule="evenodd" clip-rule="evenodd" d="M22.3749 51C5.53016 51 -0.000244141 41.5435 -0.000244141 25.501C-0.000244141 9.45605 3.87464 0 30.4999 0C57.1248 0 60.9996 0.456539 60.9996 25.501C60.9996 50.5435 39.2192 51 22.3749 51Z" fill="#CC3333"/>
<path d="M43.8449 20.223C44.0626 21.7309 44.1728 23.2524 44.1748 24.7759V26.8874L43.8449 31.4403C43.7778 32.4604 43.3845 33.432 42.7232 34.2116C41.9524 34.8972 40.9799 35.314 39.9519 35.3993C38.7642 35.4873 37.3455 35.5533 35.6959 35.5973C34.0463 35.6413 32.6937 35.6633 31.6379 35.6633H30.0543C25.1715 35.6193 21.9823 35.5313 20.4867 35.3994C19.7828 35.3114 19.321 35.2454 19.101 35.2014C18.4595 35.0331 17.8772 34.6905 17.4184 34.2116C17.1396 33.8878 16.9166 33.5199 16.7586 33.1229C16.5821 32.7346 16.4599 32.3238 16.3957 31.9022L16.2637 31.4403C16.0894 29.9289 16.0012 28.4088 15.9998 26.8874V24.7759L16.2637 20.223C16.3308 19.2029 16.7241 18.2313 17.3854 17.4517C18.1551 16.7237 19.1639 16.3014 20.2227 16.264C21.4104 16.176 22.8181 16.11 24.4457 16.066C26.0733 16.022 27.415 16 28.4707 16H30.0543C34.0133 16 37.3125 16.088 39.9519 16.2639C40.9894 16.3096 41.9746 16.7319 42.7232 17.4516C42.9064 17.6374 43.062 17.8485 43.1851 18.0785C43.3131 18.3118 43.4234 18.5544 43.515 18.8043C43.5984 19.0299 43.6646 19.2615 43.713 19.4971C43.7465 19.6756 43.7906 19.8518 43.845 20.025L43.8449 20.223ZM33.8814 26.0296L34.8051 25.5678L27.217 21.6088V29.5268L33.8814 26.0296Z" fill="white"/>
</svg>
