<svg width="250" height="150" viewBox="0 0 250 150" fill="none" xmlns="http://www.w3.org/2000/svg">
<path d="M19.901 109.706L12.9874 52.399L1.50592 60.3843C0.456535 61.1359 -0.129885 62.3885 0.0244362 63.7038L4.6232 103.787C4.80839 105.259 5.85777 106.48 7.30839 106.825L19.901 109.706Z" fill="#0183D1"/>
<path d="M148.327 67.3363L102.061 68.3697L106.105 62.8582C106.845 61.8562 107.987 61.2612 109.191 61.2612L138.605 60.7914C139.5 60.7914 140.395 61.0733 141.105 61.637L148.327 67.3363Z" fill="url(#paint0_linear)"/>
<path d="M173.79 68.9647L169.037 82.2737L154.006 81.0211L154.994 76.9814C155.179 76.2925 155.673 75.7288 156.321 75.4783L173.79 68.9647Z" fill="#0183D1"/>
<path d="M146.969 115.812L105.271 116.501C103.389 116.533 101.845 114.998 101.815 113.088L101.136 70.781C101.105 68.8708 102.617 67.305 104.5 67.2737L146.197 66.5848C148.08 66.5534 149.623 68.0879 149.654 69.9981L150.333 112.305C150.364 114.215 148.852 115.781 146.969 115.812Z" fill="url(#paint1_linear)"/>
<path d="M130.426 71.5952C133.697 71.5326 136.259 72.4094 138.142 74.2257C140.024 76.0106 140.981 78.6098 141.043 82.0232L141.568 115.938L132.802 116.094L132.308 84.2152C132.278 82.3676 131.907 81.0211 131.228 80.1443C130.549 79.2987 129.438 78.8916 127.957 78.8916C125.426 78.923 122.71 80.1129 119.87 82.399L120.241 108.234L111.352 108.391L110.796 72.7539L119.006 72.6286L119.068 76.0106C122.74 73.1296 126.537 71.6578 130.426 71.5952Z" fill="url(#paint2_linear)"/>
<path d="M126.352 56.1881L80.7343 61.543C79.0368 61.7309 77.4936 60.5096 77.3084 58.7873L72.0306 12.472C71.8454 10.7497 73.0491 9.18394 74.7467 8.99604L120.364 3.64114C122.061 3.45325 123.605 4.67454 123.79 6.39688L129.068 52.6808C129.284 54.4345 128.049 55.9689 126.352 56.1881Z" fill="url(#paint3_linear)"/>
<path d="M111.197 57.9731L105.395 42.472L91.5677 42.8791L85.7961 60.948L80.7343 61.543C79.0059 61.7309 78.1109 60.5409 78.1109 60.5409L92.5553 16.7935C93.2343 14.7267 94.9318 13.662 97.617 13.5681C100.333 13.4741 102.092 14.4762 102.895 16.543L118.79 57.0649L111.197 57.9731Z" fill="url(#paint4_linear)"/>
<path d="M135.889 47.4512L107.648 41.1255L113.882 12.472L142.123 18.7977L135.889 47.4512Z" fill="url(#paint5_linear)"/>
<path d="M142.524 48.923L135.889 47.4512L142.123 18.7977L146.568 19.8311L142.524 48.923Z" fill="#0183D1"/>
<path d="M70.9812 103.975L21.4133 109.831C19.2837 110.082 17.3701 108.547 17.0923 106.386L11.3516 56.0942C11.1047 53.9334 12.617 51.9919 14.7467 51.71L64.3146 45.8541C66.4442 45.6036 68.3578 47.138 68.6355 49.2988L74.3763 99.591C74.6232 101.752 73.1108 103.693 70.9812 103.975Z" fill="url(#paint6_linear)"/>
<path d="M69.2837 104.257L56.9689 105.635L33.9442 82.3363L36.8763 107.984L27.4318 109.111L20.7652 50.9898L30.2096 49.8624L33.1109 75.1965L44.0368 55.6557L55.0553 54.3405L41.722 76.9501L69.2837 104.257Z" fill="url(#paint7_linear)"/>
<path d="M194.191 64.6119L145.364 57.6286C143.173 57.3155 141.629 55.2487 141.938 53.0253L148.821 3.51587C149.129 1.29249 151.166 -0.273271 153.358 0.0398812L202.154 7.02318C204.345 7.33633 205.889 9.40314 205.58 11.6265L198.697 61.1359C198.419 63.3593 196.382 64.9251 194.191 64.6119Z" fill="url(#paint8_linear)"/>
<path d="M199.994 118.693L165.271 109.925C163.697 109.518 162.741 107.89 163.111 106.292L171.753 71.0628C172.154 69.4658 173.759 68.495 175.333 68.8708L210.055 77.639C211.629 78.0461 212.586 79.6745 212.216 81.2716L203.574 116.501C203.173 118.13 201.598 119.1 199.994 118.693Z" fill="url(#paint9_linear)"/>
<path d="M211.938 89.2883L188.728 83.8081L186.321 94.0169L198.358 96.8666L197.339 101.157L185.302 98.3071L183.79 104.758L205.21 109.8L204.16 114.09L177.771 107.827L184.253 80.3635C184.407 79.7372 184.716 79.2987 185.24 79.0169C185.734 78.7351 186.29 78.6724 186.876 78.829L212.957 84.9981L211.938 89.2883Z" fill="url(#paint10_linear)"/>
<path d="M159.037 49.8311C157.679 49.6432 156.938 48.5785 156.784 46.6683C156.629 44.7267 157.092 43.1923 158.234 42.0336L175.58 24.09L154.099 20.9584L155.024 14.3822L182.926 18.3906C184.284 18.5785 185.086 19.6432 185.364 21.5221C185.642 23.4324 185.148 25.0921 183.882 26.4699L166.629 44.1004L200.457 48.8916L199.531 55.5618L159.037 49.8311Z" fill="url(#paint11_linear)"/>
<path d="M248.018 66.8353L241.352 60.2278C240.827 59.6954 240.086 59.4136 239.345 59.4136L210.796 60.1025C210.055 60.1338 209.345 60.447 208.852 60.9793L202.524 67.8687L248.018 66.8353Z" fill="#E54039"/>
<path d="M130.673 34.8624L117.617 31.9501L119.129 25.0608L132.154 27.9731L130.673 34.8624Z" fill="url(#paint12_linear)"/>
<path d="M64.7158 111.616L54.7775 110.207C53.2343 109.988 52.0615 108.704 51.9689 107.138L49.8084 74.1631C49.6849 72.3781 50.9504 70.8436 52.7096 70.6244L62.7096 69.4344L64.7158 111.616Z" fill="#B8110E"/>
<path d="M121.845 3.82903L131.969 7.80606C132.617 8.05658 133.111 8.68289 133.203 9.37182L134.16 17.0127L124.808 14.9146L123.821 6.20898C123.481 4.45533 121.845 3.82903 121.845 3.82903Z" fill="#FF6941"/>
<path d="M128.296 45.7288L129.098 52.6808C129.284 55.3113 127.061 56.0002 127.061 56.0002L137 52.3677C137.864 52.0545 138.389 51.1777 138.296 50.2382L138.018 47.8583L128.296 45.7288Z" fill="#FF6941"/>
<path d="M197.555 63.4846C197.555 63.4846 196.29 64.8937 194.191 64.6119L146.136 57.7539C145.148 57.5973 143.728 57.5347 142.555 55.8123L146.66 61.8875C147.216 62.7017 148.08 63.234 149.037 63.3593L189.716 69.2152C190.703 69.3405 191.691 69.0274 192.401 68.3697L197.555 63.4846Z" fill="#B8110E"/>
<path d="M179.315 87.8791L142.278 83.9647L148.944 80.3322C149.5 80.019 150.148 79.8938 150.796 79.9564L173.543 82.1485C174.407 82.2424 175.24 82.6808 175.765 83.3698L179.315 87.8791Z" fill="#E08100"/>
<path d="M246.691 113.652L205.95 114.622C204.16 114.654 202.71 113.244 202.648 111.428L201.691 70.0921C201.66 68.2758 203.049 66.804 204.839 66.7413L245.58 65.7706C247.37 65.7392 248.821 67.1484 248.883 68.9647L249.839 110.301C249.87 112.117 248.481 113.62 246.691 113.652Z" fill="url(#paint13_linear)"/>
<path d="M237.432 113.871L224.068 91.9188L220.889 91.9814L221.444 114.247L215.487 114.403L214.592 75.2278C214.592 74.5075 214.808 73.8812 215.271 73.4115C215.734 72.9105 216.352 72.6599 217.061 72.6599L226.259 72.472C229.561 72.4094 232.123 73.2236 233.944 74.9773C235.765 76.6996 236.691 79.0482 236.753 82.0232C236.845 86.8771 234.685 89.9459 230.21 91.2612L244.376 113.746L237.432 113.871Z" fill="url(#paint14_linear)"/>
<path d="M173.512 126.522L140.426 123.359C138.728 123.203 137.494 121.668 137.648 119.946L140.765 86.376C140.92 84.6537 142.432 83.401 144.129 83.5576L177.216 86.7205C178.913 86.877 180.148 88.4115 179.994 90.1338L176.876 123.704C176.691 125.426 175.21 126.679 173.512 126.522Z" fill="url(#paint15_linear)"/>
<path d="M147.71 115.812L149.839 93.4532C149.901 92.8582 150.148 92.4198 150.58 92.0754C151.012 91.7622 151.537 91.6056 152.123 91.6683L159.222 92.3572C161.598 92.5764 163.636 93.3593 165.333 94.6432C167.031 95.9271 168.234 97.5242 168.944 99.4345C169.654 101.345 169.932 103.38 169.716 105.572C169.376 109.017 168.08 111.804 165.765 113.965C163.45 116.125 160.487 117.034 156.876 116.689L147.71 115.812Z" fill="url(#paint16_linear)"/>
<path d="M99.6849 109.768L65.364 111.647C63.3578 111.773 61.6294 110.176 61.5059 108.14L59.6541 73.3175C59.5306 71.2821 61.1047 69.5284 63.1109 69.4031L97.4319 67.5242C99.438 67.399 101.166 68.996 101.29 71.0315L103.142 105.854C103.265 107.89 101.722 109.643 99.6849 109.768Z" fill="url(#paint17_linear)"/>
<path d="M78.7898 110.896L77.3084 85.2173L84.901 84.8102L86.3824 110.489L78.7898 110.896Z" fill="url(#paint18_linear)"/>
<path d="M84.7775 81.4908L77.1849 81.8979L76.7837 74.1944L84.3763 73.7873L84.7775 81.4908Z" fill="url(#paint19_linear)"/>
<path d="M10.5253 149.724C10.1206 149.724 9.80844 149.613 9.58877 149.39C9.3691 149.167 9.25926 148.85 9.25926 148.44V138.586C9.25926 138.175 9.38066 137.847 9.62346 137.601C9.86625 137.354 10.1958 137.231 10.612 137.231C11.0282 137.231 11.3577 137.354 11.6005 137.601C11.8433 137.847 11.9647 138.175 11.9647 138.586V147.49H16.4044C17.2484 147.49 17.6704 147.865 17.6704 148.616C17.6704 149.355 17.2484 149.724 16.4044 149.724H10.5253Z" fill="url(#paint20_linear)"/>
<path d="M20.2974 149.724C19.8927 149.724 19.5806 149.613 19.3609 149.39C19.1412 149.167 19.0314 148.85 19.0314 148.44V138.604C19.0314 138.193 19.1412 137.876 19.3609 137.653C19.5806 137.431 19.8927 137.319 20.2974 137.319H26.4367C27.2922 137.319 27.72 137.671 27.72 138.375C27.72 139.09 27.2922 139.448 26.4367 139.448H21.6675V142.352H26.0898C26.9454 142.352 27.3732 142.709 27.3732 143.425C27.3732 144.129 26.9454 144.481 26.0898 144.481H21.6675V147.595H26.4367C27.2922 147.595 27.72 147.953 27.72 148.669C27.72 149.372 27.2922 149.724 26.4367 149.724H20.2974Z" fill="url(#paint21_linear)"/>
<path d="M40.5363 148.053C40.6288 148.264 40.675 148.452 40.675 148.616C40.675 148.944 40.5421 149.226 40.2762 149.46C40.0218 149.683 39.727 149.795 39.3917 149.795C39.172 149.795 38.9639 149.736 38.7674 149.619C38.5708 149.49 38.4205 149.302 38.3165 149.056L37.3973 146.979H31.5182L30.599 149.056C30.495 149.302 30.3447 149.49 30.1481 149.619C29.9631 149.736 29.755 149.795 29.5238 149.795C29.1885 149.795 28.8879 149.683 28.622 149.46C28.356 149.226 28.2231 148.944 28.2231 148.616C28.2231 148.452 28.2693 148.264 28.3618 148.053L33.0443 138.076C33.1715 137.794 33.3623 137.583 33.6166 137.442C33.871 137.29 34.1427 137.214 34.4317 137.214C34.7323 137.214 35.0098 137.29 35.2642 137.442C35.5185 137.595 35.7151 137.806 35.8538 138.076L40.5363 148.053ZM36.4781 144.903L34.4664 140.328L32.4373 144.903H36.4781Z" fill="url(#paint22_linear)"/>
<path d="M52.1901 147.982C52.3635 148.24 52.4502 148.493 52.4502 148.739C52.4502 149.067 52.3173 149.337 52.0514 149.548C51.797 149.76 51.4964 149.865 51.1495 149.865C50.9299 149.865 50.716 149.812 50.5079 149.707C50.2998 149.601 50.1263 149.437 49.9876 149.214L47.6984 145.765C47.5018 145.46 47.2937 145.243 47.074 145.114C46.8544 144.973 46.5769 144.903 46.2416 144.903H44.8369V148.457C44.8369 148.88 44.7155 149.214 44.4727 149.46C44.2414 149.707 43.9235 149.83 43.5188 149.83C43.1026 149.83 42.7731 149.707 42.5303 149.46C42.2875 149.214 42.1661 148.88 42.1661 148.457V138.604C42.1661 138.193 42.2759 137.876 42.4956 137.653C42.7153 137.431 43.0274 137.319 43.4321 137.319H47.7851C49.2187 137.319 50.2998 137.642 51.0281 138.287C51.7681 138.92 52.1381 139.841 52.1381 141.049C52.1381 142 51.8779 142.791 51.3577 143.425C50.8374 144.058 50.1032 144.475 49.1552 144.674C49.502 144.745 49.8084 144.885 50.0743 145.097C50.3518 145.296 50.6177 145.589 50.8721 145.976L52.1901 147.982ZM47.3862 142.827C48.1608 142.827 48.7216 142.692 49.0684 142.422C49.4153 142.14 49.5887 141.706 49.5887 141.12C49.5887 140.522 49.4153 140.088 49.0684 139.818C48.7216 139.548 48.1608 139.413 47.3862 139.413H44.8022V142.827H47.3862Z" fill="url(#paint23_linear)"/>
<path d="M63.6565 137.231C64.0381 137.231 64.3444 137.36 64.5757 137.618C64.8185 137.865 64.9399 138.187 64.9399 138.586V148.457C64.9399 148.868 64.8185 149.202 64.5757 149.46C64.3444 149.707 64.0381 149.83 63.6565 149.83C63.2403 149.83 62.905 149.677 62.6506 149.372L56.8409 141.824V148.457C56.8409 148.868 56.7253 149.202 56.494 149.46C56.2744 149.707 55.9738 149.83 55.5922 149.83C55.2107 149.83 54.9043 149.707 54.6731 149.46C54.4418 149.202 54.3262 148.868 54.3262 148.457V138.586C54.3262 138.187 54.4418 137.865 54.6731 137.618C54.9159 137.36 55.228 137.231 55.6096 137.231C56.0373 137.231 56.3669 137.384 56.5981 137.689L62.4079 145.185V138.586C62.4079 138.187 62.5235 137.865 62.7547 137.618C62.9859 137.36 63.2865 137.231 63.6565 137.231Z" fill="url(#paint24_linear)"/>
<path d="M68.7197 149.83C68.3035 149.83 67.974 149.707 67.7312 149.46C67.4884 149.214 67.367 148.88 67.367 148.457V138.586C67.367 138.175 67.4884 137.847 67.7312 137.601C67.974 137.354 68.3035 137.231 68.7197 137.231C69.1359 137.231 69.4655 137.354 69.7083 137.601C69.9511 137.847 70.0724 138.175 70.0724 138.586V148.457C70.0724 148.88 69.9511 149.214 69.7083 149.46C69.4655 149.707 69.1359 149.83 68.7197 149.83Z" fill="url(#paint25_linear)"/>
<path d="M81.8289 137.231C82.2105 137.231 82.5169 137.36 82.7481 137.618C82.9909 137.865 83.1123 138.187 83.1123 138.586V148.457C83.1123 148.868 82.9909 149.202 82.7481 149.46C82.5169 149.707 82.2105 149.83 81.8289 149.83C81.4127 149.83 81.0774 149.677 80.8231 149.372L75.0133 141.824V148.457C75.0133 148.868 74.8977 149.202 74.6665 149.46C74.4468 149.707 74.1462 149.83 73.7647 149.83C73.3831 149.83 73.0767 149.707 72.8455 149.46C72.6143 149.202 72.4986 148.868 72.4986 148.457V138.586C72.4986 138.187 72.6143 137.865 72.8455 137.618C73.0883 137.36 73.4005 137.231 73.782 137.231C74.2098 137.231 74.5393 137.384 74.7705 137.689L80.5803 145.185V138.586C80.5803 138.187 80.6959 137.865 80.9271 137.618C81.1584 137.36 81.459 137.231 81.8289 137.231Z" fill="url(#paint26_linear)"/>
<path d="M94.9911 142.879C95.3149 142.879 95.5692 142.973 95.7542 143.161C95.9508 143.337 96.049 143.583 96.049 143.9V147.331C96.049 147.8 96.0086 148.164 95.9276 148.422C95.8583 148.68 95.7311 148.886 95.5461 149.038C95.3611 149.191 95.0836 149.32 94.7137 149.425C94.2627 149.566 93.7425 149.677 93.1528 149.76C92.5747 149.842 92.0256 149.883 91.5053 149.883C90.2104 149.883 89.0889 149.63 88.1408 149.126C87.1928 148.61 86.4644 147.877 85.9557 146.927C85.447 145.965 85.1926 144.827 85.1926 143.513C85.1926 142.223 85.4412 141.102 85.9383 140.152C86.447 139.19 87.1696 138.451 88.1061 137.935C89.0426 137.419 90.1352 137.161 91.3839 137.161C92.991 137.161 94.3206 137.583 95.3727 138.428C95.5461 138.568 95.6675 138.709 95.7369 138.85C95.8062 138.991 95.8409 139.167 95.8409 139.378C95.8409 139.683 95.7542 139.947 95.5808 140.17C95.4189 140.381 95.2224 140.486 94.9911 140.486C94.8408 140.486 94.7021 140.463 94.5749 140.416C94.4593 140.369 94.3148 140.293 94.1413 140.187C93.6558 139.882 93.2106 139.665 92.806 139.536C92.4013 139.407 91.9562 139.343 91.4706 139.343C89.112 139.343 87.9327 140.733 87.9327 143.513C87.9327 144.944 88.2391 146.012 88.8519 146.715C89.4646 147.419 90.3896 147.771 91.6267 147.771C92.2973 147.771 92.9621 147.683 93.6211 147.507V144.78H92.0256C91.6903 144.78 91.4301 144.698 91.2451 144.533C91.0602 144.369 90.9677 144.135 90.9677 143.83C90.9677 143.525 91.0602 143.29 91.2451 143.126C91.4301 142.962 91.6903 142.879 92.0256 142.879H94.9911Z" fill="url(#paint27_linear)"/>
<path d="M104.54 149.83C104.123 149.83 103.794 149.707 103.551 149.46C103.308 149.214 103.187 148.88 103.187 148.457V138.586C103.187 138.175 103.308 137.847 103.551 137.601C103.794 137.354 104.123 137.231 104.54 137.231C104.956 137.231 105.285 137.354 105.528 137.601C105.771 137.847 105.892 138.175 105.892 138.586V148.457C105.892 148.88 105.771 149.214 105.528 149.46C105.285 149.707 104.956 149.83 104.54 149.83Z" fill="url(#paint28_linear)"/>
<path d="M112.724 149.883C111.81 149.883 110.96 149.777 110.174 149.566C109.388 149.343 108.746 149.032 108.249 148.633C108.076 148.504 107.949 148.369 107.868 148.229C107.798 148.076 107.764 147.888 107.764 147.666C107.764 147.372 107.85 147.114 108.024 146.891C108.209 146.668 108.417 146.557 108.648 146.557C108.775 146.557 108.897 146.58 109.012 146.627C109.139 146.663 109.29 146.733 109.463 146.839C109.96 147.155 110.463 147.39 110.972 147.542C111.481 147.683 112.041 147.754 112.654 147.754C113.417 147.754 114.001 147.625 114.406 147.366C114.81 147.108 115.013 146.739 115.013 146.258C115.013 145.894 114.822 145.601 114.44 145.378C114.07 145.155 113.406 144.944 112.446 144.745C111.371 144.522 110.509 144.252 109.862 143.935C109.226 143.618 108.758 143.226 108.457 142.756C108.168 142.287 108.024 141.718 108.024 141.049C108.024 140.31 108.232 139.648 108.648 139.061C109.076 138.463 109.66 138 110.4 137.671C111.151 137.331 111.995 137.161 112.932 137.161C114.573 137.161 115.926 137.577 116.99 138.41C117.163 138.551 117.285 138.697 117.354 138.85C117.435 138.991 117.475 139.167 117.475 139.378C117.475 139.671 117.383 139.929 117.198 140.152C117.024 140.375 116.822 140.486 116.591 140.486C116.464 140.486 116.342 140.469 116.227 140.434C116.123 140.398 115.972 140.322 115.776 140.205C115.302 139.9 114.862 139.671 114.458 139.519C114.065 139.366 113.562 139.29 112.949 139.29C112.244 139.29 111.689 139.431 111.284 139.712C110.879 139.982 110.677 140.357 110.677 140.838C110.677 141.12 110.752 141.354 110.903 141.542C111.064 141.718 111.325 141.876 111.683 142.017C112.053 142.158 112.573 142.305 113.244 142.457C114.816 142.809 115.943 143.261 116.626 143.812C117.319 144.363 117.666 145.12 117.666 146.082C117.666 146.833 117.458 147.495 117.042 148.07C116.637 148.645 116.059 149.091 115.308 149.408C114.568 149.724 113.706 149.883 112.724 149.883Z" fill="url(#paint29_linear)"/>
<path d="M125.811 149.83C125.407 149.83 125.077 149.707 124.823 149.46C124.58 149.202 124.459 148.868 124.459 148.457V138.604C124.459 138.193 124.568 137.876 124.788 137.653C125.008 137.431 125.32 137.319 125.725 137.319H131.69C132.13 137.319 132.454 137.407 132.662 137.583C132.87 137.759 132.974 138.035 132.974 138.41C132.974 138.774 132.87 139.044 132.662 139.219C132.454 139.395 132.13 139.483 131.69 139.483H127.129V142.334H131.344C131.783 142.334 132.107 142.422 132.315 142.598C132.523 142.774 132.627 143.05 132.627 143.425C132.627 143.789 132.523 144.058 132.315 144.234C132.107 144.41 131.783 144.498 131.344 144.498H127.129V148.457C127.129 148.88 127.008 149.214 126.765 149.46C126.534 149.707 126.216 149.83 125.811 149.83Z" fill="url(#paint30_linear)"/>
<path d="M139.569 149.883C137.857 149.883 136.551 149.437 135.649 148.545C134.759 147.642 134.314 146.328 134.314 144.604V138.586C134.314 138.175 134.435 137.847 134.678 137.601C134.921 137.354 135.244 137.231 135.649 137.231C136.054 137.231 136.372 137.354 136.603 137.601C136.846 137.847 136.967 138.175 136.967 138.586V144.727C136.967 145.712 137.187 146.463 137.626 146.979C138.077 147.495 138.725 147.754 139.569 147.754C140.413 147.754 141.06 147.495 141.511 146.979C141.962 146.451 142.187 145.701 142.187 144.727V138.586C142.187 138.175 142.303 137.847 142.534 137.601C142.777 137.354 143.101 137.231 143.505 137.231C143.91 137.231 144.234 137.354 144.477 137.601C144.719 137.847 144.841 138.175 144.841 138.586V144.604C144.841 146.317 144.39 147.625 143.488 148.528C142.586 149.431 141.28 149.883 139.569 149.883Z" fill="url(#paint31_linear)"/>
<path d="M156.534 137.231C156.916 137.231 157.222 137.36 157.453 137.618C157.696 137.865 157.817 138.187 157.817 138.586V148.457C157.817 148.868 157.696 149.202 157.453 149.46C157.222 149.707 156.916 149.83 156.534 149.83C156.118 149.83 155.783 149.677 155.528 149.372L149.718 141.824V148.457C149.718 148.868 149.603 149.202 149.372 149.46C149.152 149.707 148.851 149.83 148.47 149.83C148.088 149.83 147.782 149.707 147.551 149.46C147.319 149.202 147.204 148.868 147.204 148.457V138.586C147.204 138.187 147.319 137.865 147.551 137.618C147.793 137.36 148.106 137.231 148.487 137.231C148.915 137.231 149.244 137.384 149.476 137.689L155.285 145.185V138.586C155.285 138.187 155.401 137.865 155.632 137.618C155.863 137.36 156.164 137.231 156.534 137.231Z" fill="url(#paint32_linear)"/>
<path d="M180.246 138.058C180.35 137.777 180.506 137.565 180.714 137.425C180.934 137.272 181.176 137.196 181.442 137.196C181.778 137.196 182.061 137.302 182.292 137.513C182.535 137.724 182.656 138.011 182.656 138.375C182.656 138.551 182.622 138.744 182.552 138.956L178.945 148.968C178.841 149.249 178.656 149.472 178.39 149.636C178.136 149.789 177.852 149.865 177.54 149.865C177.228 149.865 176.945 149.789 176.69 149.636C176.436 149.472 176.257 149.249 176.153 148.968L173.569 141.56L170.915 148.968C170.811 149.249 170.632 149.472 170.378 149.636C170.123 149.789 169.84 149.865 169.528 149.865C169.227 149.865 168.944 149.789 168.678 149.636C168.424 149.472 168.245 149.249 168.141 148.968L164.533 138.956C164.464 138.756 164.429 138.568 164.429 138.392C164.429 138.029 164.556 137.741 164.811 137.53C165.065 137.307 165.366 137.196 165.713 137.196C165.99 137.196 166.239 137.272 166.458 137.425C166.69 137.565 166.857 137.777 166.961 138.058L169.632 145.853L172.407 138.093C172.511 137.812 172.673 137.595 172.892 137.442C173.124 137.29 173.366 137.214 173.621 137.214C173.887 137.214 174.13 137.29 174.349 137.442C174.569 137.595 174.731 137.818 174.835 138.111L177.488 145.994L180.246 138.058Z" fill="url(#paint33_linear)"/>
<path d="M185.782 149.83C185.366 149.83 185.036 149.707 184.794 149.46C184.551 149.214 184.429 148.88 184.429 148.457V138.586C184.429 138.175 184.551 137.847 184.794 137.601C185.036 137.354 185.366 137.231 185.782 137.231C186.198 137.231 186.528 137.354 186.771 137.601C187.013 137.847 187.135 138.175 187.135 138.586V148.457C187.135 148.88 187.013 149.214 186.771 149.46C186.528 149.707 186.198 149.83 185.782 149.83Z" fill="url(#paint34_linear)"/>
<path d="M193.741 149.812C193.336 149.812 193.006 149.689 192.752 149.443C192.509 149.196 192.388 148.868 192.388 148.457V139.554H189.578C188.723 139.554 188.295 139.178 188.295 138.428C188.295 137.689 188.723 137.319 189.578 137.319H197.903C198.758 137.319 199.186 137.689 199.186 138.428C199.186 139.178 198.758 139.554 197.903 139.554H195.093V148.457C195.093 148.868 194.972 149.196 194.729 149.443C194.486 149.689 194.157 149.812 193.741 149.812Z" fill="url(#paint35_linear)"/>
<path d="M209.957 137.231C210.362 137.231 210.685 137.354 210.928 137.601C211.171 137.847 211.292 138.175 211.292 138.586V148.457C211.292 148.868 211.171 149.202 210.928 149.46C210.685 149.707 210.362 149.83 209.957 149.83C209.552 149.83 209.229 149.707 208.986 149.46C208.755 149.214 208.639 148.88 208.639 148.457V144.516H203.003V148.457C203.003 148.868 202.881 149.202 202.638 149.46C202.396 149.707 202.078 149.83 201.685 149.83C201.28 149.83 200.956 149.707 200.713 149.46C200.471 149.214 200.349 148.88 200.349 148.457V138.586C200.349 138.175 200.471 137.847 200.713 137.601C200.956 137.354 201.28 137.231 201.685 137.231C202.089 137.231 202.407 137.354 202.638 137.601C202.881 137.847 203.003 138.175 203.003 138.586V142.334H208.639V138.586C208.639 138.175 208.755 137.847 208.986 137.601C209.229 137.354 209.552 137.231 209.957 137.231Z" fill="url(#paint36_linear)"/>
<path d="M223.758 149.883C222.047 149.883 220.74 149.437 219.839 148.545C218.948 147.642 218.503 146.328 218.503 144.604V138.586C218.503 138.175 218.625 137.847 218.867 137.601C219.11 137.354 219.434 137.231 219.839 137.231C220.243 137.231 220.561 137.354 220.792 137.601C221.035 137.847 221.157 138.175 221.157 138.586V144.727C221.157 145.712 221.376 146.463 221.816 146.979C222.266 147.495 222.914 147.754 223.758 147.754C224.602 147.754 225.249 147.495 225.7 146.979C226.151 146.451 226.377 145.701 226.377 144.727V138.586C226.377 138.175 226.492 137.847 226.723 137.601C226.966 137.354 227.29 137.231 227.695 137.231C228.099 137.231 228.423 137.354 228.666 137.601C228.909 137.847 229.03 138.175 229.03 138.586V144.604C229.03 146.317 228.579 147.625 227.677 148.528C226.776 149.431 225.469 149.883 223.758 149.883Z" fill="url(#paint37_linear)"/>
<path d="M235.798 149.883C234.885 149.883 234.035 149.777 233.249 149.566C232.463 149.343 231.821 149.032 231.324 148.633C231.15 148.504 231.023 148.369 230.942 148.229C230.873 148.076 230.838 147.888 230.838 147.666C230.838 147.372 230.925 147.114 231.098 146.891C231.283 146.668 231.491 146.557 231.723 146.557C231.85 146.557 231.971 146.58 232.087 146.627C232.214 146.663 232.364 146.733 232.538 146.839C233.035 147.155 233.538 147.39 234.047 147.542C234.555 147.683 235.116 147.754 235.729 147.754C236.492 147.754 237.076 147.625 237.48 147.366C237.885 147.108 238.087 146.739 238.087 146.258C238.087 145.894 237.897 145.601 237.515 145.378C237.145 145.155 236.48 144.944 235.521 144.745C234.445 144.522 233.584 144.252 232.937 143.935C232.301 143.618 231.832 143.226 231.532 142.756C231.243 142.287 231.098 141.718 231.098 141.049C231.098 140.31 231.306 139.648 231.723 139.061C232.15 138.463 232.734 138 233.474 137.671C234.226 137.331 235.07 137.161 236.006 137.161C237.648 137.161 239.001 137.577 240.064 138.41C240.238 138.551 240.359 138.697 240.429 138.85C240.51 138.991 240.55 139.167 240.55 139.378C240.55 139.671 240.457 139.929 240.272 140.152C240.099 140.375 239.897 140.486 239.666 140.486C239.538 140.486 239.417 140.469 239.301 140.434C239.197 140.398 239.047 140.322 238.85 140.205C238.376 139.9 237.937 139.671 237.532 139.519C237.139 139.366 236.636 139.29 236.024 139.29C235.318 139.29 234.763 139.431 234.359 139.712C233.954 139.982 233.752 140.357 233.752 140.838C233.752 141.12 233.827 141.354 233.977 141.542C234.139 141.718 234.399 141.876 234.758 142.017C235.128 142.158 235.648 142.305 236.318 142.457C237.891 142.809 239.018 143.261 239.7 143.812C240.394 144.363 240.741 145.12 240.741 146.082C240.741 146.833 240.533 147.495 240.116 148.07C239.712 148.645 239.134 149.091 238.382 149.408C237.642 149.724 236.781 149.883 235.798 149.883Z" fill="url(#paint38_linear)"/>
<defs>
<linearGradient id="paint0_linear" x1="102.226" y1="63.9477" x2="148.404" y2="65.4174" gradientUnits="userSpaceOnUse">
<stop offset="0.0489691" stop-color="#3DE5A4"/>
<stop offset="1" stop-color="#4D8665"/>
</linearGradient>
<linearGradient id="paint1_linear" x1="102.904" y1="68.4775" x2="140.629" y2="105.513" gradientUnits="userSpaceOnUse">
<stop stop-color="#2A9092"/>
<stop offset="0.951" stop-color="#6FB186"/>
</linearGradient>
<linearGradient id="paint2_linear" x1="118.136" y1="70.805" x2="134.623" y2="116.956" gradientUnits="userSpaceOnUse">
<stop stop-color="white"/>
<stop offset="0.1978" stop-color="#FBFEFD"/>
<stop offset="0.3725" stop-color="#F1FAF9"/>
<stop offset="0.5385" stop-color="#DFF4F0"/>
<stop offset="0.6991" stop-color="#C5EBE5"/>
<stop offset="0.8544" stop-color="#A5DFD6"/>
<stop offset="1" stop-color="#7FD2C5"/>
</linearGradient>
<linearGradient id="paint3_linear" x1="127.198" y1="43.4086" x2="62.666" y2="17.9478" gradientUnits="userSpaceOnUse">
<stop stop-color="#FCC900"/>
<stop offset="1" stop-color="#F0445F"/>
</linearGradient>
<linearGradient id="paint4_linear" x1="92.824" y1="16.1283" x2="98.5279" y2="58.1689" gradientUnits="userSpaceOnUse">
<stop stop-color="white"/>
<stop offset="0.2389" stop-color="#FFFBFA"/>
<stop offset="0.5041" stop-color="#FFEFED"/>
<stop offset="0.7808" stop-color="#FFDBD7"/>
<stop offset="1" stop-color="#FFC7C0"/>
</linearGradient>
<linearGradient id="paint5_linear" x1="139.361" y1="49.4855" x2="113.337" y2="15.3668" gradientUnits="userSpaceOnUse">
<stop offset="0.0850515" stop-color="#01B8E2"/>
<stop offset="0.9588" stop-color="#B866E2"/>
</linearGradient>
<linearGradient id="paint6_linear" x1="6.83898" y1="49.3659" x2="64.2256" y2="93.4219" gradientUnits="userSpaceOnUse">
<stop offset="0.0850515" stop-color="#01B8E2"/>
<stop offset="0.9588" stop-color="#B866E2"/>
</linearGradient>
<linearGradient id="paint7_linear" x1="21.39" y1="73.4265" x2="58.502" y2="88.5346" gradientUnits="userSpaceOnUse">
<stop stop-color="white"/>
<stop offset="0.1868" stop-color="#FBFAFD"/>
<stop offset="0.3941" stop-color="#EEEDF8"/>
<stop offset="0.6114" stop-color="#D9D7EE"/>
<stop offset="0.834" stop-color="#BCB8E2"/>
<stop offset="1" stop-color="#A29CD6"/>
</linearGradient>
<linearGradient id="paint8_linear" x1="135.765" y1="60.6549" x2="203.718" y2="11.4754" gradientUnits="userSpaceOnUse">
<stop stop-color="#D11F36"/>
<stop offset="1" stop-color="#E2688D"/>
</linearGradient>
<linearGradient id="paint9_linear" x1="173.933" y1="72.3628" x2="198.056" y2="108.938" gradientUnits="userSpaceOnUse">
<stop offset="0.0850515" stop-color="#01B8E2"/>
<stop offset="0.9588" stop-color="#B866E2"/>
</linearGradient>
<linearGradient id="paint10_linear" x1="180.217" y1="98.9618" x2="210.128" y2="93.9692" gradientUnits="userSpaceOnUse">
<stop stop-color="white"/>
<stop offset="0.1868" stop-color="#FBFAFD"/>
<stop offset="0.3941" stop-color="#EEEDF8"/>
<stop offset="0.6114" stop-color="#D9D7EE"/>
<stop offset="0.834" stop-color="#BCB8E2"/>
<stop offset="1" stop-color="#A29CD6"/>
</linearGradient>
<linearGradient id="paint11_linear" x1="155.919" y1="21.5826" x2="195.419" y2="53.4642" gradientUnits="userSpaceOnUse">
<stop stop-color="white"/>
<stop offset="0.2205" stop-color="#FFFAFC"/>
<stop offset="0.4652" stop-color="#FFEDF5"/>
<stop offset="0.7216" stop-color="#FFD7E8"/>
<stop offset="0.9846" stop-color="#FFB8D7"/>
<stop offset="1" stop-color="#FFB6D6"/>
</linearGradient>
<linearGradient id="paint12_linear" x1="119.437" y1="25.7644" x2="132.833" y2="35.7668" gradientUnits="userSpaceOnUse">
<stop stop-color="white"/>
<stop offset="0.1868" stop-color="#FBFAFD"/>
<stop offset="0.3941" stop-color="#EEEDF8"/>
<stop offset="0.6114" stop-color="#D9D7EE"/>
<stop offset="0.834" stop-color="#BCB8E2"/>
<stop offset="1" stop-color="#A29CD6"/>
</linearGradient>
<linearGradient id="paint13_linear" x1="200.596" y1="116.958" x2="252.2" y2="63.6579" gradientUnits="userSpaceOnUse">
<stop stop-color="#FCC900"/>
<stop offset="1" stop-color="#F0445F"/>
</linearGradient>
<linearGradient id="paint14_linear" x1="211.324" y1="75.2142" x2="233.603" y2="106.375" gradientUnits="userSpaceOnUse">
<stop stop-color="white"/>
<stop offset="0.2389" stop-color="#FFFBFA"/>
<stop offset="0.5041" stop-color="#FFEFED"/>
<stop offset="0.7808" stop-color="#FFDBD7"/>
<stop offset="1" stop-color="#FFC7C0"/>
</linearGradient>
<linearGradient id="paint15_linear" x1="144.088" y1="85.6583" x2="173.551" y2="123.318" gradientUnits="userSpaceOnUse">
<stop stop-color="#FCC900"/>
<stop offset="1" stop-color="#F0445F"/>
</linearGradient>
<linearGradient id="paint16_linear" x1="149.873" y1="97.2188" x2="164.085" y2="113.4" gradientUnits="userSpaceOnUse">
<stop stop-color="white"/>
<stop offset="0.2389" stop-color="#FFFBFA"/>
<stop offset="0.5041" stop-color="#FFEFED"/>
<stop offset="0.7808" stop-color="#FFDBD7"/>
<stop offset="1" stop-color="#FFC7C0"/>
</linearGradient>
<linearGradient id="paint17_linear" x1="104.208" y1="109.22" x2="70.1759" y2="80.7508" gradientUnits="userSpaceOnUse">
<stop stop-color="#D11F36"/>
<stop offset="0.951" stop-color="#EC4A88"/>
</linearGradient>
<linearGradient id="paint18_linear" x1="77.3121" y1="97.8537" x2="86.3741" y2="97.8537" gradientUnits="userSpaceOnUse">
<stop stop-color="white"/>
<stop offset="0.2205" stop-color="#FFFAFC"/>
<stop offset="0.4652" stop-color="#FFEDF5"/>
<stop offset="0.7216" stop-color="#FFD7E8"/>
<stop offset="0.9846" stop-color="#FFB8D7"/>
<stop offset="1" stop-color="#FFB6D6"/>
</linearGradient>
<linearGradient id="paint19_linear" x1="80.6815" y1="74.6639" x2="81.674" y2="104.253" gradientUnits="userSpaceOnUse">
<stop stop-color="white"/>
<stop offset="0.2205" stop-color="#FFFAFC"/>
<stop offset="0.4652" stop-color="#FFEDF5"/>
<stop offset="0.7216" stop-color="#FFD7E8"/>
<stop offset="0.9846" stop-color="#FFB8D7"/>
<stop offset="1" stop-color="#FFB6D6"/>
</linearGradient>
<linearGradient id="paint20_linear" x1="7.96411" y1="131.808" x2="241.544" y2="131.808" gradientUnits="userSpaceOnUse">
<stop stop-color="#14AFE2"/>
<stop offset="1" stop-color="#AB6BE2"/>
</linearGradient>
<linearGradient id="paint21_linear" x1="7.96411" y1="131.808" x2="241.544" y2="131.808" gradientUnits="userSpaceOnUse">
<stop stop-color="#14AFE2"/>
<stop offset="1" stop-color="#AB6BE2"/>
</linearGradient>
<linearGradient id="paint22_linear" x1="7.96411" y1="131.808" x2="241.544" y2="131.808" gradientUnits="userSpaceOnUse">
<stop stop-color="#14AFE2"/>
<stop offset="1" stop-color="#AB6BE2"/>
</linearGradient>
<linearGradient id="paint23_linear" x1="7.96411" y1="131.808" x2="241.544" y2="131.808" gradientUnits="userSpaceOnUse">
<stop stop-color="#14AFE2"/>
<stop offset="1" stop-color="#AB6BE2"/>
</linearGradient>
<linearGradient id="paint24_linear" x1="7.96411" y1="131.808" x2="241.544" y2="131.808" gradientUnits="userSpaceOnUse">
<stop stop-color="#14AFE2"/>
<stop offset="1" stop-color="#AB6BE2"/>
</linearGradient>
<linearGradient id="paint25_linear" x1="7.96411" y1="131.808" x2="241.544" y2="131.808" gradientUnits="userSpaceOnUse">
<stop stop-color="#14AFE2"/>
<stop offset="1" stop-color="#AB6BE2"/>
</linearGradient>
<linearGradient id="paint26_linear" x1="7.96411" y1="131.808" x2="241.544" y2="131.808" gradientUnits="userSpaceOnUse">
<stop stop-color="#14AFE2"/>
<stop offset="1" stop-color="#AB6BE2"/>
</linearGradient>
<linearGradient id="paint27_linear" x1="7.96411" y1="131.808" x2="241.544" y2="131.808" gradientUnits="userSpaceOnUse">
<stop stop-color="#14AFE2"/>
<stop offset="1" stop-color="#AB6BE2"/>
</linearGradient>
<linearGradient id="paint28_linear" x1="7.96411" y1="131.808" x2="241.544" y2="131.808" gradientUnits="userSpaceOnUse">
<stop stop-color="#14AFE2"/>
<stop offset="1" stop-color="#AB6BE2"/>
</linearGradient>
<linearGradient id="paint29_linear" x1="7.96411" y1="131.808" x2="241.544" y2="131.808" gradientUnits="userSpaceOnUse">
<stop stop-color="#14AFE2"/>
<stop offset="1" stop-color="#AB6BE2"/>
</linearGradient>
<linearGradient id="paint30_linear" x1="7.96411" y1="131.808" x2="241.544" y2="131.808" gradientUnits="userSpaceOnUse">
<stop stop-color="#14AFE2"/>
<stop offset="1" stop-color="#AB6BE2"/>
</linearGradient>
<linearGradient id="paint31_linear" x1="7.96411" y1="131.808" x2="241.544" y2="131.808" gradientUnits="userSpaceOnUse">
<stop stop-color="#14AFE2"/>
<stop offset="1" stop-color="#AB6BE2"/>
</linearGradient>
<linearGradient id="paint32_linear" x1="7.96411" y1="131.808" x2="241.544" y2="131.808" gradientUnits="userSpaceOnUse">
<stop stop-color="#14AFE2"/>
<stop offset="1" stop-color="#AB6BE2"/>
</linearGradient>
<linearGradient id="paint33_linear" x1="7.96411" y1="131.808" x2="241.544" y2="131.808" gradientUnits="userSpaceOnUse">
<stop stop-color="#14AFE2"/>
<stop offset="1" stop-color="#AB6BE2"/>
</linearGradient>
<linearGradient id="paint34_linear" x1="7.96411" y1="131.808" x2="241.544" y2="131.808" gradientUnits="userSpaceOnUse">
<stop stop-color="#14AFE2"/>
<stop offset="1" stop-color="#AB6BE2"/>
</linearGradient>
<linearGradient id="paint35_linear" x1="7.96411" y1="131.808" x2="241.544" y2="131.808" gradientUnits="userSpaceOnUse">
<stop stop-color="#14AFE2"/>
<stop offset="1" stop-color="#AB6BE2"/>
</linearGradient>
<linearGradient id="paint36_linear" x1="7.96411" y1="131.808" x2="241.544" y2="131.808" gradientUnits="userSpaceOnUse">
<stop stop-color="#14AFE2"/>
<stop offset="1" stop-color="#AB6BE2"/>
</linearGradient>
<linearGradient id="paint37_linear" x1="7.96411" y1="131.808" x2="241.544" y2="131.808" gradientUnits="userSpaceOnUse">
<stop stop-color="#14AFE2"/>
<stop offset="1" stop-color="#AB6BE2"/>
</linearGradient>
<linearGradient id="paint38_linear" x1="7.96411" y1="131.808" x2="241.544" y2="131.808" gradientUnits="userSpaceOnUse">
<stop stop-color="#14AFE2"/>
<stop offset="1" stop-color="#AB6BE2"/>
</linearGradient>
</defs>
</svg>
