<svg width="160" height="96" viewBox="0 0 160 96" fill="none" xmlns="http://www.w3.org/2000/svg">
<path d="M12.7366 70.0578L8.31193 33.4618L0.963787 38.5612C0.292182 39.0412 -0.0831263 39.8411 0.0156392 40.681L2.95885 66.2782C3.07737 67.2181 3.74897 67.998 4.67737 68.218L12.7366 70.0578Z" fill="#0183D1"/>
<path d="M94.9292 43.0007L65.3193 43.6606L67.907 40.141C68.3811 39.5011 69.1119 39.1211 69.8823 39.1211L88.707 38.8212C89.2798 38.8212 89.8526 39.0011 90.307 39.3611L94.9292 43.0007Z" fill="url(#paint0_linear)"/>
<path d="M111.226 44.0406L108.184 52.5397L98.5638 51.7398L99.1959 49.1601C99.3145 48.7201 99.6305 48.3602 100.045 48.2002L111.226 44.0406Z" fill="#0183D1"/>
<path d="M94.0601 73.9573L67.3736 74.3973C66.1687 74.4173 65.1811 73.4374 65.1613 72.2175L64.7267 45.2005C64.707 43.9806 65.6749 42.9808 66.8798 42.9608L93.5662 42.5208C94.7712 42.5008 95.7588 43.4807 95.7786 44.7006L96.2131 71.7176C96.2329 72.9375 95.265 73.9373 94.0601 73.9573Z" fill="url(#paint1_linear)"/>
<path d="M83.4725 45.7204C85.5663 45.6804 87.2058 46.2404 88.4107 47.4003C89.6157 48.5401 90.228 50.1999 90.2675 52.3797L90.6033 74.0373L84.9935 74.1373L84.6774 53.7796C84.6577 52.5997 84.4206 51.7398 83.986 51.1798C83.5515 50.6399 82.8404 50.3799 81.8922 50.3799C80.2725 50.3999 78.5342 51.1598 76.7169 52.6197L76.9539 69.1179L71.265 69.2178L70.9095 46.4604L76.1638 46.3804L76.2033 48.5401C78.5539 46.7003 80.9836 45.7604 83.4725 45.7204Z" fill="url(#paint2_linear)"/>
<path d="M80.865 35.8815L51.6699 39.3012C50.5835 39.4212 49.5958 38.6412 49.4773 37.5414L46.0996 7.96461C45.981 6.86473 46.7514 5.86484 47.8378 5.74485L77.0329 2.32523C78.1193 2.20524 79.1069 2.98515 79.2255 4.08503L82.6032 33.6418C82.7415 34.7617 81.9514 35.7416 80.865 35.8815Z" fill="url(#paint3_linear)"/>
<path d="M71.1663 37.0214L67.4527 27.1225L58.6033 27.3824L54.9095 38.9212L51.67 39.3011C50.5638 39.4211 49.991 38.6612 49.991 38.6612L59.2354 10.7243C59.67 9.40442 60.7564 8.7245 62.4749 8.6645C64.2132 8.60451 65.3391 9.24444 65.8527 10.5643L76.0255 36.4415L71.1663 37.0214Z" fill="url(#paint4_linear)"/>
<path d="M86.9687 30.3021L68.8947 26.2626L72.8848 7.9646L90.9589 12.0042L86.9687 30.3021Z" fill="url(#paint5_linear)"/>
<path d="M91.2157 31.242L86.9688 30.3021L90.9589 12.0042L93.8033 12.6641L91.2157 31.242Z" fill="#0183D1"/>
<path d="M45.428 66.3982L13.7045 70.1377C12.3415 70.2977 11.1169 69.3178 10.9391 67.938L7.265 35.8215C7.10698 34.4417 8.07488 33.2018 9.43784 33.0218L41.1613 29.2822C42.5243 29.1223 43.749 30.1022 43.9267 31.482L47.6008 63.5985C47.7588 64.9783 46.7909 66.2182 45.428 66.3982Z" fill="url(#paint6_linear)"/>
<path d="M44.3416 66.5782L36.4601 67.4581L21.7243 52.5797L23.6008 68.9579L17.5564 69.6778L13.2897 32.5619L19.3342 31.842L21.191 48.0202L28.1836 35.5416L35.2354 34.7017L26.7021 49.1401L44.3416 66.5782Z" fill="url(#paint7_linear)"/>
<path d="M124.282 41.2609L93.0329 36.8014C91.6305 36.6014 90.6428 35.2816 90.8403 33.8617L95.2453 2.24522C95.4428 0.82538 96.7465 -0.17451 98.149 0.025468L129.379 4.48498C130.781 4.68496 131.769 6.00481 131.571 7.42465L127.166 39.0412C126.988 40.461 125.685 41.4609 124.282 41.2609Z" fill="url(#paint8_linear)"/>
<path d="M127.996 75.7971L105.774 70.1978C104.766 69.9378 104.154 68.8979 104.391 67.878L109.922 45.3805C110.179 44.3606 111.206 43.7407 112.213 43.9806L134.435 49.58C135.443 49.84 136.055 50.8799 135.818 51.8998L130.287 74.3973C130.03 75.4372 129.023 76.0571 127.996 75.7971Z" fill="url(#paint9_linear)"/>
<path d="M135.64 57.0192L120.786 53.5196L119.245 60.0389L126.949 61.8587L126.297 64.5984L118.593 62.7786L117.626 66.8981L131.334 70.1178L130.663 72.8575L113.774 68.8579L117.922 51.3198C118.021 50.9199 118.218 50.6399 118.554 50.4599C118.87 50.2799 119.226 50.24 119.601 50.3399L136.292 54.2795L135.64 57.0192Z" fill="url(#paint10_linear)"/>
<path d="M101.784 31.822C100.914 31.702 100.44 31.022 100.342 29.8022C100.243 28.5623 100.539 27.5824 101.27 26.8425L112.371 15.3838L98.623 13.384L99.2156 9.18445L117.072 11.7442C117.942 11.8642 118.455 12.5441 118.633 13.7439C118.811 14.9638 118.495 16.0237 117.685 16.9036L106.643 28.1624L128.292 31.222L127.7 35.4816L101.784 31.822Z" fill="url(#paint11_linear)"/>
<path d="M158.732 42.6808L154.465 38.4612C154.129 38.1213 153.655 37.9413 153.181 37.9413L134.909 38.3812C134.435 38.4012 133.981 38.6012 133.665 38.9412L129.616 43.3407L158.732 42.6808Z" fill="#E54039"/>
<path d="M83.6305 22.263L75.2749 20.4032L76.2428 16.0037L84.5786 17.8635L83.6305 22.263Z" fill="url(#paint12_linear)"/>
<path d="M41.4181 71.2776L35.0576 70.3777C34.07 70.2377 33.3194 69.4178 33.2601 68.4179L31.8774 47.3602C31.7984 46.2204 32.6083 45.2405 33.7342 45.1005L40.1342 44.3406L41.4181 71.2776Z" fill="#B8110E"/>
<path d="M77.9811 2.44519L84.4601 4.98491C84.8749 5.14489 85.191 5.54485 85.2502 5.9848L85.8626 10.8643L79.8774 9.52441L79.2453 3.96502C79.028 2.84515 77.9811 2.44519 77.9811 2.44519Z" fill="#FF6941"/>
<path d="M82.1095 29.2023L82.623 33.6418C82.7416 35.3216 81.3193 35.7616 81.3193 35.7616L87.6798 33.4418C88.2329 33.2418 88.5687 32.6819 88.5095 32.082L88.3317 30.5621L82.1095 29.2023Z" fill="#FF6941"/>
<path d="M126.435 40.541C126.435 40.541 125.626 41.4409 124.282 41.2609L93.5268 36.8814C92.8947 36.7814 91.986 36.7414 91.2354 35.6415L93.8626 39.5211C94.2181 40.0411 94.7712 40.381 95.3836 40.461L121.418 44.2006C122.05 44.2806 122.682 44.0806 123.137 43.6607L126.435 40.541Z" fill="#B8110E"/>
<path d="M114.761 56.1193L91.0576 53.6196L95.3243 51.2998C95.6798 51.0999 96.0947 51.0199 96.5095 51.0599L111.067 52.4597C111.621 52.5197 112.154 52.7997 112.49 53.2396L114.761 56.1193Z" fill="#E08100"/>
<path d="M157.882 72.5775L131.808 73.1974C130.663 73.2174 129.734 72.3175 129.695 71.1577L129.082 44.7606C129.063 43.6007 129.951 42.6608 131.097 42.6208L157.171 42.0009C158.317 41.9809 159.245 42.8808 159.285 44.0407L159.897 70.4378C159.917 71.5976 159.028 72.5575 157.882 72.5775Z" fill="url(#paint13_linear)"/>
<path d="M151.956 72.7175L143.403 58.699L141.369 58.739L141.724 72.9575L137.912 73.0575L137.339 48.0402C137.339 47.5803 137.477 47.1803 137.774 46.8803C138.07 46.5604 138.465 46.4004 138.919 46.4004L144.806 46.2804C146.919 46.2404 148.559 46.7603 149.724 47.8802C150.89 48.9801 151.482 50.4799 151.522 52.3797C151.581 55.4794 150.198 57.4392 147.334 58.2791L156.401 72.6375L151.956 72.7175Z" fill="url(#paint14_linear)"/>
<path d="M111.048 80.7965L89.8724 78.7768C88.786 78.6768 87.9959 77.6969 88.0946 76.597L90.0897 55.1594C90.1885 54.0595 91.1564 53.2596 92.2428 53.3596L113.418 55.3794C114.504 55.4793 115.295 56.4592 115.196 57.5591L113.201 78.9967C113.082 80.0966 112.134 80.8965 111.048 80.7965Z" fill="url(#paint15_linear)"/>
<path d="M94.5341 73.9573L95.8971 59.6789C95.9366 59.2989 96.0946 59.019 96.3712 58.799C96.6477 58.599 96.9835 58.499 97.3588 58.539L101.902 58.979C103.423 59.119 104.727 59.6189 105.813 60.4388C106.9 61.2587 107.67 62.2786 108.124 63.4985C108.579 64.7183 108.756 66.0182 108.618 67.4181C108.401 69.6178 107.571 71.3976 106.09 72.7775C104.608 74.1573 102.712 74.7373 100.401 74.5173L94.5341 73.9573Z" fill="url(#paint16_linear)"/>
<path d="M63.7984 70.0978L41.8329 71.2976C40.549 71.3776 39.4428 70.3577 39.3638 69.0579L38.1786 46.8203C38.0996 45.5205 39.107 44.4006 40.3909 44.3206L62.3564 43.1207C63.6403 43.0407 64.7465 44.0606 64.8255 45.3605L66.0107 67.598C66.0897 68.8979 65.1021 70.0178 63.7984 70.0978Z" fill="url(#paint17_linear)"/>
<path d="M50.4255 70.8177L49.4774 54.4195L54.3366 54.1595L55.2848 70.5577L50.4255 70.8177Z" fill="url(#paint18_linear)"/>
<path d="M54.2576 52.0398L49.3983 52.2997L49.1415 47.3803L54.0008 47.1203L54.2576 52.0398Z" fill="url(#paint19_linear)"/>
<path d="M6.73615 95.6134C6.47717 95.6134 6.27738 95.5422 6.13679 95.3999C5.9962 95.2575 5.9259 95.0553 5.9259 94.7931V88.5005C5.9259 88.2383 6.0036 88.0286 6.15899 87.8713C6.31438 87.7139 6.52526 87.6353 6.79164 87.6353C7.05803 87.6353 7.26891 87.7139 7.4243 87.8713C7.57969 88.0286 7.65739 88.2383 7.65739 88.5005V94.1863H10.4988C11.039 94.1863 11.309 94.426 11.309 94.9055C11.309 95.3774 11.039 95.6134 10.4988 95.6134H6.73615Z" fill="url(#paint20_linear)"/>
<path d="M12.9903 95.6134C12.7313 95.6134 12.5315 95.5422 12.391 95.3999C12.2504 95.2575 12.1801 95.0553 12.1801 94.7931V88.5117C12.1801 88.2496 12.2504 88.0473 12.391 87.905C12.5315 87.7626 12.7313 87.6915 12.9903 87.6915H16.9194C17.467 87.6915 17.7408 87.9162 17.7408 88.3657C17.7408 88.8226 17.467 89.0511 16.9194 89.0511H13.8672V90.9052H16.6975C17.245 90.9052 17.5188 91.1337 17.5188 91.5906C17.5188 92.0401 17.245 92.2648 16.6975 92.2648H13.8672V94.2537H16.9194C17.467 94.2537 17.7408 94.4822 17.7408 94.9392C17.7408 95.3886 17.467 95.6134 16.9194 95.6134H12.9903Z" fill="url(#paint21_linear)"/>
<path d="M25.9432 94.5459C26.0024 94.6807 26.032 94.8006 26.032 94.9055C26.032 95.1152 25.9469 95.295 25.7767 95.4448C25.6139 95.5872 25.4252 95.6583 25.2107 95.6583C25.0701 95.6583 24.9369 95.6209 24.8111 95.5459C24.6853 95.4635 24.5891 95.3437 24.5225 95.1864L23.9342 93.8604H20.1716L19.5833 95.1864C19.5168 95.3437 19.4206 95.4635 19.2948 95.5459C19.1764 95.6209 19.0432 95.6583 18.8952 95.6583C18.6806 95.6583 18.4882 95.5872 18.318 95.4448C18.1478 95.295 18.0627 95.1152 18.0627 94.9055C18.0627 94.8006 18.0923 94.6807 18.1515 94.5459L21.1483 88.1746C21.2297 87.9949 21.3518 87.86 21.5146 87.7701C21.6774 87.6727 21.8513 87.624 22.0363 87.624C22.2287 87.624 22.4063 87.6727 22.569 87.7701C22.7318 87.8675 22.8576 88.0023 22.9464 88.1746L25.9432 94.5459ZM23.346 92.5345L22.0585 89.6129L20.7599 92.5345H23.346Z" fill="url(#paint22_linear)"/>
<path d="M33.4016 94.5009C33.5126 94.6657 33.5681 94.8268 33.5681 94.9841C33.5681 95.1939 33.483 95.3662 33.3128 95.501C33.1501 95.6358 32.9577 95.7033 32.7357 95.7033C32.5951 95.7033 32.4582 95.6696 32.325 95.6021C32.1918 95.5347 32.0808 95.4298 31.992 95.2875L30.5269 93.0851C30.4011 92.8903 30.268 92.7517 30.1274 92.6693C29.9868 92.5794 29.8092 92.5345 29.5946 92.5345H28.6956V94.8043C28.6956 95.074 28.6179 95.2875 28.4625 95.4448C28.3145 95.6021 28.111 95.6808 27.852 95.6808C27.5856 95.6808 27.3748 95.6021 27.2194 95.4448C27.064 95.2875 26.9863 95.074 26.9863 94.8043V88.5117C26.9863 88.2496 27.0566 88.0473 27.1972 87.905C27.3378 87.7626 27.5375 87.6915 27.7965 87.6915H30.5824C31.5 87.6915 32.1918 87.8975 32.658 88.3095C33.1316 88.714 33.3683 89.3021 33.3683 90.0737C33.3683 90.6804 33.2019 91.1861 32.8689 91.5906C32.5359 91.9951 32.066 92.2611 31.4593 92.3884C31.6813 92.4334 31.8773 92.5233 32.0475 92.6581C32.2251 92.7855 32.3953 92.9727 32.5581 93.2199L33.4016 94.5009ZM30.3272 91.2086C30.8229 91.2086 31.1818 91.1224 31.4038 90.9501C31.6258 90.7703 31.7368 90.4932 31.7368 90.1186C31.7368 89.7366 31.6258 89.4594 31.4038 89.2871C31.1818 89.1148 30.8229 89.0286 30.3272 89.0286H28.6734V91.2086H30.3272Z" fill="url(#paint23_linear)"/>
<path d="M40.7401 87.6353C40.9843 87.6353 41.1804 87.7177 41.3284 87.8825C41.4838 88.0398 41.5615 88.2458 41.5615 88.5005V94.8043C41.5615 95.0665 41.4838 95.28 41.3284 95.4448C41.1804 95.6021 40.9843 95.6808 40.7401 95.6808C40.4738 95.6808 40.2592 95.5834 40.0964 95.3886L36.3781 90.5681V94.8043C36.3781 95.0665 36.3041 95.28 36.1562 95.4448C36.0156 95.6021 35.8232 95.6808 35.579 95.6808C35.3348 95.6808 35.1387 95.6021 34.9907 95.4448C34.8428 95.28 34.7688 95.0665 34.7688 94.8043V88.5005C34.7688 88.2458 34.8428 88.0398 34.9907 87.8825C35.1461 87.7177 35.3459 87.6353 35.5901 87.6353C35.8639 87.6353 36.0748 87.7327 36.2228 87.9274L39.941 92.7143V88.5005C39.941 88.2458 40.015 88.0398 40.163 87.8825C40.311 87.7177 40.5034 87.6353 40.7401 87.6353Z" fill="url(#paint24_linear)"/>
<path d="M43.9806 95.6808C43.7142 95.6808 43.5033 95.6021 43.3479 95.4448C43.1926 95.2875 43.1149 95.074 43.1149 94.8043V88.5005C43.1149 88.2383 43.1926 88.0286 43.3479 87.8713C43.5033 87.7139 43.7142 87.6353 43.9806 87.6353C44.247 87.6353 44.4579 87.7139 44.6133 87.8713C44.7687 88.0286 44.8463 88.2383 44.8463 88.5005V94.8043C44.8463 95.074 44.7687 95.2875 44.6133 95.4448C44.4579 95.6021 44.247 95.6808 43.9806 95.6808Z" fill="url(#paint25_linear)"/>
<path d="M52.3705 87.6353C52.6147 87.6353 52.8108 87.7177 52.9588 87.8825C53.1142 88.0398 53.1918 88.2458 53.1918 88.5005V94.8043C53.1918 95.0665 53.1142 95.28 52.9588 95.4448C52.8108 95.6021 52.6147 95.6808 52.3705 95.6808C52.1041 95.6808 51.8895 95.5834 51.7267 95.3886L48.0085 90.5681V94.8043C48.0085 95.0665 47.9345 95.28 47.7865 95.4448C47.6459 95.6021 47.4535 95.6808 47.2094 95.6808C46.9652 95.6808 46.7691 95.6021 46.6211 95.4448C46.4731 95.28 46.3991 95.0665 46.3991 94.8043V88.5005C46.3991 88.2458 46.4731 88.0398 46.6211 87.8825C46.7765 87.7177 46.9763 87.6353 47.2205 87.6353C47.4942 87.6353 47.7051 87.7327 47.8531 87.9274L51.5714 92.7143V88.5005C51.5714 88.2458 51.6454 88.0398 51.7933 87.8825C51.9413 87.7177 52.1337 87.6353 52.3705 87.6353Z" fill="url(#paint26_linear)"/>
<path d="M60.7943 91.2423C61.0015 91.2423 61.1643 91.3022 61.2827 91.4221C61.4085 91.5344 61.4714 91.6917 61.4714 91.894V94.0852C61.4714 94.3848 61.4455 94.617 61.3937 94.7819C61.3493 94.9467 61.2679 95.0778 61.1495 95.1751C61.0311 95.2725 60.8535 95.3549 60.6167 95.4223C60.3281 95.5122 59.9952 95.5834 59.6178 95.6358C59.2478 95.6883 58.8963 95.7145 58.5634 95.7145C57.7346 95.7145 57.0169 95.5534 56.4101 95.2313C55.8033 94.9017 55.3372 94.4335 55.0116 93.8267C54.686 93.2125 54.5232 92.4858 54.5232 91.6468C54.5232 90.8228 54.6823 90.1074 55.0005 89.5006C55.3261 88.8863 55.7886 88.4144 56.3879 88.0847C56.9873 87.7551 57.6865 87.5903 58.4857 87.5903C59.5142 87.5903 60.3651 87.86 61.0385 88.3994C61.1495 88.4893 61.2272 88.5792 61.2716 88.6691C61.316 88.759 61.3382 88.8713 61.3382 89.0062C61.3382 89.2009 61.2827 89.3695 61.1717 89.5118C61.0681 89.6467 60.9423 89.7141 60.7943 89.7141C60.6981 89.7141 60.6093 89.6991 60.5279 89.6691C60.4539 89.6392 60.3614 89.5905 60.2504 89.5231C59.9397 89.3283 59.6548 89.1897 59.3958 89.1073C59.1368 89.0249 58.8519 88.9837 58.5412 88.9837C57.0317 88.9837 56.2769 89.8714 56.2769 91.6468C56.2769 92.5607 56.473 93.2424 56.8652 93.6919C57.2574 94.1414 57.8493 94.3661 58.6411 94.3661C59.0702 94.3661 59.4957 94.3099 59.9175 94.1975V92.4558H58.8963C58.6818 92.4558 58.5153 92.4034 58.3969 92.2985C58.2785 92.1937 58.2193 92.0438 58.2193 91.8491C58.2193 91.6543 58.2785 91.5045 58.3969 91.3996C58.5153 91.2947 58.6818 91.2423 58.8963 91.2423H60.7943Z" fill="url(#paint27_linear)"/>
<path d="M66.9053 95.6808C66.6389 95.6808 66.428 95.6021 66.2727 95.4448C66.1173 95.2875 66.0396 95.074 66.0396 94.8043V88.5005C66.0396 88.2383 66.1173 88.0286 66.2727 87.8713C66.428 87.7139 66.6389 87.6353 66.9053 87.6353C67.1717 87.6353 67.3826 87.7139 67.538 87.8713C67.6934 88.0286 67.771 88.2383 67.771 88.5005V94.8043C67.771 95.074 67.6934 95.2875 67.538 95.4448C67.3826 95.6021 67.1717 95.6808 66.9053 95.6808Z" fill="url(#paint28_linear)"/>
<path d="M72.143 95.7145C71.5585 95.7145 71.0146 95.6471 70.5114 95.5122C70.0083 95.3699 69.5976 95.1714 69.2794 94.9167C69.1684 94.8343 69.087 94.7481 69.0352 94.6582C68.9908 94.5609 68.9686 94.441 68.9686 94.2987C68.9686 94.1114 69.0241 93.9466 69.1351 93.8043C69.2535 93.6619 69.3867 93.5908 69.5347 93.5908C69.6161 93.5908 69.6938 93.6057 69.7678 93.6357C69.8492 93.6582 69.9454 93.7031 70.0564 93.7705C70.3745 93.9728 70.6964 94.1226 71.022 94.22C71.3476 94.3099 71.7065 94.3549 72.0986 94.3549C72.587 94.3549 72.9607 94.2725 73.2197 94.1076C73.4786 93.9428 73.6081 93.7069 73.6081 93.3997C73.6081 93.1675 73.486 92.9802 73.2419 92.8379C73.0051 92.6956 72.5796 92.5607 71.9654 92.4334C71.2773 92.291 70.726 92.1187 70.3116 91.9165C69.9047 91.7142 69.605 91.4633 69.4126 91.1636C69.2276 90.864 69.1351 90.5006 69.1351 90.0737C69.1351 89.6017 69.2683 89.1785 69.5347 88.8039C69.8085 88.4219 70.1822 88.126 70.6557 87.9162C71.1367 87.699 71.6769 87.5903 72.2762 87.5903C73.3269 87.5903 74.1927 87.8563 74.8734 88.3881C74.9844 88.478 75.0621 88.5717 75.1065 88.6691C75.1583 88.759 75.1842 88.8713 75.1842 89.0062C75.1842 89.1934 75.125 89.3582 75.0066 89.5006C74.8956 89.6429 74.7661 89.7141 74.6182 89.7141C74.5368 89.7141 74.4591 89.7028 74.3851 89.6804C74.3185 89.6579 74.2223 89.6092 74.0965 89.5343C73.7931 89.3395 73.5119 89.1934 73.2529 89.0961C73.0014 88.9987 72.6795 88.95 72.2873 88.95C71.8359 88.95 71.4808 89.0399 71.2218 89.2197C70.9628 89.392 70.8333 89.6317 70.8333 89.9388C70.8333 90.1186 70.8814 90.2684 70.9776 90.3883C71.0812 90.5006 71.2477 90.6018 71.4771 90.6917C71.7139 90.7816 72.0468 90.8752 72.476 90.9726C73.4823 91.1973 74.2038 91.4857 74.6404 91.8378C75.0843 92.1899 75.3063 92.6731 75.3063 93.2874C75.3063 93.7668 75.1731 94.19 74.9067 94.5571C74.6478 94.9242 74.2778 95.2088 73.7968 95.4111C73.3232 95.6134 72.772 95.7145 72.143 95.7145Z" fill="url(#paint29_linear)"/>
<path d="M80.5192 95.6808C80.2602 95.6808 80.0494 95.6021 79.8866 95.4448C79.7312 95.28 79.6535 95.0665 79.6535 94.8043V88.5117C79.6535 88.2496 79.7238 88.0473 79.8644 87.905C80.005 87.7626 80.2047 87.6915 80.4637 87.6915H84.2819C84.563 87.6915 84.7702 87.7476 84.9034 87.86C85.0366 87.9724 85.1032 88.1484 85.1032 88.3881C85.1032 88.6204 85.0366 88.7927 84.9034 88.905C84.7702 89.0174 84.563 89.0736 84.2819 89.0736H81.3628V90.8939H84.0599C84.3411 90.8939 84.5482 90.9501 84.6814 91.0625C84.8146 91.1749 84.8812 91.3509 84.8812 91.5906C84.8812 91.8228 84.8146 91.9951 84.6814 92.1075C84.5482 92.2199 84.3411 92.2761 84.0599 92.2761H81.3628V94.8043C81.3628 95.074 81.2851 95.2875 81.1297 95.4448C80.9817 95.6021 80.7782 95.6808 80.5192 95.6808Z" fill="url(#paint30_linear)"/>
<path d="M89.3239 95.7145C88.2287 95.7145 87.3926 95.4298 86.8154 94.8605C86.2457 94.2837 85.9608 93.4447 85.9608 92.3435V88.5005C85.9608 88.2383 86.0385 88.0286 86.1939 87.8713C86.3493 87.7139 86.5565 87.6353 86.8154 87.6353C87.0744 87.6353 87.2779 87.7139 87.4259 87.8713C87.5813 88.0286 87.659 88.2383 87.659 88.5005V92.4221C87.659 93.0514 87.7996 93.5308 88.0807 93.8604C88.3693 94.19 88.7837 94.3549 89.3239 94.3549C89.864 94.3549 90.2784 94.19 90.567 93.8604C90.8556 93.5233 90.9999 93.0439 90.9999 92.4221V88.5005C90.9999 88.2383 91.0739 88.0286 91.2218 87.8713C91.3772 87.7139 91.5844 87.6353 91.8434 87.6353C92.1024 87.6353 92.3096 87.7139 92.465 87.8713C92.6203 88.0286 92.698 88.2383 92.698 88.5005V92.3435C92.698 93.4372 92.4095 94.2725 91.8323 94.8493C91.2551 95.4261 90.419 95.7145 89.3239 95.7145Z" fill="url(#paint31_linear)"/>
<path d="M100.182 87.6353C100.426 87.6353 100.622 87.7177 100.77 87.8825C100.925 88.0398 101.003 88.2458 101.003 88.5005V94.8043C101.003 95.0665 100.925 95.28 100.77 95.4448C100.622 95.6021 100.426 95.6808 100.182 95.6808C99.9154 95.6808 99.7008 95.5834 99.538 95.3886L95.8198 90.5681V94.8043C95.8198 95.0665 95.7458 95.28 95.5978 95.4448C95.4572 95.6021 95.2648 95.6808 95.0206 95.6808C94.7765 95.6808 94.5804 95.6021 94.4324 95.4448C94.2844 95.28 94.2104 95.0665 94.2104 94.8043V88.5005C94.2104 88.2458 94.2844 88.0398 94.4324 87.8825C94.5878 87.7177 94.7876 87.6353 95.0317 87.6353C95.3055 87.6353 95.5164 87.7327 95.6644 87.9274L99.3826 92.7143V88.5005C99.3826 88.2458 99.4566 88.0398 99.6046 87.8825C99.7526 87.7177 99.945 87.6353 100.182 87.6353Z" fill="url(#paint32_linear)"/>
<path d="M115.357 88.1634C115.424 87.9836 115.524 87.8488 115.657 87.7589C115.797 87.6615 115.953 87.6128 116.123 87.6128C116.338 87.6128 116.519 87.6802 116.667 87.8151C116.822 87.9499 116.9 88.1334 116.9 88.3657C116.9 88.478 116.878 88.6016 116.833 88.7365L114.525 95.1302C114.458 95.31 114.34 95.4523 114.17 95.5572C114.007 95.6546 113.826 95.7033 113.626 95.7033C113.426 95.7033 113.245 95.6546 113.082 95.5572C112.919 95.4523 112.804 95.31 112.738 95.1302L111.084 90.3995L109.386 95.1302C109.319 95.31 109.205 95.4523 109.042 95.5572C108.879 95.6546 108.698 95.7033 108.498 95.7033C108.306 95.7033 108.124 95.6546 107.954 95.5572C107.791 95.4523 107.677 95.31 107.61 95.1302L105.301 88.7365C105.257 88.6091 105.235 88.4893 105.235 88.3769C105.235 88.1447 105.316 87.9611 105.479 87.8263C105.642 87.684 105.834 87.6128 106.056 87.6128C106.234 87.6128 106.393 87.6615 106.533 87.7589C106.681 87.8488 106.789 87.9836 106.855 88.1634L108.564 93.1413L110.34 88.1859C110.407 88.0061 110.511 87.8675 110.651 87.7701C110.799 87.6727 110.955 87.624 111.117 87.624C111.287 87.624 111.443 87.6727 111.583 87.7701C111.724 87.8675 111.828 88.0098 111.894 88.1971L113.592 93.2312L115.357 88.1634Z" fill="url(#paint33_linear)"/>
<path d="M118.9 95.6808C118.634 95.6808 118.423 95.6021 118.268 95.4448C118.112 95.2875 118.035 95.074 118.035 94.8043V88.5005C118.035 88.2383 118.112 88.0286 118.268 87.8713C118.423 87.7139 118.634 87.6353 118.9 87.6353C119.167 87.6353 119.378 87.7139 119.533 87.8713C119.689 88.0286 119.766 88.2383 119.766 88.5005V94.8043C119.766 95.074 119.689 95.2875 119.533 95.4448C119.378 95.6021 119.167 95.6808 118.9 95.6808Z" fill="url(#paint34_linear)"/>
<path d="M123.994 95.6696C123.735 95.6696 123.524 95.5909 123.361 95.4336C123.206 95.2763 123.128 95.0665 123.128 94.8043V89.1185H121.33C120.783 89.1185 120.509 88.8788 120.509 88.3994C120.509 87.9274 120.783 87.6915 121.33 87.6915H126.658C127.205 87.6915 127.479 87.9274 127.479 88.3994C127.479 88.8788 127.205 89.1185 126.658 89.1185H124.86V94.8043C124.86 95.0665 124.782 95.2763 124.627 95.4336C124.471 95.5909 124.26 95.6696 123.994 95.6696Z" fill="url(#paint35_linear)"/>
<path d="M134.372 87.6353C134.631 87.6353 134.839 87.7139 134.994 87.8713C135.149 88.0286 135.227 88.2383 135.227 88.5005V94.8043C135.227 95.0665 135.149 95.28 134.994 95.4448C134.839 95.6021 134.631 95.6808 134.372 95.6808C134.113 95.6808 133.906 95.6021 133.751 95.4448C133.603 95.2875 133.529 95.074 133.529 94.8043V92.2873H129.922V94.8043C129.922 95.0665 129.844 95.28 129.689 95.4448C129.533 95.6021 129.33 95.6808 129.078 95.6808C128.819 95.6808 128.612 95.6021 128.457 95.4448C128.301 95.2875 128.223 95.074 128.223 94.8043V88.5005C128.223 88.2383 128.301 88.0286 128.457 87.8713C128.612 87.7139 128.819 87.6353 129.078 87.6353C129.337 87.6353 129.541 87.7139 129.689 87.8713C129.844 88.0286 129.922 88.2383 129.922 88.5005V90.8939H133.529V88.5005C133.529 88.2383 133.603 88.0286 133.751 87.8713C133.906 87.7139 134.113 87.6353 134.372 87.6353Z" fill="url(#paint36_linear)"/>
<path d="M143.205 95.7145C142.11 95.7145 141.274 95.4298 140.697 94.8605C140.127 94.2837 139.842 93.4447 139.842 92.3435V88.5005C139.842 88.2383 139.92 88.0286 140.075 87.8713C140.23 87.7139 140.438 87.6353 140.697 87.6353C140.956 87.6353 141.159 87.7139 141.307 87.8713C141.462 88.0286 141.54 88.2383 141.54 88.5005V92.4221C141.54 93.0514 141.681 93.5308 141.962 93.8604C142.251 94.19 142.665 94.3549 143.205 94.3549C143.745 94.3549 144.16 94.19 144.448 93.8604C144.737 93.5233 144.881 93.0439 144.881 92.4221V88.5005C144.881 88.2383 144.955 88.0286 145.103 87.8713C145.258 87.7139 145.466 87.6353 145.725 87.6353C145.984 87.6353 146.191 87.7139 146.346 87.8713C146.502 88.0286 146.579 88.2383 146.579 88.5005V92.3435C146.579 93.4372 146.291 94.2725 145.713 94.8493C145.136 95.4261 144.3 95.7145 143.205 95.7145Z" fill="url(#paint37_linear)"/>
<path d="M150.911 95.7145C150.326 95.7145 149.782 95.6471 149.279 95.5122C148.776 95.3699 148.365 95.1714 148.047 94.9167C147.936 94.8343 147.855 94.7481 147.803 94.6582C147.759 94.5609 147.736 94.441 147.736 94.2987C147.736 94.1114 147.792 93.9466 147.903 93.8043C148.021 93.6619 148.154 93.5908 148.302 93.5908C148.384 93.5908 148.462 93.6057 148.536 93.6357C148.617 93.6582 148.713 93.7031 148.824 93.7705C149.142 93.9728 149.464 94.1226 149.79 94.22C150.115 94.3099 150.474 94.3549 150.866 94.3549C151.355 94.3549 151.728 94.2725 151.987 94.1076C152.246 93.9428 152.376 93.7069 152.376 93.3997C152.376 93.1675 152.254 92.9802 152.01 92.8379C151.773 92.6956 151.347 92.5607 150.733 92.4334C150.045 92.291 149.494 92.1187 149.079 91.9165C148.672 91.7142 148.373 91.4633 148.18 91.1636C147.995 90.864 147.903 90.5006 147.903 90.0737C147.903 89.6017 148.036 89.1785 148.302 88.8039C148.576 88.4219 148.95 88.126 149.423 87.9162C149.904 87.699 150.445 87.5903 151.044 87.5903C152.095 87.5903 152.96 87.8563 153.641 88.3881C153.752 88.478 153.83 88.5717 153.874 88.6691C153.926 88.759 153.952 88.8713 153.952 89.0062C153.952 89.1934 153.893 89.3582 153.774 89.5006C153.663 89.6429 153.534 89.7141 153.386 89.7141C153.305 89.7141 153.227 89.7028 153.153 89.6804C153.086 89.6579 152.99 89.6092 152.864 89.5343C152.561 89.3395 152.28 89.1934 152.021 89.0961C151.769 88.9987 151.447 88.95 151.055 88.95C150.604 88.95 150.249 89.0399 149.99 89.2197C149.731 89.392 149.601 89.6317 149.601 89.9388C149.601 90.1186 149.649 90.2684 149.745 90.3883C149.849 90.5006 150.015 90.6018 150.245 90.6917C150.482 90.7816 150.815 90.8752 151.244 90.9726C152.25 91.1973 152.972 91.4857 153.408 91.8378C153.852 92.1899 154.074 92.6731 154.074 93.2874C154.074 93.7668 153.941 94.19 153.674 94.5571C153.416 94.9242 153.046 95.2088 152.565 95.4111C152.091 95.6134 151.54 95.7145 150.911 95.7145Z" fill="url(#paint38_linear)"/>
<defs>
<linearGradient id="paint0_linear" x1="65.4247" y1="40.8368" x2="94.9786" y2="41.7794" gradientUnits="userSpaceOnUse">
<stop offset="0.0489691" stop-color="#3DE5A4"/>
<stop offset="1" stop-color="#4D8665"/>
</linearGradient>
<linearGradient id="paint1_linear" x1="65.8585" y1="43.7295" x2="89.9504" y2="67.4328" gradientUnits="userSpaceOnUse">
<stop stop-color="#2A9092"/>
<stop offset="0.951" stop-color="#6FB186"/>
</linearGradient>
<linearGradient id="paint2_linear" x1="75.6068" y1="45.2158" x2="86.118" y2="74.7025" gradientUnits="userSpaceOnUse">
<stop stop-color="white"/>
<stop offset="0.1978" stop-color="#FBFEFD"/>
<stop offset="0.3725" stop-color="#F1FAF9"/>
<stop offset="0.5385" stop-color="#DFF4F0"/>
<stop offset="0.6991" stop-color="#C5EBE5"/>
<stop offset="0.8544" stop-color="#A5DFD6"/>
<stop offset="1" stop-color="#7FD2C5"/>
</linearGradient>
<linearGradient id="paint3_linear" x1="81.4069" y1="27.7206" x2="40.1307" y2="11.3995" gradientUnits="userSpaceOnUse">
<stop stop-color="#FCC900"/>
<stop offset="1" stop-color="#F0445F"/>
</linearGradient>
<linearGradient id="paint4_linear" x1="59.4074" y1="10.2995" x2="63.0421" y2="37.1486" gradientUnits="userSpaceOnUse">
<stop stop-color="white"/>
<stop offset="0.2389" stop-color="#FFFBFA"/>
<stop offset="0.5041" stop-color="#FFEFED"/>
<stop offset="0.7808" stop-color="#FFDBD7"/>
<stop offset="1" stop-color="#FFC7C0"/>
</linearGradient>
<linearGradient id="paint5_linear" x1="89.1912" y1="31.6012" x2="72.5819" y2="9.77804" gradientUnits="userSpaceOnUse">
<stop offset="0.0850515" stop-color="#01B8E2"/>
<stop offset="0.9588" stop-color="#B866E2"/>
</linearGradient>
<linearGradient id="paint6_linear" x1="4.37693" y1="31.5249" x2="41.0445" y2="59.7367" gradientUnits="userSpaceOnUse">
<stop offset="0.0850515" stop-color="#01B8E2"/>
<stop offset="0.9588" stop-color="#B866E2"/>
</linearGradient>
<linearGradient id="paint7_linear" x1="13.6896" y1="46.8899" x2="37.4264" y2="56.5743" gradientUnits="userSpaceOnUse">
<stop stop-color="white"/>
<stop offset="0.1868" stop-color="#FBFAFD"/>
<stop offset="0.3941" stop-color="#EEEDF8"/>
<stop offset="0.6114" stop-color="#D9D7EE"/>
<stop offset="0.834" stop-color="#BCB8E2"/>
<stop offset="1" stop-color="#A29CD6"/>
</linearGradient>
<linearGradient id="paint8_linear" x1="86.8896" y1="38.734" x2="130.314" y2="7.23757" gradientUnits="userSpaceOnUse">
<stop stop-color="#D11F36"/>
<stop offset="1" stop-color="#E2688D"/>
</linearGradient>
<linearGradient id="paint9_linear" x1="111.317" y1="46.2106" x2="126.709" y2="69.5986" gradientUnits="userSpaceOnUse">
<stop offset="0.0850515" stop-color="#01B8E2"/>
<stop offset="0.9588" stop-color="#B866E2"/>
</linearGradient>
<linearGradient id="paint10_linear" x1="115.339" y1="63.1966" x2="134.48" y2="59.9947" gradientUnits="userSpaceOnUse">
<stop stop-color="white"/>
<stop offset="0.1868" stop-color="#FBFAFD"/>
<stop offset="0.3941" stop-color="#EEEDF8"/>
<stop offset="0.6114" stop-color="#D9D7EE"/>
<stop offset="0.834" stop-color="#BCB8E2"/>
<stop offset="1" stop-color="#A29CD6"/>
</linearGradient>
<linearGradient id="paint11_linear" x1="99.7882" y1="13.7826" x2="125.024" y2="34.1962" gradientUnits="userSpaceOnUse">
<stop stop-color="white"/>
<stop offset="0.2205" stop-color="#FFFAFC"/>
<stop offset="0.4652" stop-color="#FFEDF5"/>
<stop offset="0.7216" stop-color="#FFD7E8"/>
<stop offset="0.9846" stop-color="#FFB8D7"/>
<stop offset="1" stop-color="#FFB6D6"/>
</linearGradient>
<linearGradient id="paint12_linear" x1="76.4397" y1="16.4531" x2="84.9998" y2="22.8586" gradientUnits="userSpaceOnUse">
<stop stop-color="white"/>
<stop offset="0.1868" stop-color="#FBFAFD"/>
<stop offset="0.3941" stop-color="#EEEDF8"/>
<stop offset="0.6114" stop-color="#D9D7EE"/>
<stop offset="0.834" stop-color="#BCB8E2"/>
<stop offset="1" stop-color="#A29CD6"/>
</linearGradient>
<linearGradient id="paint13_linear" x1="128.381" y1="74.6892" x2="161.333" y2="40.5794" gradientUnits="userSpaceOnUse">
<stop stop-color="#FCC900"/>
<stop offset="1" stop-color="#F0445F"/>
</linearGradient>
<linearGradient id="paint14_linear" x1="135.248" y1="48.0315" x2="149.465" y2="67.9603" gradientUnits="userSpaceOnUse">
<stop stop-color="white"/>
<stop offset="0.2389" stop-color="#FFFBFA"/>
<stop offset="0.5041" stop-color="#FFEFED"/>
<stop offset="0.7808" stop-color="#FFDBD7"/>
<stop offset="1" stop-color="#FFC7C0"/>
</linearGradient>
<linearGradient id="paint15_linear" x1="92.216" y1="54.701" x2="111.022" y2="78.7907" gradientUnits="userSpaceOnUse">
<stop stop-color="#FCC900"/>
<stop offset="1" stop-color="#F0445F"/>
</linearGradient>
<linearGradient id="paint16_linear" x1="95.9189" y1="62.0836" x2="104.992" y2="72.4363" gradientUnits="userSpaceOnUse">
<stop stop-color="white"/>
<stop offset="0.2389" stop-color="#FFFBFA"/>
<stop offset="0.5041" stop-color="#FFEFED"/>
<stop offset="0.7808" stop-color="#FFDBD7"/>
<stop offset="1" stop-color="#FFC7C0"/>
</linearGradient>
<linearGradient id="paint17_linear" x1="66.6933" y1="69.7478" x2="44.952" y2="51.5202" gradientUnits="userSpaceOnUse">
<stop stop-color="#D11F36"/>
<stop offset="0.951" stop-color="#EC4A88"/>
</linearGradient>
<linearGradient id="paint18_linear" x1="49.4797" y1="62.4891" x2="55.2794" y2="62.4891" gradientUnits="userSpaceOnUse">
<stop stop-color="white"/>
<stop offset="0.2205" stop-color="#FFFAFC"/>
<stop offset="0.4652" stop-color="#FFEDF5"/>
<stop offset="0.7216" stop-color="#FFD7E8"/>
<stop offset="0.9846" stop-color="#FFB8D7"/>
<stop offset="1" stop-color="#FFB6D6"/>
</linearGradient>
<linearGradient id="paint19_linear" x1="51.6362" y1="47.6801" x2="52.2685" y2="66.5759" gradientUnits="userSpaceOnUse">
<stop stop-color="white"/>
<stop offset="0.2205" stop-color="#FFFAFC"/>
<stop offset="0.4652" stop-color="#FFEDF5"/>
<stop offset="0.7216" stop-color="#FFD7E8"/>
<stop offset="0.9846" stop-color="#FFB8D7"/>
<stop offset="1" stop-color="#FFB6D6"/>
</linearGradient>
<linearGradient id="paint20_linear" x1="5.09701" y1="84.1723" x2="154.588" y2="84.1723" gradientUnits="userSpaceOnUse">
<stop stop-color="#14AFE2"/>
<stop offset="1" stop-color="#AB6BE2"/>
</linearGradient>
<linearGradient id="paint21_linear" x1="5.09701" y1="84.1723" x2="154.588" y2="84.1723" gradientUnits="userSpaceOnUse">
<stop stop-color="#14AFE2"/>
<stop offset="1" stop-color="#AB6BE2"/>
</linearGradient>
<linearGradient id="paint22_linear" x1="5.09701" y1="84.1723" x2="154.588" y2="84.1723" gradientUnits="userSpaceOnUse">
<stop stop-color="#14AFE2"/>
<stop offset="1" stop-color="#AB6BE2"/>
</linearGradient>
<linearGradient id="paint23_linear" x1="5.09701" y1="84.1723" x2="154.588" y2="84.1723" gradientUnits="userSpaceOnUse">
<stop stop-color="#14AFE2"/>
<stop offset="1" stop-color="#AB6BE2"/>
</linearGradient>
<linearGradient id="paint24_linear" x1="5.09701" y1="84.1723" x2="154.588" y2="84.1723" gradientUnits="userSpaceOnUse">
<stop stop-color="#14AFE2"/>
<stop offset="1" stop-color="#AB6BE2"/>
</linearGradient>
<linearGradient id="paint25_linear" x1="5.09701" y1="84.1723" x2="154.588" y2="84.1723" gradientUnits="userSpaceOnUse">
<stop stop-color="#14AFE2"/>
<stop offset="1" stop-color="#AB6BE2"/>
</linearGradient>
<linearGradient id="paint26_linear" x1="5.09701" y1="84.1723" x2="154.588" y2="84.1723" gradientUnits="userSpaceOnUse">
<stop stop-color="#14AFE2"/>
<stop offset="1" stop-color="#AB6BE2"/>
</linearGradient>
<linearGradient id="paint27_linear" x1="5.09701" y1="84.1723" x2="154.588" y2="84.1723" gradientUnits="userSpaceOnUse">
<stop stop-color="#14AFE2"/>
<stop offset="1" stop-color="#AB6BE2"/>
</linearGradient>
<linearGradient id="paint28_linear" x1="5.09701" y1="84.1723" x2="154.588" y2="84.1723" gradientUnits="userSpaceOnUse">
<stop stop-color="#14AFE2"/>
<stop offset="1" stop-color="#AB6BE2"/>
</linearGradient>
<linearGradient id="paint29_linear" x1="5.09701" y1="84.1723" x2="154.588" y2="84.1723" gradientUnits="userSpaceOnUse">
<stop stop-color="#14AFE2"/>
<stop offset="1" stop-color="#AB6BE2"/>
</linearGradient>
<linearGradient id="paint30_linear" x1="5.09701" y1="84.1723" x2="154.588" y2="84.1723" gradientUnits="userSpaceOnUse">
<stop stop-color="#14AFE2"/>
<stop offset="1" stop-color="#AB6BE2"/>
</linearGradient>
<linearGradient id="paint31_linear" x1="5.09701" y1="84.1723" x2="154.588" y2="84.1723" gradientUnits="userSpaceOnUse">
<stop stop-color="#14AFE2"/>
<stop offset="1" stop-color="#AB6BE2"/>
</linearGradient>
<linearGradient id="paint32_linear" x1="5.09701" y1="84.1723" x2="154.588" y2="84.1723" gradientUnits="userSpaceOnUse">
<stop stop-color="#14AFE2"/>
<stop offset="1" stop-color="#AB6BE2"/>
</linearGradient>
<linearGradient id="paint33_linear" x1="5.09701" y1="84.1723" x2="154.588" y2="84.1723" gradientUnits="userSpaceOnUse">
<stop stop-color="#14AFE2"/>
<stop offset="1" stop-color="#AB6BE2"/>
</linearGradient>
<linearGradient id="paint34_linear" x1="5.09701" y1="84.1723" x2="154.588" y2="84.1723" gradientUnits="userSpaceOnUse">
<stop stop-color="#14AFE2"/>
<stop offset="1" stop-color="#AB6BE2"/>
</linearGradient>
<linearGradient id="paint35_linear" x1="5.09701" y1="84.1723" x2="154.588" y2="84.1723" gradientUnits="userSpaceOnUse">
<stop stop-color="#14AFE2"/>
<stop offset="1" stop-color="#AB6BE2"/>
</linearGradient>
<linearGradient id="paint36_linear" x1="5.09701" y1="84.1723" x2="154.588" y2="84.1723" gradientUnits="userSpaceOnUse">
<stop stop-color="#14AFE2"/>
<stop offset="1" stop-color="#AB6BE2"/>
</linearGradient>
<linearGradient id="paint37_linear" x1="5.09701" y1="84.1723" x2="154.588" y2="84.1723" gradientUnits="userSpaceOnUse">
<stop stop-color="#14AFE2"/>
<stop offset="1" stop-color="#AB6BE2"/>
</linearGradient>
<linearGradient id="paint38_linear" x1="5.09701" y1="84.1723" x2="154.588" y2="84.1723" gradientUnits="userSpaceOnUse">
<stop stop-color="#14AFE2"/>
<stop offset="1" stop-color="#AB6BE2"/>
</linearGradient>
</defs>
</svg>
